%TF.GenerationSoftware,KiCad,Pcbnew,9.0.1*%
%TF.CreationDate,2025-06-18T23:24:53+09:00*%
%TF.ProjectId,NanoV3.3,4e616e6f-5633-42e3-932e-6b696361645f,rev?*%
%TF.SameCoordinates,Original*%
%TF.FileFunction,Paste,Bot*%
%TF.FilePolarity,Positive*%
%FSLAX46Y46*%
G04 Gerber Fmt 4.6, Leading zero omitted, Abs format (unit mm)*
G04 Created by KiCad (PCBNEW 9.0.1) date 2025-06-18 23:24:53*
%MOMM*%
%LPD*%
G01*
G04 APERTURE LIST*
G04 Aperture macros list*
%AMRoundRect*
0 Rectangle with rounded corners*
0 $1 Rounding radius*
0 $2 $3 $4 $5 $6 $7 $8 $9 X,Y pos of 4 corners*
0 Add a 4 corners polygon primitive as box body*
4,1,4,$2,$3,$4,$5,$6,$7,$8,$9,$2,$3,0*
0 Add four circle primitives for the rounded corners*
1,1,$1+$1,$2,$3*
1,1,$1+$1,$4,$5*
1,1,$1+$1,$6,$7*
1,1,$1+$1,$8,$9*
0 Add four rect primitives between the rounded corners*
20,1,$1+$1,$2,$3,$4,$5,0*
20,1,$1+$1,$4,$5,$6,$7,0*
20,1,$1+$1,$6,$7,$8,$9,0*
20,1,$1+$1,$8,$9,$2,$3,0*%
G04 Aperture macros list end*
%ADD10RoundRect,0.250000X-0.450000X0.350000X-0.450000X-0.350000X0.450000X-0.350000X0.450000X0.350000X0*%
%ADD11RoundRect,0.157140X0.366660X0.366660X-0.366660X0.366660X-0.366660X-0.366660X0.366660X-0.366660X0*%
%ADD12RoundRect,0.200000X0.200000X0.275000X-0.200000X0.275000X-0.200000X-0.275000X0.200000X-0.275000X0*%
%ADD13RoundRect,0.250000X-0.475000X0.337500X-0.475000X-0.337500X0.475000X-0.337500X0.475000X0.337500X0*%
%ADD14RoundRect,0.225000X0.225000X0.250000X-0.225000X0.250000X-0.225000X-0.250000X0.225000X-0.250000X0*%
%ADD15RoundRect,0.200000X0.275000X-0.200000X0.275000X0.200000X-0.275000X0.200000X-0.275000X-0.200000X0*%
%ADD16R,1.250000X0.600000*%
%ADD17R,1.750000X0.650000*%
%ADD18RoundRect,0.129540X0.302260X0.784860X-0.302260X0.784860X-0.302260X-0.784860X0.302260X-0.784860X0*%
%ADD19RoundRect,0.225000X-0.225000X-0.250000X0.225000X-0.250000X0.225000X0.250000X-0.225000X0.250000X0*%
%ADD20RoundRect,0.250000X0.457500X0.445000X-0.457500X0.445000X-0.457500X-0.445000X0.457500X-0.445000X0*%
%ADD21RoundRect,0.250000X-0.325000X-0.450000X0.325000X-0.450000X0.325000X0.450000X-0.325000X0.450000X0*%
%ADD22RoundRect,0.150000X0.150000X-0.825000X0.150000X0.825000X-0.150000X0.825000X-0.150000X-0.825000X0*%
%ADD23RoundRect,0.225000X-0.375000X0.225000X-0.375000X-0.225000X0.375000X-0.225000X0.375000X0.225000X0*%
%ADD24RoundRect,0.250000X0.350000X0.450000X-0.350000X0.450000X-0.350000X-0.450000X0.350000X-0.450000X0*%
%ADD25RoundRect,0.375000X0.375000X-0.625000X0.375000X0.625000X-0.375000X0.625000X-0.375000X-0.625000X0*%
%ADD26RoundRect,0.500000X1.400000X-0.500000X1.400000X0.500000X-1.400000X0.500000X-1.400000X-0.500000X0*%
%ADD27R,1.000000X1.800000*%
%ADD28RoundRect,0.250001X1.074999X-0.462499X1.074999X0.462499X-1.074999X0.462499X-1.074999X-0.462499X0*%
%ADD29RoundRect,0.250000X0.650000X-1.500000X0.650000X1.500000X-0.650000X1.500000X-0.650000X-1.500000X0*%
%ADD30RoundRect,0.162500X0.617500X0.162500X-0.617500X0.162500X-0.617500X-0.162500X0.617500X-0.162500X0*%
%ADD31RoundRect,0.250000X0.450000X-0.350000X0.450000X0.350000X-0.450000X0.350000X-0.450000X-0.350000X0*%
G04 APERTURE END LIST*
D10*
%TO.C,R3*%
X98250000Y-126250000D03*
X98250000Y-128250000D03*
%TD*%
D11*
%TO.C,L5*%
X157550000Y-123400000D03*
X155450000Y-123400000D03*
%TD*%
D12*
%TO.C,R12*%
X143325000Y-122100000D03*
X141675000Y-122100000D03*
%TD*%
D13*
%TO.C,C11*%
X89000000Y-121962500D03*
X89000000Y-124037500D03*
%TD*%
D11*
%TO.C,L4*%
X143550000Y-123500000D03*
X141450000Y-123500000D03*
%TD*%
D13*
%TO.C,C8*%
X102750000Y-126212500D03*
X102750000Y-128287500D03*
%TD*%
%TO.C,C10*%
X87000000Y-121962500D03*
X87000000Y-124037500D03*
%TD*%
D14*
%TO.C,C2*%
X133447500Y-118980000D03*
X131897500Y-118980000D03*
%TD*%
D15*
%TO.C,R2*%
X109000000Y-117325000D03*
X109000000Y-115675000D03*
%TD*%
D16*
%TO.C,Q9*%
X154250000Y-120160000D03*
X154250000Y-118250000D03*
X156350000Y-119205000D03*
%TD*%
D17*
%TO.C,U7*%
X142105000Y-120370000D03*
X142105000Y-117830000D03*
X148255000Y-117830000D03*
X148255000Y-120370000D03*
%TD*%
D18*
%TO.C,SW3*%
X130526917Y-125340000D03*
X126526417Y-125340000D03*
%TD*%
D19*
%TO.C,C5*%
X104900000Y-113525000D03*
X106450000Y-113525000D03*
%TD*%
D20*
%TO.C,C1*%
X134352500Y-116250000D03*
X131647500Y-116250000D03*
%TD*%
D12*
%TO.C,R11*%
X129400000Y-121500000D03*
X127750000Y-121500000D03*
%TD*%
D21*
%TO.C,D22*%
X137047500Y-116090000D03*
X139097500Y-116090000D03*
%TD*%
D13*
%TO.C,C9*%
X104750000Y-126212500D03*
X104750000Y-128287500D03*
%TD*%
D22*
%TO.C,U5*%
X106445000Y-120975000D03*
X105175000Y-120975000D03*
X103905000Y-120975000D03*
X102635000Y-120975000D03*
X101365000Y-120975000D03*
X100095000Y-120975000D03*
X98825000Y-120975000D03*
X97555000Y-120975000D03*
X97555000Y-116025000D03*
X98825000Y-116025000D03*
X100095000Y-116025000D03*
X101365000Y-116025000D03*
X102635000Y-116025000D03*
X103905000Y-116025000D03*
X105175000Y-116025000D03*
X106445000Y-116025000D03*
%TD*%
D10*
%TO.C,R36*%
X151120000Y-118120000D03*
X151120000Y-120120000D03*
%TD*%
D23*
%TO.C,D21*%
X159250000Y-117850000D03*
X159250000Y-121150000D03*
%TD*%
D24*
%TO.C,R35*%
X139000000Y-118750000D03*
X137000000Y-118750000D03*
%TD*%
D11*
%TO.C,L3*%
X129580000Y-123000000D03*
X127480000Y-123000000D03*
%TD*%
D13*
%TO.C,C12*%
X100500000Y-126175000D03*
X100500000Y-128250000D03*
%TD*%
D18*
%TO.C,SW2*%
X116460250Y-125340000D03*
X112459750Y-125340000D03*
%TD*%
D12*
%TO.C,R10*%
X115825000Y-121250000D03*
X114175000Y-121250000D03*
%TD*%
D18*
%TO.C,SW4*%
X144593583Y-125340000D03*
X140593083Y-125340000D03*
%TD*%
D25*
%TO.C,U1*%
X128800000Y-119400000D03*
X126500000Y-119400000D03*
X124200000Y-119400000D03*
D26*
X126500000Y-113100000D03*
%TD*%
D15*
%TO.C,R9*%
X109000000Y-120575000D03*
X109000000Y-118925000D03*
%TD*%
D18*
%TO.C,SW5*%
X158660250Y-125500000D03*
X154659750Y-125500000D03*
%TD*%
D27*
%TO.C,Y2*%
X97250000Y-123750000D03*
X99750000Y-123750000D03*
%TD*%
D28*
%TO.C,L1*%
X87750000Y-119737500D03*
X87750000Y-116762500D03*
%TD*%
D12*
%TO.C,R13*%
X157125000Y-121800000D03*
X155475000Y-121800000D03*
%TD*%
D29*
%TO.C,D10*%
X93500000Y-122500000D03*
X93500000Y-117500000D03*
%TD*%
D11*
%TO.C,L2*%
X115990000Y-122670000D03*
X113890000Y-122670000D03*
%TD*%
D30*
%TO.C,U3*%
X93600000Y-126550000D03*
X93600000Y-127500000D03*
X93600000Y-128450000D03*
X90900000Y-128450000D03*
X90900000Y-127500000D03*
X90900000Y-126550000D03*
%TD*%
D31*
%TO.C,R4*%
X96000000Y-128250000D03*
X96000000Y-126250000D03*
%TD*%
M02*
