M48
; DRILL file {KiCad 9.0.1} date 2025-06-18T01:04:31+0900
; FORMAT={-:-/ absolute / metric / decimal}
; #@! TF.CreationDate,2025-06-18T01:04:31+09:00
; #@! TF.GenerationSoftware,Kicad,Pcbnew,9.0.1
; #@! TF.FileFunction,Plated,1,2,PTH
FMAT,2
METRIC
; #@! TA.AperFunction,Plated,PTH,ViaDrill
T1C0.400
; #@! TA.AperFunction,Plated,PTH,ComponentDrill
T2C0.950
; #@! TA.AperFunction,Plated,PTH,ComponentDrill
T3C1.000
; #@! TA.AperFunction,Plated,PTH,ComponentDrill
T4C1.100
; #@! TA.AperFunction,Plated,PTH,ComponentDrill
T5C1.200
; #@! TA.AperFunction,Plated,PTH,ComponentDrill
T6C1.300
%
G90
G05
T1
X87.865Y-125.2
X93.415Y-124.9
X95.4Y-120.5
X95.6Y-117.0
X95.618Y-119.521
X98.6Y-114.1
X98.8Y-112.3
X103.4Y-123.3
X103.7Y-118.6
X107.7Y-118.4
X107.85Y-130.35
X108.873Y-113.9
X109.7Y-113.2
X110.7Y-115.355
X112.55Y-126.95
X113.05Y-119.55
X113.7Y-118.7
X114.044Y-126.5
X114.964Y-126.944
X115.2Y-117.9
X116.334Y-128.266
X116.4Y-114.0
X117.1Y-120.9
X117.389Y-112.67
X118.5Y-127.4
X118.65Y-129.53
X119.0Y-125.1
X119.6Y-130.2
X120.0Y-125.8
X121.15Y-122.25
X121.3Y-125.535
X121.5Y-123.8
X122.0Y-121.4
X122.611Y-122.428
X122.9Y-124.0
X125.4Y-118.0
X126.3Y-123.2
X126.5Y-117.4
X130.6Y-121.1
X131.5Y-114.9
X131.8Y-125.3
X133.3Y-121.4
X133.4Y-114.9
X139.8Y-123.3
X140.9Y-115.1
X141.4Y-116.6
X142.5Y-116.0
X144.5Y-114.438
X146.6Y-122.5
X149.6Y-126.8
X150.0Y-121.4
X153.0Y-121.9
X154.2Y-118.8
X158.9Y-128.7
T2
X108.0Y-109.6
X110.5Y-109.6
X113.0Y-109.6
X119.0Y-110.0
X121.5Y-110.0
X124.0Y-110.0
X126.5Y-110.0
X152.75Y-129.25
X155.25Y-129.25
X163.16Y-119.37
X163.16Y-121.87
X163.16Y-124.37
X163.16Y-126.87
T3
X88.17Y-111.52
X88.17Y-114.06
X90.71Y-111.52
X90.71Y-114.06
X93.25Y-111.52
X93.25Y-114.06
X111.61Y-128.95
X114.15Y-128.95
X146.34Y-115.08
X147.61Y-110.0
X148.88Y-115.08
X150.15Y-110.0
X151.42Y-115.08
X152.69Y-110.0
X153.96Y-115.08
X155.23Y-110.0
X156.5Y-115.08
X157.77Y-110.0
X159.04Y-115.08
X160.31Y-110.0
X161.58Y-115.08
X162.85Y-110.0
X164.12Y-115.08
T4
X132.59Y-110.0
X137.67Y-110.0
X142.75Y-110.0
T5
X124.31Y-128.95
X129.39Y-128.95
T6
X135.33Y-128.08
X140.33Y-128.08
X145.33Y-128.08
M30
