%TF.GenerationSoftware,KiCad,Pcbnew,9.0.1*%
%TF.CreationDate,2025-06-20T00:57:14+09:00*%
%TF.ProjectId,NanoV3.3,4e616e6f-5633-42e3-932e-6b696361645f,rev?*%
%TF.SameCoordinates,Original*%
%TF.FileFunction,Soldermask,Bot*%
%TF.FilePolarity,Negative*%
%FSLAX46Y46*%
G04 Gerber Fmt 4.6, Leading zero omitted, Abs format (unit mm)*
G04 Created by KiCad (PCBNEW 9.0.1) date 2025-06-20 00:57:14*
%MOMM*%
%LPD*%
G01*
G04 APERTURE LIST*
G04 Aperture macros list*
%AMRoundRect*
0 Rectangle with rounded corners*
0 $1 Rounding radius*
0 $2 $3 $4 $5 $6 $7 $8 $9 X,Y pos of 4 corners*
0 Add a 4 corners polygon primitive as box body*
4,1,4,$2,$3,$4,$5,$6,$7,$8,$9,$2,$3,0*
0 Add four circle primitives for the rounded corners*
1,1,$1+$1,$2,$3*
1,1,$1+$1,$4,$5*
1,1,$1+$1,$6,$7*
1,1,$1+$1,$8,$9*
0 Add four rect primitives between the rounded corners*
20,1,$1+$1,$2,$3,$4,$5,0*
20,1,$1+$1,$4,$5,$6,$7,0*
20,1,$1+$1,$6,$7,$8,$9,0*
20,1,$1+$1,$8,$9,$2,$3,0*%
G04 Aperture macros list end*
%ADD10RoundRect,0.140000X0.170000X-0.140000X0.170000X0.140000X-0.170000X0.140000X-0.170000X-0.140000X0*%
%ADD11R,1.400000X1.200000*%
%ADD12RoundRect,0.225000X0.375000X-0.225000X0.375000X0.225000X-0.375000X0.225000X-0.375000X-0.225000X0*%
%ADD13RoundRect,0.225000X0.225000X0.250000X-0.225000X0.250000X-0.225000X-0.250000X0.225000X-0.250000X0*%
%ADD14RoundRect,0.140000X-0.170000X0.140000X-0.170000X-0.140000X0.170000X-0.140000X0.170000X0.140000X0*%
%ADD15R,1.700000X1.700000*%
%ADD16C,1.700000*%
%ADD17R,2.000000X2.000000*%
%ADD18C,2.000000*%
%ADD19RoundRect,0.250000X0.600000X0.725000X-0.600000X0.725000X-0.600000X-0.725000X0.600000X-0.725000X0*%
%ADD20O,1.700000X1.950000*%
%ADD21RoundRect,0.250000X0.725000X-0.600000X0.725000X0.600000X-0.725000X0.600000X-0.725000X-0.600000X0*%
%ADD22O,1.950000X1.700000*%
%ADD23C,1.500000*%
%ADD24C,1.800000*%
%ADD25C,1.000000*%
%ADD26R,1.800000X1.800000*%
%ADD27O,1.800000X1.800000*%
%ADD28C,2.340000*%
%ADD29RoundRect,0.250000X-0.450000X0.350000X-0.450000X-0.350000X0.450000X-0.350000X0.450000X0.350000X0*%
%ADD30RoundRect,0.180000X0.420000X0.420000X-0.420000X0.420000X-0.420000X-0.420000X0.420000X-0.420000X0*%
%ADD31RoundRect,0.200000X0.200000X0.275000X-0.200000X0.275000X-0.200000X-0.275000X0.200000X-0.275000X0*%
%ADD32RoundRect,0.250000X-0.475000X0.337500X-0.475000X-0.337500X0.475000X-0.337500X0.475000X0.337500X0*%
%ADD33RoundRect,0.200000X0.275000X-0.200000X0.275000X0.200000X-0.275000X0.200000X-0.275000X-0.200000X0*%
%ADD34R,1.250000X0.600000*%
%ADD35R,1.750000X0.650000*%
%ADD36RoundRect,0.152400X0.355600X0.838200X-0.355600X0.838200X-0.355600X-0.838200X0.355600X-0.838200X0*%
%ADD37RoundRect,0.225000X-0.225000X-0.250000X0.225000X-0.250000X0.225000X0.250000X-0.225000X0.250000X0*%
%ADD38RoundRect,0.250000X0.457500X0.445000X-0.457500X0.445000X-0.457500X-0.445000X0.457500X-0.445000X0*%
%ADD39RoundRect,0.250000X-0.325000X-0.450000X0.325000X-0.450000X0.325000X0.450000X-0.325000X0.450000X0*%
%ADD40RoundRect,0.150000X0.150000X-0.825000X0.150000X0.825000X-0.150000X0.825000X-0.150000X-0.825000X0*%
%ADD41RoundRect,0.225000X-0.375000X0.225000X-0.375000X-0.225000X0.375000X-0.225000X0.375000X0.225000X0*%
%ADD42RoundRect,0.250000X0.350000X0.450000X-0.350000X0.450000X-0.350000X-0.450000X0.350000X-0.450000X0*%
%ADD43RoundRect,0.375000X0.375000X-0.625000X0.375000X0.625000X-0.375000X0.625000X-0.375000X-0.625000X0*%
%ADD44RoundRect,0.500000X1.400000X-0.500000X1.400000X0.500000X-1.400000X0.500000X-1.400000X-0.500000X0*%
%ADD45RoundRect,0.250001X1.074999X-0.462499X1.074999X0.462499X-1.074999X0.462499X-1.074999X-0.462499X0*%
%ADD46RoundRect,0.162500X0.617500X0.162500X-0.617500X0.162500X-0.617500X-0.162500X0.617500X-0.162500X0*%
%ADD47RoundRect,0.250000X0.450000X-0.350000X0.450000X0.350000X-0.450000X0.350000X-0.450000X-0.350000X0*%
G04 APERTURE END LIST*
D10*
%TO.C,C4*%
X101800000Y-124120000D03*
X101800000Y-125080000D03*
%TD*%
D11*
%TO.C,Y3*%
X100300000Y-124850000D03*
X98100000Y-124850000D03*
X98100000Y-123150000D03*
X100300000Y-123150000D03*
%TD*%
D12*
%TO.C,D10*%
X93500000Y-121650000D03*
X93500000Y-118350000D03*
%TD*%
D13*
%TO.C,C14*%
X104975000Y-124600000D03*
X103425000Y-124600000D03*
%TD*%
D14*
%TO.C,C13*%
X96500000Y-123220000D03*
X96500000Y-124180000D03*
%TD*%
D15*
%TO.C,J2*%
X88170000Y-114060000D03*
D16*
X88170000Y-111520000D03*
X90710000Y-114060000D03*
X90710000Y-111520000D03*
X93250000Y-114060000D03*
X93250000Y-111520000D03*
%TD*%
D17*
%TO.C,SW6*%
X142750000Y-110000000D03*
D18*
X137670000Y-110000000D03*
X132590000Y-110000000D03*
%TD*%
D19*
%TO.C,CN12*%
X113000000Y-109600000D03*
D20*
X110500000Y-109600000D03*
X108000000Y-109600000D03*
%TD*%
D19*
%TO.C,J8*%
X155250000Y-129250000D03*
D20*
X152750000Y-129250000D03*
%TD*%
D21*
%TO.C,J3*%
X163160000Y-126870000D03*
D22*
X163160000Y-124370000D03*
X163160000Y-121870000D03*
X163160000Y-119370000D03*
%TD*%
D23*
%TO.C,K6*%
X111610000Y-128950000D03*
X114150000Y-128950000D03*
D24*
X124310000Y-128950000D03*
X129390000Y-128950000D03*
%TD*%
D19*
%TO.C,J5*%
X126500000Y-110000000D03*
D20*
X124000000Y-110000000D03*
X121500000Y-110000000D03*
X119000000Y-110000000D03*
%TD*%
D25*
%TO.C,J1*%
X90715000Y-120070000D03*
X90715000Y-124470000D03*
%TD*%
D26*
%TO.C,U2*%
X146340000Y-115080000D03*
D27*
X147610000Y-110000000D03*
X148880000Y-115080000D03*
X150150000Y-110000000D03*
X151420000Y-115080000D03*
X152690000Y-110000000D03*
X153960000Y-115080000D03*
X155230000Y-110000000D03*
X156500000Y-115080000D03*
X157770000Y-110000000D03*
X159040000Y-115080000D03*
X160310000Y-110000000D03*
X161580000Y-115080000D03*
X162850000Y-110000000D03*
X164120000Y-115080000D03*
%TD*%
D28*
%TO.C,RV1*%
X135330000Y-128080000D03*
X140330000Y-128080000D03*
X145330000Y-128080000D03*
%TD*%
D29*
%TO.C,R3*%
X98300000Y-126800000D03*
X98300000Y-128800000D03*
%TD*%
D30*
%TO.C,L5*%
X157550000Y-123400000D03*
X155450000Y-123400000D03*
%TD*%
D31*
%TO.C,R12*%
X143325000Y-122100000D03*
X141675000Y-122100000D03*
%TD*%
D32*
%TO.C,C11*%
X89000000Y-121962500D03*
X89000000Y-124037500D03*
%TD*%
D30*
%TO.C,L4*%
X143550000Y-123500000D03*
X141450000Y-123500000D03*
%TD*%
D32*
%TO.C,C8*%
X102800000Y-126762500D03*
X102800000Y-128837500D03*
%TD*%
%TO.C,C10*%
X87000000Y-121962500D03*
X87000000Y-124037500D03*
%TD*%
D13*
%TO.C,C2*%
X133447500Y-118980000D03*
X131897500Y-118980000D03*
%TD*%
D33*
%TO.C,R2*%
X109000000Y-117325000D03*
X109000000Y-115675000D03*
%TD*%
D34*
%TO.C,Q9*%
X154250000Y-120160000D03*
X154250000Y-118250000D03*
X156350000Y-119205000D03*
%TD*%
D35*
%TO.C,U7*%
X142105000Y-120370000D03*
X142105000Y-117830000D03*
X148255000Y-117830000D03*
X148255000Y-120370000D03*
%TD*%
D36*
%TO.C,SW3*%
X130526917Y-125340000D03*
X126526417Y-125340000D03*
%TD*%
D37*
%TO.C,C5*%
X104900000Y-113525000D03*
X106450000Y-113525000D03*
%TD*%
D38*
%TO.C,C1*%
X134352500Y-116250000D03*
X131647500Y-116250000D03*
%TD*%
D31*
%TO.C,R11*%
X129400000Y-121500000D03*
X127750000Y-121500000D03*
%TD*%
D39*
%TO.C,D22*%
X137047500Y-116090000D03*
X139097500Y-116090000D03*
%TD*%
D32*
%TO.C,C9*%
X104800000Y-126762500D03*
X104800000Y-128837500D03*
%TD*%
D40*
%TO.C,U5*%
X106445000Y-120975000D03*
X105175000Y-120975000D03*
X103905000Y-120975000D03*
X102635000Y-120975000D03*
X101365000Y-120975000D03*
X100095000Y-120975000D03*
X98825000Y-120975000D03*
X97555000Y-120975000D03*
X97555000Y-116025000D03*
X98825000Y-116025000D03*
X100095000Y-116025000D03*
X101365000Y-116025000D03*
X102635000Y-116025000D03*
X103905000Y-116025000D03*
X105175000Y-116025000D03*
X106445000Y-116025000D03*
%TD*%
D29*
%TO.C,R36*%
X151120000Y-118120000D03*
X151120000Y-120120000D03*
%TD*%
D41*
%TO.C,D21*%
X159250000Y-117850000D03*
X159250000Y-121150000D03*
%TD*%
D42*
%TO.C,R35*%
X139000000Y-118750000D03*
X137000000Y-118750000D03*
%TD*%
D30*
%TO.C,L3*%
X129580000Y-123000000D03*
X127480000Y-123000000D03*
%TD*%
D32*
%TO.C,C12*%
X100550000Y-126862500D03*
X100550000Y-128937500D03*
%TD*%
D36*
%TO.C,SW2*%
X116460250Y-125340000D03*
X112459750Y-125340000D03*
%TD*%
D31*
%TO.C,R10*%
X115825000Y-121250000D03*
X114175000Y-121250000D03*
%TD*%
D36*
%TO.C,SW4*%
X144593583Y-125340000D03*
X140593083Y-125340000D03*
%TD*%
D43*
%TO.C,U1*%
X128800000Y-119400000D03*
X126500000Y-119400000D03*
X124200000Y-119400000D03*
D44*
X126500000Y-113100000D03*
%TD*%
D33*
%TO.C,R9*%
X109000000Y-120575000D03*
X109000000Y-118925000D03*
%TD*%
D36*
%TO.C,SW5*%
X158660250Y-125500000D03*
X154659750Y-125500000D03*
%TD*%
D45*
%TO.C,L1*%
X87750000Y-119737500D03*
X87750000Y-116762500D03*
%TD*%
D31*
%TO.C,R13*%
X157125000Y-121800000D03*
X155475000Y-121800000D03*
%TD*%
D30*
%TO.C,L2*%
X115990000Y-122670000D03*
X113890000Y-122670000D03*
%TD*%
D46*
%TO.C,U3*%
X93600000Y-126550000D03*
X93600000Y-127500000D03*
X93600000Y-128450000D03*
X90900000Y-128450000D03*
X90900000Y-127500000D03*
X90900000Y-126550000D03*
%TD*%
D47*
%TO.C,R4*%
X96000000Y-128600000D03*
X96000000Y-126600000D03*
%TD*%
M02*
