%TF.GenerationSoftware,KiCad,Pcbnew,9.0.1*%
%TF.CreationDate,2025-06-20T00:57:13+09:00*%
%TF.ProjectId,NanoV3.3,4e616e6f-5633-42e3-932e-6b696361645f,rev?*%
%TF.SameCoordinates,Original*%
%TF.FileFunction,Legend,Top*%
%TF.FilePolarity,Positive*%
%FSLAX46Y46*%
G04 Gerber Fmt 4.6, Leading zero omitted, Abs format (unit mm)*
G04 Created by KiCad (PCBNEW 9.0.1) date 2025-06-20 00:57:13*
%MOMM*%
%LPD*%
G01*
G04 APERTURE LIST*
%ADD10C,0.100000*%
%ADD11C,0.150000*%
%ADD12C,0.254000*%
%ADD13C,0.120000*%
%ADD14C,0.200000*%
G04 APERTURE END LIST*
D10*
X129116741Y-118607419D02*
X129069122Y-118583609D01*
X129069122Y-118583609D02*
X128997693Y-118583609D01*
X128997693Y-118583609D02*
X128926265Y-118607419D01*
X128926265Y-118607419D02*
X128878646Y-118655038D01*
X128878646Y-118655038D02*
X128854836Y-118702657D01*
X128854836Y-118702657D02*
X128831027Y-118797895D01*
X128831027Y-118797895D02*
X128831027Y-118869323D01*
X128831027Y-118869323D02*
X128854836Y-118964561D01*
X128854836Y-118964561D02*
X128878646Y-119012180D01*
X128878646Y-119012180D02*
X128926265Y-119059800D01*
X128926265Y-119059800D02*
X128997693Y-119083609D01*
X128997693Y-119083609D02*
X129045312Y-119083609D01*
X129045312Y-119083609D02*
X129116741Y-119059800D01*
X129116741Y-119059800D02*
X129140550Y-119035990D01*
X129140550Y-119035990D02*
X129140550Y-118869323D01*
X129140550Y-118869323D02*
X129045312Y-118869323D01*
X129354836Y-119083609D02*
X129354836Y-118583609D01*
X129354836Y-118583609D02*
X129640550Y-119083609D01*
X129640550Y-119083609D02*
X129640550Y-118583609D01*
X129878646Y-119083609D02*
X129878646Y-118583609D01*
X129878646Y-118583609D02*
X129997694Y-118583609D01*
X129997694Y-118583609D02*
X130069122Y-118607419D01*
X130069122Y-118607419D02*
X130116741Y-118655038D01*
X130116741Y-118655038D02*
X130140551Y-118702657D01*
X130140551Y-118702657D02*
X130164360Y-118797895D01*
X130164360Y-118797895D02*
X130164360Y-118869323D01*
X130164360Y-118869323D02*
X130140551Y-118964561D01*
X130140551Y-118964561D02*
X130116741Y-119012180D01*
X130116741Y-119012180D02*
X130069122Y-119059800D01*
X130069122Y-119059800D02*
X129997694Y-119083609D01*
X129997694Y-119083609D02*
X129878646Y-119083609D01*
X120661027Y-114109800D02*
X120732455Y-114133609D01*
X120732455Y-114133609D02*
X120851503Y-114133609D01*
X120851503Y-114133609D02*
X120899122Y-114109800D01*
X120899122Y-114109800D02*
X120922931Y-114085990D01*
X120922931Y-114085990D02*
X120946741Y-114038371D01*
X120946741Y-114038371D02*
X120946741Y-113990752D01*
X120946741Y-113990752D02*
X120922931Y-113943133D01*
X120922931Y-113943133D02*
X120899122Y-113919323D01*
X120899122Y-113919323D02*
X120851503Y-113895514D01*
X120851503Y-113895514D02*
X120756265Y-113871704D01*
X120756265Y-113871704D02*
X120708646Y-113847895D01*
X120708646Y-113847895D02*
X120684836Y-113824085D01*
X120684836Y-113824085D02*
X120661027Y-113776466D01*
X120661027Y-113776466D02*
X120661027Y-113728847D01*
X120661027Y-113728847D02*
X120684836Y-113681228D01*
X120684836Y-113681228D02*
X120708646Y-113657419D01*
X120708646Y-113657419D02*
X120756265Y-113633609D01*
X120756265Y-113633609D02*
X120875312Y-113633609D01*
X120875312Y-113633609D02*
X120946741Y-113657419D01*
X121446740Y-114085990D02*
X121422931Y-114109800D01*
X121422931Y-114109800D02*
X121351502Y-114133609D01*
X121351502Y-114133609D02*
X121303883Y-114133609D01*
X121303883Y-114133609D02*
X121232455Y-114109800D01*
X121232455Y-114109800D02*
X121184836Y-114062180D01*
X121184836Y-114062180D02*
X121161026Y-114014561D01*
X121161026Y-114014561D02*
X121137217Y-113919323D01*
X121137217Y-113919323D02*
X121137217Y-113847895D01*
X121137217Y-113847895D02*
X121161026Y-113752657D01*
X121161026Y-113752657D02*
X121184836Y-113705038D01*
X121184836Y-113705038D02*
X121232455Y-113657419D01*
X121232455Y-113657419D02*
X121303883Y-113633609D01*
X121303883Y-113633609D02*
X121351502Y-113633609D01*
X121351502Y-113633609D02*
X121422931Y-113657419D01*
X121422931Y-113657419D02*
X121446740Y-113681228D01*
X121899121Y-114133609D02*
X121661026Y-114133609D01*
X121661026Y-114133609D02*
X121661026Y-113633609D01*
X121913408Y-115120704D02*
X121875312Y-115158800D01*
X121875312Y-115158800D02*
X121761027Y-115196895D01*
X121761027Y-115196895D02*
X121684836Y-115196895D01*
X121684836Y-115196895D02*
X121570550Y-115158800D01*
X121570550Y-115158800D02*
X121494360Y-115082609D01*
X121494360Y-115082609D02*
X121456265Y-115006419D01*
X121456265Y-115006419D02*
X121418169Y-114854038D01*
X121418169Y-114854038D02*
X121418169Y-114739752D01*
X121418169Y-114739752D02*
X121456265Y-114587371D01*
X121456265Y-114587371D02*
X121494360Y-114511180D01*
X121494360Y-114511180D02*
X121570550Y-114434990D01*
X121570550Y-114434990D02*
X121684836Y-114396895D01*
X121684836Y-114396895D02*
X121761027Y-114396895D01*
X121761027Y-114396895D02*
X121875312Y-114434990D01*
X121875312Y-114434990D02*
X121913408Y-114473085D01*
X122370550Y-115196895D02*
X122294360Y-115158800D01*
X122294360Y-115158800D02*
X122256265Y-115120704D01*
X122256265Y-115120704D02*
X122218169Y-115044514D01*
X122218169Y-115044514D02*
X122218169Y-114815942D01*
X122218169Y-114815942D02*
X122256265Y-114739752D01*
X122256265Y-114739752D02*
X122294360Y-114701657D01*
X122294360Y-114701657D02*
X122370550Y-114663561D01*
X122370550Y-114663561D02*
X122484836Y-114663561D01*
X122484836Y-114663561D02*
X122561027Y-114701657D01*
X122561027Y-114701657D02*
X122599122Y-114739752D01*
X122599122Y-114739752D02*
X122637217Y-114815942D01*
X122637217Y-114815942D02*
X122637217Y-115044514D01*
X122637217Y-115044514D02*
X122599122Y-115120704D01*
X122599122Y-115120704D02*
X122561027Y-115158800D01*
X122561027Y-115158800D02*
X122484836Y-115196895D01*
X122484836Y-115196895D02*
X122370550Y-115196895D01*
X122980075Y-114663561D02*
X122980075Y-115463561D01*
X122980075Y-114701657D02*
X123056265Y-114663561D01*
X123056265Y-114663561D02*
X123208646Y-114663561D01*
X123208646Y-114663561D02*
X123284837Y-114701657D01*
X123284837Y-114701657D02*
X123322932Y-114739752D01*
X123322932Y-114739752D02*
X123361027Y-114815942D01*
X123361027Y-114815942D02*
X123361027Y-115044514D01*
X123361027Y-115044514D02*
X123322932Y-115120704D01*
X123322932Y-115120704D02*
X123284837Y-115158800D01*
X123284837Y-115158800D02*
X123208646Y-115196895D01*
X123208646Y-115196895D02*
X123056265Y-115196895D01*
X123056265Y-115196895D02*
X122980075Y-115158800D01*
X123627694Y-114663561D02*
X123818170Y-115196895D01*
X124008647Y-114663561D02*
X123818170Y-115196895D01*
X123818170Y-115196895D02*
X123741980Y-115387371D01*
X123741980Y-115387371D02*
X123703885Y-115425466D01*
X123703885Y-115425466D02*
X123627694Y-115463561D01*
X124313409Y-115196895D02*
X124313409Y-114663561D01*
X124313409Y-114815942D02*
X124351504Y-114739752D01*
X124351504Y-114739752D02*
X124389599Y-114701657D01*
X124389599Y-114701657D02*
X124465790Y-114663561D01*
X124465790Y-114663561D02*
X124541980Y-114663561D01*
X124808647Y-115196895D02*
X124808647Y-114663561D01*
X124808647Y-114396895D02*
X124770551Y-114434990D01*
X124770551Y-114434990D02*
X124808647Y-114473085D01*
X124808647Y-114473085D02*
X124846742Y-114434990D01*
X124846742Y-114434990D02*
X124808647Y-114396895D01*
X124808647Y-114396895D02*
X124808647Y-114473085D01*
X125532456Y-114663561D02*
X125532456Y-115311180D01*
X125532456Y-115311180D02*
X125494361Y-115387371D01*
X125494361Y-115387371D02*
X125456265Y-115425466D01*
X125456265Y-115425466D02*
X125380075Y-115463561D01*
X125380075Y-115463561D02*
X125265789Y-115463561D01*
X125265789Y-115463561D02*
X125189599Y-115425466D01*
X125532456Y-115158800D02*
X125456265Y-115196895D01*
X125456265Y-115196895D02*
X125303884Y-115196895D01*
X125303884Y-115196895D02*
X125227694Y-115158800D01*
X125227694Y-115158800D02*
X125189599Y-115120704D01*
X125189599Y-115120704D02*
X125151503Y-115044514D01*
X125151503Y-115044514D02*
X125151503Y-114815942D01*
X125151503Y-114815942D02*
X125189599Y-114739752D01*
X125189599Y-114739752D02*
X125227694Y-114701657D01*
X125227694Y-114701657D02*
X125303884Y-114663561D01*
X125303884Y-114663561D02*
X125456265Y-114663561D01*
X125456265Y-114663561D02*
X125532456Y-114701657D01*
X125913409Y-115196895D02*
X125913409Y-114396895D01*
X126256266Y-115196895D02*
X126256266Y-114777847D01*
X126256266Y-114777847D02*
X126218171Y-114701657D01*
X126218171Y-114701657D02*
X126141980Y-114663561D01*
X126141980Y-114663561D02*
X126027694Y-114663561D01*
X126027694Y-114663561D02*
X125951504Y-114701657D01*
X125951504Y-114701657D02*
X125913409Y-114739752D01*
X126522933Y-114663561D02*
X126827695Y-114663561D01*
X126637219Y-114396895D02*
X126637219Y-115082609D01*
X126637219Y-115082609D02*
X126675314Y-115158800D01*
X126675314Y-115158800D02*
X126751504Y-115196895D01*
X126751504Y-115196895D02*
X126827695Y-115196895D01*
X128199124Y-114815942D02*
X128161029Y-114777847D01*
X128161029Y-114777847D02*
X128084838Y-114739752D01*
X128084838Y-114739752D02*
X128008648Y-114739752D01*
X128008648Y-114739752D02*
X127932457Y-114777847D01*
X127932457Y-114777847D02*
X127894362Y-114815942D01*
X127894362Y-114815942D02*
X127856267Y-114892133D01*
X127856267Y-114892133D02*
X127856267Y-114968323D01*
X127856267Y-114968323D02*
X127894362Y-115044514D01*
X127894362Y-115044514D02*
X127932457Y-115082609D01*
X127932457Y-115082609D02*
X128008648Y-115120704D01*
X128008648Y-115120704D02*
X128084838Y-115120704D01*
X128084838Y-115120704D02*
X128161029Y-115082609D01*
X128161029Y-115082609D02*
X128199124Y-115044514D01*
X128199124Y-114739752D02*
X128199124Y-115044514D01*
X128199124Y-115044514D02*
X128237219Y-115082609D01*
X128237219Y-115082609D02*
X128275314Y-115082609D01*
X128275314Y-115082609D02*
X128351505Y-115044514D01*
X128351505Y-115044514D02*
X128389600Y-114968323D01*
X128389600Y-114968323D02*
X128389600Y-114777847D01*
X128389600Y-114777847D02*
X128313410Y-114663561D01*
X128313410Y-114663561D02*
X128199124Y-114587371D01*
X128199124Y-114587371D02*
X128046743Y-114549276D01*
X128046743Y-114549276D02*
X127894362Y-114587371D01*
X127894362Y-114587371D02*
X127780076Y-114663561D01*
X127780076Y-114663561D02*
X127703886Y-114777847D01*
X127703886Y-114777847D02*
X127665790Y-114930228D01*
X127665790Y-114930228D02*
X127703886Y-115082609D01*
X127703886Y-115082609D02*
X127780076Y-115196895D01*
X127780076Y-115196895D02*
X127894362Y-115273085D01*
X127894362Y-115273085D02*
X128046743Y-115311180D01*
X128046743Y-115311180D02*
X128199124Y-115273085D01*
X128199124Y-115273085D02*
X128313410Y-115196895D01*
X129341981Y-115196895D02*
X129341981Y-114396895D01*
X129722933Y-115196895D02*
X129722933Y-114663561D01*
X129722933Y-114739752D02*
X129761028Y-114701657D01*
X129761028Y-114701657D02*
X129837218Y-114663561D01*
X129837218Y-114663561D02*
X129951504Y-114663561D01*
X129951504Y-114663561D02*
X130027695Y-114701657D01*
X130027695Y-114701657D02*
X130065790Y-114777847D01*
X130065790Y-114777847D02*
X130065790Y-115196895D01*
X130065790Y-114777847D02*
X130103885Y-114701657D01*
X130103885Y-114701657D02*
X130180076Y-114663561D01*
X130180076Y-114663561D02*
X130294361Y-114663561D01*
X130294361Y-114663561D02*
X130370552Y-114701657D01*
X130370552Y-114701657D02*
X130408647Y-114777847D01*
X130408647Y-114777847D02*
X130408647Y-115196895D01*
X131094362Y-115158800D02*
X131018171Y-115196895D01*
X131018171Y-115196895D02*
X130865790Y-115196895D01*
X130865790Y-115196895D02*
X130789600Y-115158800D01*
X130789600Y-115158800D02*
X130751504Y-115082609D01*
X130751504Y-115082609D02*
X130751504Y-114777847D01*
X130751504Y-114777847D02*
X130789600Y-114701657D01*
X130789600Y-114701657D02*
X130865790Y-114663561D01*
X130865790Y-114663561D02*
X131018171Y-114663561D01*
X131018171Y-114663561D02*
X131094362Y-114701657D01*
X131094362Y-114701657D02*
X131132457Y-114777847D01*
X131132457Y-114777847D02*
X131132457Y-114854038D01*
X131132457Y-114854038D02*
X130751504Y-114930228D01*
X131818171Y-115196895D02*
X131818171Y-114396895D01*
X131818171Y-115158800D02*
X131741980Y-115196895D01*
X131741980Y-115196895D02*
X131589599Y-115196895D01*
X131589599Y-115196895D02*
X131513409Y-115158800D01*
X131513409Y-115158800D02*
X131475314Y-115120704D01*
X131475314Y-115120704D02*
X131437218Y-115044514D01*
X131437218Y-115044514D02*
X131437218Y-114815942D01*
X131437218Y-114815942D02*
X131475314Y-114739752D01*
X131475314Y-114739752D02*
X131513409Y-114701657D01*
X131513409Y-114701657D02*
X131589599Y-114663561D01*
X131589599Y-114663561D02*
X131741980Y-114663561D01*
X131741980Y-114663561D02*
X131818171Y-114701657D01*
X132199124Y-115196895D02*
X132199124Y-114663561D01*
X132199124Y-114396895D02*
X132161028Y-114434990D01*
X132161028Y-114434990D02*
X132199124Y-114473085D01*
X132199124Y-114473085D02*
X132237219Y-114434990D01*
X132237219Y-114434990D02*
X132199124Y-114396895D01*
X132199124Y-114396895D02*
X132199124Y-114473085D01*
X132465790Y-114663561D02*
X132770552Y-114663561D01*
X132580076Y-114396895D02*
X132580076Y-115082609D01*
X132580076Y-115082609D02*
X132618171Y-115158800D01*
X132618171Y-115158800D02*
X132694361Y-115196895D01*
X132694361Y-115196895D02*
X132770552Y-115196895D01*
X133341981Y-115158800D02*
X133265790Y-115196895D01*
X133265790Y-115196895D02*
X133113409Y-115196895D01*
X133113409Y-115196895D02*
X133037219Y-115158800D01*
X133037219Y-115158800D02*
X132999123Y-115082609D01*
X132999123Y-115082609D02*
X132999123Y-114777847D01*
X132999123Y-114777847D02*
X133037219Y-114701657D01*
X133037219Y-114701657D02*
X133113409Y-114663561D01*
X133113409Y-114663561D02*
X133265790Y-114663561D01*
X133265790Y-114663561D02*
X133341981Y-114701657D01*
X133341981Y-114701657D02*
X133380076Y-114777847D01*
X133380076Y-114777847D02*
X133380076Y-114854038D01*
X133380076Y-114854038D02*
X132999123Y-114930228D01*
X134065790Y-115158800D02*
X133989599Y-115196895D01*
X133989599Y-115196895D02*
X133837218Y-115196895D01*
X133837218Y-115196895D02*
X133761028Y-115158800D01*
X133761028Y-115158800D02*
X133722933Y-115120704D01*
X133722933Y-115120704D02*
X133684837Y-115044514D01*
X133684837Y-115044514D02*
X133684837Y-114815942D01*
X133684837Y-114815942D02*
X133722933Y-114739752D01*
X133722933Y-114739752D02*
X133761028Y-114701657D01*
X133761028Y-114701657D02*
X133837218Y-114663561D01*
X133837218Y-114663561D02*
X133989599Y-114663561D01*
X133989599Y-114663561D02*
X134065790Y-114701657D01*
X134408647Y-115196895D02*
X134408647Y-114396895D01*
X134751504Y-115196895D02*
X134751504Y-114777847D01*
X134751504Y-114777847D02*
X134713409Y-114701657D01*
X134713409Y-114701657D02*
X134637218Y-114663561D01*
X134637218Y-114663561D02*
X134522932Y-114663561D01*
X134522932Y-114663561D02*
X134446742Y-114701657D01*
X134446742Y-114701657D02*
X134408647Y-114739752D01*
X135703885Y-114473085D02*
X135741981Y-114434990D01*
X135741981Y-114434990D02*
X135818171Y-114396895D01*
X135818171Y-114396895D02*
X136008647Y-114396895D01*
X136008647Y-114396895D02*
X136084838Y-114434990D01*
X136084838Y-114434990D02*
X136122933Y-114473085D01*
X136122933Y-114473085D02*
X136161028Y-114549276D01*
X136161028Y-114549276D02*
X136161028Y-114625466D01*
X136161028Y-114625466D02*
X136122933Y-114739752D01*
X136122933Y-114739752D02*
X135665790Y-115196895D01*
X135665790Y-115196895D02*
X136161028Y-115196895D01*
X136656267Y-114396895D02*
X136732457Y-114396895D01*
X136732457Y-114396895D02*
X136808648Y-114434990D01*
X136808648Y-114434990D02*
X136846743Y-114473085D01*
X136846743Y-114473085D02*
X136884838Y-114549276D01*
X136884838Y-114549276D02*
X136922933Y-114701657D01*
X136922933Y-114701657D02*
X136922933Y-114892133D01*
X136922933Y-114892133D02*
X136884838Y-115044514D01*
X136884838Y-115044514D02*
X136846743Y-115120704D01*
X136846743Y-115120704D02*
X136808648Y-115158800D01*
X136808648Y-115158800D02*
X136732457Y-115196895D01*
X136732457Y-115196895D02*
X136656267Y-115196895D01*
X136656267Y-115196895D02*
X136580076Y-115158800D01*
X136580076Y-115158800D02*
X136541981Y-115120704D01*
X136541981Y-115120704D02*
X136503886Y-115044514D01*
X136503886Y-115044514D02*
X136465790Y-114892133D01*
X136465790Y-114892133D02*
X136465790Y-114701657D01*
X136465790Y-114701657D02*
X136503886Y-114549276D01*
X136503886Y-114549276D02*
X136541981Y-114473085D01*
X136541981Y-114473085D02*
X136580076Y-114434990D01*
X136580076Y-114434990D02*
X136656267Y-114396895D01*
X137227695Y-114473085D02*
X137265791Y-114434990D01*
X137265791Y-114434990D02*
X137341981Y-114396895D01*
X137341981Y-114396895D02*
X137532457Y-114396895D01*
X137532457Y-114396895D02*
X137608648Y-114434990D01*
X137608648Y-114434990D02*
X137646743Y-114473085D01*
X137646743Y-114473085D02*
X137684838Y-114549276D01*
X137684838Y-114549276D02*
X137684838Y-114625466D01*
X137684838Y-114625466D02*
X137646743Y-114739752D01*
X137646743Y-114739752D02*
X137189600Y-115196895D01*
X137189600Y-115196895D02*
X137684838Y-115196895D01*
X138408648Y-114396895D02*
X138027696Y-114396895D01*
X138027696Y-114396895D02*
X137989600Y-114777847D01*
X137989600Y-114777847D02*
X138027696Y-114739752D01*
X138027696Y-114739752D02*
X138103886Y-114701657D01*
X138103886Y-114701657D02*
X138294362Y-114701657D01*
X138294362Y-114701657D02*
X138370553Y-114739752D01*
X138370553Y-114739752D02*
X138408648Y-114777847D01*
X138408648Y-114777847D02*
X138446743Y-114854038D01*
X138446743Y-114854038D02*
X138446743Y-115044514D01*
X138446743Y-115044514D02*
X138408648Y-115120704D01*
X138408648Y-115120704D02*
X138370553Y-115158800D01*
X138370553Y-115158800D02*
X138294362Y-115196895D01*
X138294362Y-115196895D02*
X138103886Y-115196895D01*
X138103886Y-115196895D02*
X138027696Y-115158800D01*
X138027696Y-115158800D02*
X137989600Y-115120704D01*
X139322934Y-114663561D02*
X139513410Y-115196895D01*
X139513410Y-115196895D02*
X139703887Y-114663561D01*
X140427696Y-115196895D02*
X139970553Y-115196895D01*
X140199125Y-115196895D02*
X140199125Y-114396895D01*
X140199125Y-114396895D02*
X140122934Y-114511180D01*
X140122934Y-114511180D02*
X140046744Y-114587371D01*
X140046744Y-114587371D02*
X139970553Y-114625466D01*
X140770554Y-115120704D02*
X140808649Y-115158800D01*
X140808649Y-115158800D02*
X140770554Y-115196895D01*
X140770554Y-115196895D02*
X140732458Y-115158800D01*
X140732458Y-115158800D02*
X140770554Y-115120704D01*
X140770554Y-115120704D02*
X140770554Y-115196895D01*
X141303887Y-114396895D02*
X141380077Y-114396895D01*
X141380077Y-114396895D02*
X141456268Y-114434990D01*
X141456268Y-114434990D02*
X141494363Y-114473085D01*
X141494363Y-114473085D02*
X141532458Y-114549276D01*
X141532458Y-114549276D02*
X141570553Y-114701657D01*
X141570553Y-114701657D02*
X141570553Y-114892133D01*
X141570553Y-114892133D02*
X141532458Y-115044514D01*
X141532458Y-115044514D02*
X141494363Y-115120704D01*
X141494363Y-115120704D02*
X141456268Y-115158800D01*
X141456268Y-115158800D02*
X141380077Y-115196895D01*
X141380077Y-115196895D02*
X141303887Y-115196895D01*
X141303887Y-115196895D02*
X141227696Y-115158800D01*
X141227696Y-115158800D02*
X141189601Y-115120704D01*
X141189601Y-115120704D02*
X141151506Y-115044514D01*
X141151506Y-115044514D02*
X141113410Y-114892133D01*
X141113410Y-114892133D02*
X141113410Y-114701657D01*
X141113410Y-114701657D02*
X141151506Y-114549276D01*
X141151506Y-114549276D02*
X141189601Y-114473085D01*
X141189601Y-114473085D02*
X141227696Y-114434990D01*
X141227696Y-114434990D02*
X141303887Y-114396895D01*
X94654836Y-122653609D02*
X94654836Y-122153609D01*
X94654836Y-122153609D02*
X94773884Y-122153609D01*
X94773884Y-122153609D02*
X94845312Y-122177419D01*
X94845312Y-122177419D02*
X94892931Y-122225038D01*
X94892931Y-122225038D02*
X94916741Y-122272657D01*
X94916741Y-122272657D02*
X94940550Y-122367895D01*
X94940550Y-122367895D02*
X94940550Y-122439323D01*
X94940550Y-122439323D02*
X94916741Y-122534561D01*
X94916741Y-122534561D02*
X94892931Y-122582180D01*
X94892931Y-122582180D02*
X94845312Y-122629800D01*
X94845312Y-122629800D02*
X94773884Y-122653609D01*
X94773884Y-122653609D02*
X94654836Y-122653609D01*
X95154836Y-122463133D02*
X95535789Y-122463133D01*
D11*
X96946779Y-123988866D02*
X97708684Y-123988866D01*
X101596779Y-124098866D02*
X102358684Y-124098866D01*
X101977731Y-124479819D02*
X101977731Y-123717914D01*
X89330112Y-130026009D02*
X89472969Y-130073628D01*
X89472969Y-130073628D02*
X89520588Y-130121247D01*
X89520588Y-130121247D02*
X89568207Y-130216485D01*
X89568207Y-130216485D02*
X89568207Y-130359342D01*
X89568207Y-130359342D02*
X89520588Y-130454580D01*
X89520588Y-130454580D02*
X89472969Y-130502200D01*
X89472969Y-130502200D02*
X89377731Y-130549819D01*
X89377731Y-130549819D02*
X88996779Y-130549819D01*
X88996779Y-130549819D02*
X88996779Y-129549819D01*
X88996779Y-129549819D02*
X89330112Y-129549819D01*
X89330112Y-129549819D02*
X89425350Y-129597438D01*
X89425350Y-129597438D02*
X89472969Y-129645057D01*
X89472969Y-129645057D02*
X89520588Y-129740295D01*
X89520588Y-129740295D02*
X89520588Y-129835533D01*
X89520588Y-129835533D02*
X89472969Y-129930771D01*
X89472969Y-129930771D02*
X89425350Y-129978390D01*
X89425350Y-129978390D02*
X89330112Y-130026009D01*
X89330112Y-130026009D02*
X88996779Y-130026009D01*
X89949160Y-130264104D02*
X90425350Y-130264104D01*
X89853922Y-130549819D02*
X90187255Y-129549819D01*
X90187255Y-129549819D02*
X90520588Y-130549819D01*
X90711065Y-129549819D02*
X91282493Y-129549819D01*
X90996779Y-130549819D02*
X90996779Y-129549819D01*
X92282494Y-129549819D02*
X92901541Y-129549819D01*
X92901541Y-129549819D02*
X92568208Y-129930771D01*
X92568208Y-129930771D02*
X92711065Y-129930771D01*
X92711065Y-129930771D02*
X92806303Y-129978390D01*
X92806303Y-129978390D02*
X92853922Y-130026009D01*
X92853922Y-130026009D02*
X92901541Y-130121247D01*
X92901541Y-130121247D02*
X92901541Y-130359342D01*
X92901541Y-130359342D02*
X92853922Y-130454580D01*
X92853922Y-130454580D02*
X92806303Y-130502200D01*
X92806303Y-130502200D02*
X92711065Y-130549819D01*
X92711065Y-130549819D02*
X92425351Y-130549819D01*
X92425351Y-130549819D02*
X92330113Y-130502200D01*
X92330113Y-130502200D02*
X92282494Y-130454580D01*
X93330113Y-130454580D02*
X93377732Y-130502200D01*
X93377732Y-130502200D02*
X93330113Y-130549819D01*
X93330113Y-130549819D02*
X93282494Y-130502200D01*
X93282494Y-130502200D02*
X93330113Y-130454580D01*
X93330113Y-130454580D02*
X93330113Y-130549819D01*
X93711065Y-129549819D02*
X94377731Y-129549819D01*
X94377731Y-129549819D02*
X93949160Y-130549819D01*
X94615827Y-129549819D02*
X94949160Y-130549819D01*
X94949160Y-130549819D02*
X95282493Y-129549819D01*
D10*
X94664836Y-123633609D02*
X94664836Y-123133609D01*
X94664836Y-123133609D02*
X94783884Y-123133609D01*
X94783884Y-123133609D02*
X94855312Y-123157419D01*
X94855312Y-123157419D02*
X94902931Y-123205038D01*
X94902931Y-123205038D02*
X94926741Y-123252657D01*
X94926741Y-123252657D02*
X94950550Y-123347895D01*
X94950550Y-123347895D02*
X94950550Y-123419323D01*
X94950550Y-123419323D02*
X94926741Y-123514561D01*
X94926741Y-123514561D02*
X94902931Y-123562180D01*
X94902931Y-123562180D02*
X94855312Y-123609800D01*
X94855312Y-123609800D02*
X94783884Y-123633609D01*
X94783884Y-123633609D02*
X94664836Y-123633609D01*
X95164836Y-123443133D02*
X95545789Y-123443133D01*
X95355312Y-123633609D02*
X95355312Y-123252657D01*
X118461027Y-114309800D02*
X118532455Y-114333609D01*
X118532455Y-114333609D02*
X118651503Y-114333609D01*
X118651503Y-114333609D02*
X118699122Y-114309800D01*
X118699122Y-114309800D02*
X118722931Y-114285990D01*
X118722931Y-114285990D02*
X118746741Y-114238371D01*
X118746741Y-114238371D02*
X118746741Y-114190752D01*
X118746741Y-114190752D02*
X118722931Y-114143133D01*
X118722931Y-114143133D02*
X118699122Y-114119323D01*
X118699122Y-114119323D02*
X118651503Y-114095514D01*
X118651503Y-114095514D02*
X118556265Y-114071704D01*
X118556265Y-114071704D02*
X118508646Y-114047895D01*
X118508646Y-114047895D02*
X118484836Y-114024085D01*
X118484836Y-114024085D02*
X118461027Y-113976466D01*
X118461027Y-113976466D02*
X118461027Y-113928847D01*
X118461027Y-113928847D02*
X118484836Y-113881228D01*
X118484836Y-113881228D02*
X118508646Y-113857419D01*
X118508646Y-113857419D02*
X118556265Y-113833609D01*
X118556265Y-113833609D02*
X118675312Y-113833609D01*
X118675312Y-113833609D02*
X118746741Y-113857419D01*
X118961026Y-114333609D02*
X118961026Y-113833609D01*
X118961026Y-113833609D02*
X119080074Y-113833609D01*
X119080074Y-113833609D02*
X119151502Y-113857419D01*
X119151502Y-113857419D02*
X119199121Y-113905038D01*
X119199121Y-113905038D02*
X119222931Y-113952657D01*
X119222931Y-113952657D02*
X119246740Y-114047895D01*
X119246740Y-114047895D02*
X119246740Y-114119323D01*
X119246740Y-114119323D02*
X119222931Y-114214561D01*
X119222931Y-114214561D02*
X119199121Y-114262180D01*
X119199121Y-114262180D02*
X119151502Y-114309800D01*
X119151502Y-114309800D02*
X119080074Y-114333609D01*
X119080074Y-114333609D02*
X118961026Y-114333609D01*
X119437217Y-114190752D02*
X119675312Y-114190752D01*
X119389598Y-114333609D02*
X119556264Y-113833609D01*
X119556264Y-113833609D02*
X119722931Y-114333609D01*
X127172931Y-118573609D02*
X126934836Y-118573609D01*
X126934836Y-118573609D02*
X126911027Y-118811704D01*
X126911027Y-118811704D02*
X126934836Y-118787895D01*
X126934836Y-118787895D02*
X126982455Y-118764085D01*
X126982455Y-118764085D02*
X127101503Y-118764085D01*
X127101503Y-118764085D02*
X127149122Y-118787895D01*
X127149122Y-118787895D02*
X127172931Y-118811704D01*
X127172931Y-118811704D02*
X127196741Y-118859323D01*
X127196741Y-118859323D02*
X127196741Y-118978371D01*
X127196741Y-118978371D02*
X127172931Y-119025990D01*
X127172931Y-119025990D02*
X127149122Y-119049800D01*
X127149122Y-119049800D02*
X127101503Y-119073609D01*
X127101503Y-119073609D02*
X126982455Y-119073609D01*
X126982455Y-119073609D02*
X126934836Y-119049800D01*
X126934836Y-119049800D02*
X126911027Y-119025990D01*
X127339598Y-118573609D02*
X127506264Y-119073609D01*
X127506264Y-119073609D02*
X127672931Y-118573609D01*
D11*
X104528628Y-124776190D02*
X105004819Y-124776190D01*
X104004819Y-125109523D02*
X104528628Y-124776190D01*
X104528628Y-124776190D02*
X104004819Y-124442857D01*
X104338152Y-123680952D02*
X105004819Y-123680952D01*
X103957200Y-123919047D02*
X104671485Y-124157142D01*
X104671485Y-124157142D02*
X104671485Y-123538095D01*
X105661905Y-120954819D02*
X105661905Y-119954819D01*
X105661905Y-119954819D02*
X105900000Y-119954819D01*
X105900000Y-119954819D02*
X106042857Y-120002438D01*
X106042857Y-120002438D02*
X106138095Y-120097676D01*
X106138095Y-120097676D02*
X106185714Y-120192914D01*
X106185714Y-120192914D02*
X106233333Y-120383390D01*
X106233333Y-120383390D02*
X106233333Y-120526247D01*
X106233333Y-120526247D02*
X106185714Y-120716723D01*
X106185714Y-120716723D02*
X106138095Y-120811961D01*
X106138095Y-120811961D02*
X106042857Y-120907200D01*
X106042857Y-120907200D02*
X105900000Y-120954819D01*
X105900000Y-120954819D02*
X105661905Y-120954819D01*
X107090476Y-119954819D02*
X106900000Y-119954819D01*
X106900000Y-119954819D02*
X106804762Y-120002438D01*
X106804762Y-120002438D02*
X106757143Y-120050057D01*
X106757143Y-120050057D02*
X106661905Y-120192914D01*
X106661905Y-120192914D02*
X106614286Y-120383390D01*
X106614286Y-120383390D02*
X106614286Y-120764342D01*
X106614286Y-120764342D02*
X106661905Y-120859580D01*
X106661905Y-120859580D02*
X106709524Y-120907200D01*
X106709524Y-120907200D02*
X106804762Y-120954819D01*
X106804762Y-120954819D02*
X106995238Y-120954819D01*
X106995238Y-120954819D02*
X107090476Y-120907200D01*
X107090476Y-120907200D02*
X107138095Y-120859580D01*
X107138095Y-120859580D02*
X107185714Y-120764342D01*
X107185714Y-120764342D02*
X107185714Y-120526247D01*
X107185714Y-120526247D02*
X107138095Y-120431009D01*
X107138095Y-120431009D02*
X107090476Y-120383390D01*
X107090476Y-120383390D02*
X106995238Y-120335771D01*
X106995238Y-120335771D02*
X106804762Y-120335771D01*
X106804762Y-120335771D02*
X106709524Y-120383390D01*
X106709524Y-120383390D02*
X106661905Y-120431009D01*
X106661905Y-120431009D02*
X106614286Y-120526247D01*
X129361905Y-126054819D02*
X129361905Y-125054819D01*
X129361905Y-125054819D02*
X129600000Y-125054819D01*
X129600000Y-125054819D02*
X129742857Y-125102438D01*
X129742857Y-125102438D02*
X129838095Y-125197676D01*
X129838095Y-125197676D02*
X129885714Y-125292914D01*
X129885714Y-125292914D02*
X129933333Y-125483390D01*
X129933333Y-125483390D02*
X129933333Y-125626247D01*
X129933333Y-125626247D02*
X129885714Y-125816723D01*
X129885714Y-125816723D02*
X129838095Y-125911961D01*
X129838095Y-125911961D02*
X129742857Y-126007200D01*
X129742857Y-126007200D02*
X129600000Y-126054819D01*
X129600000Y-126054819D02*
X129361905Y-126054819D01*
X130314286Y-125150057D02*
X130361905Y-125102438D01*
X130361905Y-125102438D02*
X130457143Y-125054819D01*
X130457143Y-125054819D02*
X130695238Y-125054819D01*
X130695238Y-125054819D02*
X130790476Y-125102438D01*
X130790476Y-125102438D02*
X130838095Y-125150057D01*
X130838095Y-125150057D02*
X130885714Y-125245295D01*
X130885714Y-125245295D02*
X130885714Y-125340533D01*
X130885714Y-125340533D02*
X130838095Y-125483390D01*
X130838095Y-125483390D02*
X130266667Y-126054819D01*
X130266667Y-126054819D02*
X130885714Y-126054819D01*
X106157142Y-119754819D02*
X105823809Y-119278628D01*
X105585714Y-119754819D02*
X105585714Y-118754819D01*
X105585714Y-118754819D02*
X105966666Y-118754819D01*
X105966666Y-118754819D02*
X106061904Y-118802438D01*
X106061904Y-118802438D02*
X106109523Y-118850057D01*
X106109523Y-118850057D02*
X106157142Y-118945295D01*
X106157142Y-118945295D02*
X106157142Y-119088152D01*
X106157142Y-119088152D02*
X106109523Y-119183390D01*
X106109523Y-119183390D02*
X106061904Y-119231009D01*
X106061904Y-119231009D02*
X105966666Y-119278628D01*
X105966666Y-119278628D02*
X105585714Y-119278628D01*
X107109523Y-119754819D02*
X106538095Y-119754819D01*
X106823809Y-119754819D02*
X106823809Y-118754819D01*
X106823809Y-118754819D02*
X106728571Y-118897676D01*
X106728571Y-118897676D02*
X106633333Y-118992914D01*
X106633333Y-118992914D02*
X106538095Y-119040533D01*
X108014285Y-118754819D02*
X107538095Y-118754819D01*
X107538095Y-118754819D02*
X107490476Y-119231009D01*
X107490476Y-119231009D02*
X107538095Y-119183390D01*
X107538095Y-119183390D02*
X107633333Y-119135771D01*
X107633333Y-119135771D02*
X107871428Y-119135771D01*
X107871428Y-119135771D02*
X107966666Y-119183390D01*
X107966666Y-119183390D02*
X108014285Y-119231009D01*
X108014285Y-119231009D02*
X108061904Y-119326247D01*
X108061904Y-119326247D02*
X108061904Y-119564342D01*
X108061904Y-119564342D02*
X108014285Y-119659580D01*
X108014285Y-119659580D02*
X107966666Y-119707200D01*
X107966666Y-119707200D02*
X107871428Y-119754819D01*
X107871428Y-119754819D02*
X107633333Y-119754819D01*
X107633333Y-119754819D02*
X107538095Y-119707200D01*
X107538095Y-119707200D02*
X107490476Y-119659580D01*
X88766666Y-108599819D02*
X88766666Y-109314104D01*
X88766666Y-109314104D02*
X88719047Y-109456961D01*
X88719047Y-109456961D02*
X88623809Y-109552200D01*
X88623809Y-109552200D02*
X88480952Y-109599819D01*
X88480952Y-109599819D02*
X88385714Y-109599819D01*
X89195238Y-108695057D02*
X89242857Y-108647438D01*
X89242857Y-108647438D02*
X89338095Y-108599819D01*
X89338095Y-108599819D02*
X89576190Y-108599819D01*
X89576190Y-108599819D02*
X89671428Y-108647438D01*
X89671428Y-108647438D02*
X89719047Y-108695057D01*
X89719047Y-108695057D02*
X89766666Y-108790295D01*
X89766666Y-108790295D02*
X89766666Y-108885533D01*
X89766666Y-108885533D02*
X89719047Y-109028390D01*
X89719047Y-109028390D02*
X89147619Y-109599819D01*
X89147619Y-109599819D02*
X89766666Y-109599819D01*
X141466667Y-113807200D02*
X141609524Y-113854819D01*
X141609524Y-113854819D02*
X141847619Y-113854819D01*
X141847619Y-113854819D02*
X141942857Y-113807200D01*
X141942857Y-113807200D02*
X141990476Y-113759580D01*
X141990476Y-113759580D02*
X142038095Y-113664342D01*
X142038095Y-113664342D02*
X142038095Y-113569104D01*
X142038095Y-113569104D02*
X141990476Y-113473866D01*
X141990476Y-113473866D02*
X141942857Y-113426247D01*
X141942857Y-113426247D02*
X141847619Y-113378628D01*
X141847619Y-113378628D02*
X141657143Y-113331009D01*
X141657143Y-113331009D02*
X141561905Y-113283390D01*
X141561905Y-113283390D02*
X141514286Y-113235771D01*
X141514286Y-113235771D02*
X141466667Y-113140533D01*
X141466667Y-113140533D02*
X141466667Y-113045295D01*
X141466667Y-113045295D02*
X141514286Y-112950057D01*
X141514286Y-112950057D02*
X141561905Y-112902438D01*
X141561905Y-112902438D02*
X141657143Y-112854819D01*
X141657143Y-112854819D02*
X141895238Y-112854819D01*
X141895238Y-112854819D02*
X142038095Y-112902438D01*
X142371429Y-112854819D02*
X142609524Y-113854819D01*
X142609524Y-113854819D02*
X142800000Y-113140533D01*
X142800000Y-113140533D02*
X142990476Y-113854819D01*
X142990476Y-113854819D02*
X143228572Y-112854819D01*
X144038095Y-112854819D02*
X143847619Y-112854819D01*
X143847619Y-112854819D02*
X143752381Y-112902438D01*
X143752381Y-112902438D02*
X143704762Y-112950057D01*
X143704762Y-112950057D02*
X143609524Y-113092914D01*
X143609524Y-113092914D02*
X143561905Y-113283390D01*
X143561905Y-113283390D02*
X143561905Y-113664342D01*
X143561905Y-113664342D02*
X143609524Y-113759580D01*
X143609524Y-113759580D02*
X143657143Y-113807200D01*
X143657143Y-113807200D02*
X143752381Y-113854819D01*
X143752381Y-113854819D02*
X143942857Y-113854819D01*
X143942857Y-113854819D02*
X144038095Y-113807200D01*
X144038095Y-113807200D02*
X144085714Y-113759580D01*
X144085714Y-113759580D02*
X144133333Y-113664342D01*
X144133333Y-113664342D02*
X144133333Y-113426247D01*
X144133333Y-113426247D02*
X144085714Y-113331009D01*
X144085714Y-113331009D02*
X144038095Y-113283390D01*
X144038095Y-113283390D02*
X143942857Y-113235771D01*
X143942857Y-113235771D02*
X143752381Y-113235771D01*
X143752381Y-113235771D02*
X143657143Y-113283390D01*
X143657143Y-113283390D02*
X143609524Y-113331009D01*
X143609524Y-113331009D02*
X143561905Y-113426247D01*
X142919523Y-112339580D02*
X142871904Y-112387200D01*
X142871904Y-112387200D02*
X142729047Y-112434819D01*
X142729047Y-112434819D02*
X142633809Y-112434819D01*
X142633809Y-112434819D02*
X142490952Y-112387200D01*
X142490952Y-112387200D02*
X142395714Y-112291961D01*
X142395714Y-112291961D02*
X142348095Y-112196723D01*
X142348095Y-112196723D02*
X142300476Y-112006247D01*
X142300476Y-112006247D02*
X142300476Y-111863390D01*
X142300476Y-111863390D02*
X142348095Y-111672914D01*
X142348095Y-111672914D02*
X142395714Y-111577676D01*
X142395714Y-111577676D02*
X142490952Y-111482438D01*
X142490952Y-111482438D02*
X142633809Y-111434819D01*
X142633809Y-111434819D02*
X142729047Y-111434819D01*
X142729047Y-111434819D02*
X142871904Y-111482438D01*
X142871904Y-111482438D02*
X142919523Y-111530057D01*
X131994286Y-112504819D02*
X131994286Y-111504819D01*
X131994286Y-111504819D02*
X132565714Y-112504819D01*
X132565714Y-112504819D02*
X132565714Y-111504819D01*
X133613333Y-112409580D02*
X133565714Y-112457200D01*
X133565714Y-112457200D02*
X133422857Y-112504819D01*
X133422857Y-112504819D02*
X133327619Y-112504819D01*
X133327619Y-112504819D02*
X133184762Y-112457200D01*
X133184762Y-112457200D02*
X133089524Y-112361961D01*
X133089524Y-112361961D02*
X133041905Y-112266723D01*
X133041905Y-112266723D02*
X132994286Y-112076247D01*
X132994286Y-112076247D02*
X132994286Y-111933390D01*
X132994286Y-111933390D02*
X133041905Y-111742914D01*
X133041905Y-111742914D02*
X133089524Y-111647676D01*
X133089524Y-111647676D02*
X133184762Y-111552438D01*
X133184762Y-111552438D02*
X133327619Y-111504819D01*
X133327619Y-111504819D02*
X133422857Y-111504819D01*
X133422857Y-111504819D02*
X133565714Y-111552438D01*
X133565714Y-111552438D02*
X133613333Y-111600057D01*
X136800476Y-112404819D02*
X136800476Y-111404819D01*
X136800476Y-111404819D02*
X137371904Y-112404819D01*
X137371904Y-112404819D02*
X137371904Y-111404819D01*
X138038571Y-111404819D02*
X138229047Y-111404819D01*
X138229047Y-111404819D02*
X138324285Y-111452438D01*
X138324285Y-111452438D02*
X138419523Y-111547676D01*
X138419523Y-111547676D02*
X138467142Y-111738152D01*
X138467142Y-111738152D02*
X138467142Y-112071485D01*
X138467142Y-112071485D02*
X138419523Y-112261961D01*
X138419523Y-112261961D02*
X138324285Y-112357200D01*
X138324285Y-112357200D02*
X138229047Y-112404819D01*
X138229047Y-112404819D02*
X138038571Y-112404819D01*
X138038571Y-112404819D02*
X137943333Y-112357200D01*
X137943333Y-112357200D02*
X137848095Y-112261961D01*
X137848095Y-112261961D02*
X137800476Y-112071485D01*
X137800476Y-112071485D02*
X137800476Y-111738152D01*
X137800476Y-111738152D02*
X137848095Y-111547676D01*
X137848095Y-111547676D02*
X137943333Y-111452438D01*
X137943333Y-111452438D02*
X138038571Y-111404819D01*
X126057142Y-124124819D02*
X125723809Y-123648628D01*
X125485714Y-124124819D02*
X125485714Y-123124819D01*
X125485714Y-123124819D02*
X125866666Y-123124819D01*
X125866666Y-123124819D02*
X125961904Y-123172438D01*
X125961904Y-123172438D02*
X126009523Y-123220057D01*
X126009523Y-123220057D02*
X126057142Y-123315295D01*
X126057142Y-123315295D02*
X126057142Y-123458152D01*
X126057142Y-123458152D02*
X126009523Y-123553390D01*
X126009523Y-123553390D02*
X125961904Y-123601009D01*
X125961904Y-123601009D02*
X125866666Y-123648628D01*
X125866666Y-123648628D02*
X125485714Y-123648628D01*
X127009523Y-124124819D02*
X126438095Y-124124819D01*
X126723809Y-124124819D02*
X126723809Y-123124819D01*
X126723809Y-123124819D02*
X126628571Y-123267676D01*
X126628571Y-123267676D02*
X126533333Y-123362914D01*
X126533333Y-123362914D02*
X126438095Y-123410533D01*
X127866666Y-123124819D02*
X127676190Y-123124819D01*
X127676190Y-123124819D02*
X127580952Y-123172438D01*
X127580952Y-123172438D02*
X127533333Y-123220057D01*
X127533333Y-123220057D02*
X127438095Y-123362914D01*
X127438095Y-123362914D02*
X127390476Y-123553390D01*
X127390476Y-123553390D02*
X127390476Y-123934342D01*
X127390476Y-123934342D02*
X127438095Y-124029580D01*
X127438095Y-124029580D02*
X127485714Y-124077200D01*
X127485714Y-124077200D02*
X127580952Y-124124819D01*
X127580952Y-124124819D02*
X127771428Y-124124819D01*
X127771428Y-124124819D02*
X127866666Y-124077200D01*
X127866666Y-124077200D02*
X127914285Y-124029580D01*
X127914285Y-124029580D02*
X127961904Y-123934342D01*
X127961904Y-123934342D02*
X127961904Y-123696247D01*
X127961904Y-123696247D02*
X127914285Y-123601009D01*
X127914285Y-123601009D02*
X127866666Y-123553390D01*
X127866666Y-123553390D02*
X127771428Y-123505771D01*
X127771428Y-123505771D02*
X127580952Y-123505771D01*
X127580952Y-123505771D02*
X127485714Y-123553390D01*
X127485714Y-123553390D02*
X127438095Y-123601009D01*
X127438095Y-123601009D02*
X127390476Y-123696247D01*
X144485714Y-126154819D02*
X144485714Y-125154819D01*
X144485714Y-125154819D02*
X144723809Y-125154819D01*
X144723809Y-125154819D02*
X144866666Y-125202438D01*
X144866666Y-125202438D02*
X144961904Y-125297676D01*
X144961904Y-125297676D02*
X145009523Y-125392914D01*
X145009523Y-125392914D02*
X145057142Y-125583390D01*
X145057142Y-125583390D02*
X145057142Y-125726247D01*
X145057142Y-125726247D02*
X145009523Y-125916723D01*
X145009523Y-125916723D02*
X144961904Y-126011961D01*
X144961904Y-126011961D02*
X144866666Y-126107200D01*
X144866666Y-126107200D02*
X144723809Y-126154819D01*
X144723809Y-126154819D02*
X144485714Y-126154819D01*
X146009523Y-126154819D02*
X145438095Y-126154819D01*
X145723809Y-126154819D02*
X145723809Y-125154819D01*
X145723809Y-125154819D02*
X145628571Y-125297676D01*
X145628571Y-125297676D02*
X145533333Y-125392914D01*
X145533333Y-125392914D02*
X145438095Y-125440533D01*
X146390476Y-125250057D02*
X146438095Y-125202438D01*
X146438095Y-125202438D02*
X146533333Y-125154819D01*
X146533333Y-125154819D02*
X146771428Y-125154819D01*
X146771428Y-125154819D02*
X146866666Y-125202438D01*
X146866666Y-125202438D02*
X146914285Y-125250057D01*
X146914285Y-125250057D02*
X146961904Y-125345295D01*
X146961904Y-125345295D02*
X146961904Y-125440533D01*
X146961904Y-125440533D02*
X146914285Y-125583390D01*
X146914285Y-125583390D02*
X146342857Y-126154819D01*
X146342857Y-126154819D02*
X146961904Y-126154819D01*
X103866666Y-129554819D02*
X103866666Y-130269104D01*
X103866666Y-130269104D02*
X103819047Y-130411961D01*
X103819047Y-130411961D02*
X103723809Y-130507200D01*
X103723809Y-130507200D02*
X103580952Y-130554819D01*
X103580952Y-130554819D02*
X103485714Y-130554819D01*
X104771428Y-129554819D02*
X104580952Y-129554819D01*
X104580952Y-129554819D02*
X104485714Y-129602438D01*
X104485714Y-129602438D02*
X104438095Y-129650057D01*
X104438095Y-129650057D02*
X104342857Y-129792914D01*
X104342857Y-129792914D02*
X104295238Y-129983390D01*
X104295238Y-129983390D02*
X104295238Y-130364342D01*
X104295238Y-130364342D02*
X104342857Y-130459580D01*
X104342857Y-130459580D02*
X104390476Y-130507200D01*
X104390476Y-130507200D02*
X104485714Y-130554819D01*
X104485714Y-130554819D02*
X104676190Y-130554819D01*
X104676190Y-130554819D02*
X104771428Y-130507200D01*
X104771428Y-130507200D02*
X104819047Y-130459580D01*
X104819047Y-130459580D02*
X104866666Y-130364342D01*
X104866666Y-130364342D02*
X104866666Y-130126247D01*
X104866666Y-130126247D02*
X104819047Y-130031009D01*
X104819047Y-130031009D02*
X104771428Y-129983390D01*
X104771428Y-129983390D02*
X104676190Y-129935771D01*
X104676190Y-129935771D02*
X104485714Y-129935771D01*
X104485714Y-129935771D02*
X104390476Y-129983390D01*
X104390476Y-129983390D02*
X104342857Y-130031009D01*
X104342857Y-130031009D02*
X104295238Y-130126247D01*
X106233333Y-113509580D02*
X106185714Y-113557200D01*
X106185714Y-113557200D02*
X106042857Y-113604819D01*
X106042857Y-113604819D02*
X105947619Y-113604819D01*
X105947619Y-113604819D02*
X105804762Y-113557200D01*
X105804762Y-113557200D02*
X105709524Y-113461961D01*
X105709524Y-113461961D02*
X105661905Y-113366723D01*
X105661905Y-113366723D02*
X105614286Y-113176247D01*
X105614286Y-113176247D02*
X105614286Y-113033390D01*
X105614286Y-113033390D02*
X105661905Y-112842914D01*
X105661905Y-112842914D02*
X105709524Y-112747676D01*
X105709524Y-112747676D02*
X105804762Y-112652438D01*
X105804762Y-112652438D02*
X105947619Y-112604819D01*
X105947619Y-112604819D02*
X106042857Y-112604819D01*
X106042857Y-112604819D02*
X106185714Y-112652438D01*
X106185714Y-112652438D02*
X106233333Y-112700057D01*
X106661905Y-113604819D02*
X106661905Y-112604819D01*
X106661905Y-112604819D02*
X107233333Y-113604819D01*
X107233333Y-113604819D02*
X107233333Y-112604819D01*
X108233333Y-113604819D02*
X107661905Y-113604819D01*
X107947619Y-113604819D02*
X107947619Y-112604819D01*
X107947619Y-112604819D02*
X107852381Y-112747676D01*
X107852381Y-112747676D02*
X107757143Y-112842914D01*
X107757143Y-112842914D02*
X107661905Y-112890533D01*
X108614286Y-112700057D02*
X108661905Y-112652438D01*
X108661905Y-112652438D02*
X108757143Y-112604819D01*
X108757143Y-112604819D02*
X108995238Y-112604819D01*
X108995238Y-112604819D02*
X109090476Y-112652438D01*
X109090476Y-112652438D02*
X109138095Y-112700057D01*
X109138095Y-112700057D02*
X109185714Y-112795295D01*
X109185714Y-112795295D02*
X109185714Y-112890533D01*
X109185714Y-112890533D02*
X109138095Y-113033390D01*
X109138095Y-113033390D02*
X108566667Y-113604819D01*
X108566667Y-113604819D02*
X109185714Y-113604819D01*
X142061905Y-116554819D02*
X142061905Y-115554819D01*
X142061905Y-115554819D02*
X142300000Y-115554819D01*
X142300000Y-115554819D02*
X142442857Y-115602438D01*
X142442857Y-115602438D02*
X142538095Y-115697676D01*
X142538095Y-115697676D02*
X142585714Y-115792914D01*
X142585714Y-115792914D02*
X142633333Y-115983390D01*
X142633333Y-115983390D02*
X142633333Y-116126247D01*
X142633333Y-116126247D02*
X142585714Y-116316723D01*
X142585714Y-116316723D02*
X142538095Y-116411961D01*
X142538095Y-116411961D02*
X142442857Y-116507200D01*
X142442857Y-116507200D02*
X142300000Y-116554819D01*
X142300000Y-116554819D02*
X142061905Y-116554819D01*
X142966667Y-115554819D02*
X143585714Y-115554819D01*
X143585714Y-115554819D02*
X143252381Y-115935771D01*
X143252381Y-115935771D02*
X143395238Y-115935771D01*
X143395238Y-115935771D02*
X143490476Y-115983390D01*
X143490476Y-115983390D02*
X143538095Y-116031009D01*
X143538095Y-116031009D02*
X143585714Y-116126247D01*
X143585714Y-116126247D02*
X143585714Y-116364342D01*
X143585714Y-116364342D02*
X143538095Y-116459580D01*
X143538095Y-116459580D02*
X143490476Y-116507200D01*
X143490476Y-116507200D02*
X143395238Y-116554819D01*
X143395238Y-116554819D02*
X143109524Y-116554819D01*
X143109524Y-116554819D02*
X143014286Y-116507200D01*
X143014286Y-116507200D02*
X142966667Y-116459580D01*
X139490238Y-116934819D02*
X139490238Y-115934819D01*
X139490238Y-115934819D02*
X139728333Y-115934819D01*
X139728333Y-115934819D02*
X139871190Y-115982438D01*
X139871190Y-115982438D02*
X139966428Y-116077676D01*
X139966428Y-116077676D02*
X140014047Y-116172914D01*
X140014047Y-116172914D02*
X140061666Y-116363390D01*
X140061666Y-116363390D02*
X140061666Y-116506247D01*
X140061666Y-116506247D02*
X140014047Y-116696723D01*
X140014047Y-116696723D02*
X139966428Y-116791961D01*
X139966428Y-116791961D02*
X139871190Y-116887200D01*
X139871190Y-116887200D02*
X139728333Y-116934819D01*
X139728333Y-116934819D02*
X139490238Y-116934819D01*
X140966428Y-115934819D02*
X140490238Y-115934819D01*
X140490238Y-115934819D02*
X140442619Y-116411009D01*
X140442619Y-116411009D02*
X140490238Y-116363390D01*
X140490238Y-116363390D02*
X140585476Y-116315771D01*
X140585476Y-116315771D02*
X140823571Y-116315771D01*
X140823571Y-116315771D02*
X140918809Y-116363390D01*
X140918809Y-116363390D02*
X140966428Y-116411009D01*
X140966428Y-116411009D02*
X141014047Y-116506247D01*
X141014047Y-116506247D02*
X141014047Y-116744342D01*
X141014047Y-116744342D02*
X140966428Y-116839580D01*
X140966428Y-116839580D02*
X140918809Y-116887200D01*
X140918809Y-116887200D02*
X140823571Y-116934819D01*
X140823571Y-116934819D02*
X140585476Y-116934819D01*
X140585476Y-116934819D02*
X140490238Y-116887200D01*
X140490238Y-116887200D02*
X140442619Y-116839580D01*
X145285714Y-116854819D02*
X145285714Y-115854819D01*
X145285714Y-115854819D02*
X145523809Y-115854819D01*
X145523809Y-115854819D02*
X145666666Y-115902438D01*
X145666666Y-115902438D02*
X145761904Y-115997676D01*
X145761904Y-115997676D02*
X145809523Y-116092914D01*
X145809523Y-116092914D02*
X145857142Y-116283390D01*
X145857142Y-116283390D02*
X145857142Y-116426247D01*
X145857142Y-116426247D02*
X145809523Y-116616723D01*
X145809523Y-116616723D02*
X145761904Y-116711961D01*
X145761904Y-116711961D02*
X145666666Y-116807200D01*
X145666666Y-116807200D02*
X145523809Y-116854819D01*
X145523809Y-116854819D02*
X145285714Y-116854819D01*
X146809523Y-116854819D02*
X146238095Y-116854819D01*
X146523809Y-116854819D02*
X146523809Y-115854819D01*
X146523809Y-115854819D02*
X146428571Y-115997676D01*
X146428571Y-115997676D02*
X146333333Y-116092914D01*
X146333333Y-116092914D02*
X146238095Y-116140533D01*
X147142857Y-115854819D02*
X147761904Y-115854819D01*
X147761904Y-115854819D02*
X147428571Y-116235771D01*
X147428571Y-116235771D02*
X147571428Y-116235771D01*
X147571428Y-116235771D02*
X147666666Y-116283390D01*
X147666666Y-116283390D02*
X147714285Y-116331009D01*
X147714285Y-116331009D02*
X147761904Y-116426247D01*
X147761904Y-116426247D02*
X147761904Y-116664342D01*
X147761904Y-116664342D02*
X147714285Y-116759580D01*
X147714285Y-116759580D02*
X147666666Y-116807200D01*
X147666666Y-116807200D02*
X147571428Y-116854819D01*
X147571428Y-116854819D02*
X147285714Y-116854819D01*
X147285714Y-116854819D02*
X147190476Y-116807200D01*
X147190476Y-116807200D02*
X147142857Y-116759580D01*
X117838095Y-114754819D02*
X117838095Y-115564342D01*
X117838095Y-115564342D02*
X117885714Y-115659580D01*
X117885714Y-115659580D02*
X117933333Y-115707200D01*
X117933333Y-115707200D02*
X118028571Y-115754819D01*
X118028571Y-115754819D02*
X118219047Y-115754819D01*
X118219047Y-115754819D02*
X118314285Y-115707200D01*
X118314285Y-115707200D02*
X118361904Y-115659580D01*
X118361904Y-115659580D02*
X118409523Y-115564342D01*
X118409523Y-115564342D02*
X118409523Y-114754819D01*
X119314285Y-115088152D02*
X119314285Y-115754819D01*
X119076190Y-114707200D02*
X118838095Y-115421485D01*
X118838095Y-115421485D02*
X119457142Y-115421485D01*
X158866666Y-130054819D02*
X158866666Y-130769104D01*
X158866666Y-130769104D02*
X158819047Y-130911961D01*
X158819047Y-130911961D02*
X158723809Y-131007200D01*
X158723809Y-131007200D02*
X158580952Y-131054819D01*
X158580952Y-131054819D02*
X158485714Y-131054819D01*
X159485714Y-130483390D02*
X159390476Y-130435771D01*
X159390476Y-130435771D02*
X159342857Y-130388152D01*
X159342857Y-130388152D02*
X159295238Y-130292914D01*
X159295238Y-130292914D02*
X159295238Y-130245295D01*
X159295238Y-130245295D02*
X159342857Y-130150057D01*
X159342857Y-130150057D02*
X159390476Y-130102438D01*
X159390476Y-130102438D02*
X159485714Y-130054819D01*
X159485714Y-130054819D02*
X159676190Y-130054819D01*
X159676190Y-130054819D02*
X159771428Y-130102438D01*
X159771428Y-130102438D02*
X159819047Y-130150057D01*
X159819047Y-130150057D02*
X159866666Y-130245295D01*
X159866666Y-130245295D02*
X159866666Y-130292914D01*
X159866666Y-130292914D02*
X159819047Y-130388152D01*
X159819047Y-130388152D02*
X159771428Y-130435771D01*
X159771428Y-130435771D02*
X159676190Y-130483390D01*
X159676190Y-130483390D02*
X159485714Y-130483390D01*
X159485714Y-130483390D02*
X159390476Y-130531009D01*
X159390476Y-130531009D02*
X159342857Y-130578628D01*
X159342857Y-130578628D02*
X159295238Y-130673866D01*
X159295238Y-130673866D02*
X159295238Y-130864342D01*
X159295238Y-130864342D02*
X159342857Y-130959580D01*
X159342857Y-130959580D02*
X159390476Y-131007200D01*
X159390476Y-131007200D02*
X159485714Y-131054819D01*
X159485714Y-131054819D02*
X159676190Y-131054819D01*
X159676190Y-131054819D02*
X159771428Y-131007200D01*
X159771428Y-131007200D02*
X159819047Y-130959580D01*
X159819047Y-130959580D02*
X159866666Y-130864342D01*
X159866666Y-130864342D02*
X159866666Y-130673866D01*
X159866666Y-130673866D02*
X159819047Y-130578628D01*
X159819047Y-130578628D02*
X159771428Y-130531009D01*
X159771428Y-130531009D02*
X159676190Y-130483390D01*
X103690833Y-120079580D02*
X103643214Y-120127200D01*
X103643214Y-120127200D02*
X103500357Y-120174819D01*
X103500357Y-120174819D02*
X103405119Y-120174819D01*
X103405119Y-120174819D02*
X103262262Y-120127200D01*
X103262262Y-120127200D02*
X103167024Y-120031961D01*
X103167024Y-120031961D02*
X103119405Y-119936723D01*
X103119405Y-119936723D02*
X103071786Y-119746247D01*
X103071786Y-119746247D02*
X103071786Y-119603390D01*
X103071786Y-119603390D02*
X103119405Y-119412914D01*
X103119405Y-119412914D02*
X103167024Y-119317676D01*
X103167024Y-119317676D02*
X103262262Y-119222438D01*
X103262262Y-119222438D02*
X103405119Y-119174819D01*
X103405119Y-119174819D02*
X103500357Y-119174819D01*
X103500357Y-119174819D02*
X103643214Y-119222438D01*
X103643214Y-119222438D02*
X103690833Y-119270057D01*
X104547976Y-119174819D02*
X104357500Y-119174819D01*
X104357500Y-119174819D02*
X104262262Y-119222438D01*
X104262262Y-119222438D02*
X104214643Y-119270057D01*
X104214643Y-119270057D02*
X104119405Y-119412914D01*
X104119405Y-119412914D02*
X104071786Y-119603390D01*
X104071786Y-119603390D02*
X104071786Y-119984342D01*
X104071786Y-119984342D02*
X104119405Y-120079580D01*
X104119405Y-120079580D02*
X104167024Y-120127200D01*
X104167024Y-120127200D02*
X104262262Y-120174819D01*
X104262262Y-120174819D02*
X104452738Y-120174819D01*
X104452738Y-120174819D02*
X104547976Y-120127200D01*
X104547976Y-120127200D02*
X104595595Y-120079580D01*
X104595595Y-120079580D02*
X104643214Y-119984342D01*
X104643214Y-119984342D02*
X104643214Y-119746247D01*
X104643214Y-119746247D02*
X104595595Y-119651009D01*
X104595595Y-119651009D02*
X104547976Y-119603390D01*
X104547976Y-119603390D02*
X104452738Y-119555771D01*
X104452738Y-119555771D02*
X104262262Y-119555771D01*
X104262262Y-119555771D02*
X104167024Y-119603390D01*
X104167024Y-119603390D02*
X104119405Y-119651009D01*
X104119405Y-119651009D02*
X104071786Y-119746247D01*
X147385714Y-126154819D02*
X147385714Y-125154819D01*
X147385714Y-125154819D02*
X147623809Y-125154819D01*
X147623809Y-125154819D02*
X147766666Y-125202438D01*
X147766666Y-125202438D02*
X147861904Y-125297676D01*
X147861904Y-125297676D02*
X147909523Y-125392914D01*
X147909523Y-125392914D02*
X147957142Y-125583390D01*
X147957142Y-125583390D02*
X147957142Y-125726247D01*
X147957142Y-125726247D02*
X147909523Y-125916723D01*
X147909523Y-125916723D02*
X147861904Y-126011961D01*
X147861904Y-126011961D02*
X147766666Y-126107200D01*
X147766666Y-126107200D02*
X147623809Y-126154819D01*
X147623809Y-126154819D02*
X147385714Y-126154819D01*
X148909523Y-126154819D02*
X148338095Y-126154819D01*
X148623809Y-126154819D02*
X148623809Y-125154819D01*
X148623809Y-125154819D02*
X148528571Y-125297676D01*
X148528571Y-125297676D02*
X148433333Y-125392914D01*
X148433333Y-125392914D02*
X148338095Y-125440533D01*
X149766666Y-125488152D02*
X149766666Y-126154819D01*
X149528571Y-125107200D02*
X149290476Y-125821485D01*
X149290476Y-125821485D02*
X149909523Y-125821485D01*
X159266666Y-124254819D02*
X159266666Y-124969104D01*
X159266666Y-124969104D02*
X159219047Y-125111961D01*
X159219047Y-125111961D02*
X159123809Y-125207200D01*
X159123809Y-125207200D02*
X158980952Y-125254819D01*
X158980952Y-125254819D02*
X158885714Y-125254819D01*
X159647619Y-124254819D02*
X160266666Y-124254819D01*
X160266666Y-124254819D02*
X159933333Y-124635771D01*
X159933333Y-124635771D02*
X160076190Y-124635771D01*
X160076190Y-124635771D02*
X160171428Y-124683390D01*
X160171428Y-124683390D02*
X160219047Y-124731009D01*
X160219047Y-124731009D02*
X160266666Y-124826247D01*
X160266666Y-124826247D02*
X160266666Y-125064342D01*
X160266666Y-125064342D02*
X160219047Y-125159580D01*
X160219047Y-125159580D02*
X160171428Y-125207200D01*
X160171428Y-125207200D02*
X160076190Y-125254819D01*
X160076190Y-125254819D02*
X159790476Y-125254819D01*
X159790476Y-125254819D02*
X159695238Y-125207200D01*
X159695238Y-125207200D02*
X159647619Y-125159580D01*
X121751905Y-122154819D02*
X121751905Y-121154819D01*
X121751905Y-121154819D02*
X121990000Y-121154819D01*
X121990000Y-121154819D02*
X122132857Y-121202438D01*
X122132857Y-121202438D02*
X122228095Y-121297676D01*
X122228095Y-121297676D02*
X122275714Y-121392914D01*
X122275714Y-121392914D02*
X122323333Y-121583390D01*
X122323333Y-121583390D02*
X122323333Y-121726247D01*
X122323333Y-121726247D02*
X122275714Y-121916723D01*
X122275714Y-121916723D02*
X122228095Y-122011961D01*
X122228095Y-122011961D02*
X122132857Y-122107200D01*
X122132857Y-122107200D02*
X121990000Y-122154819D01*
X121990000Y-122154819D02*
X121751905Y-122154819D01*
X122894762Y-121583390D02*
X122799524Y-121535771D01*
X122799524Y-121535771D02*
X122751905Y-121488152D01*
X122751905Y-121488152D02*
X122704286Y-121392914D01*
X122704286Y-121392914D02*
X122704286Y-121345295D01*
X122704286Y-121345295D02*
X122751905Y-121250057D01*
X122751905Y-121250057D02*
X122799524Y-121202438D01*
X122799524Y-121202438D02*
X122894762Y-121154819D01*
X122894762Y-121154819D02*
X123085238Y-121154819D01*
X123085238Y-121154819D02*
X123180476Y-121202438D01*
X123180476Y-121202438D02*
X123228095Y-121250057D01*
X123228095Y-121250057D02*
X123275714Y-121345295D01*
X123275714Y-121345295D02*
X123275714Y-121392914D01*
X123275714Y-121392914D02*
X123228095Y-121488152D01*
X123228095Y-121488152D02*
X123180476Y-121535771D01*
X123180476Y-121535771D02*
X123085238Y-121583390D01*
X123085238Y-121583390D02*
X122894762Y-121583390D01*
X122894762Y-121583390D02*
X122799524Y-121631009D01*
X122799524Y-121631009D02*
X122751905Y-121678628D01*
X122751905Y-121678628D02*
X122704286Y-121773866D01*
X122704286Y-121773866D02*
X122704286Y-121964342D01*
X122704286Y-121964342D02*
X122751905Y-122059580D01*
X122751905Y-122059580D02*
X122799524Y-122107200D01*
X122799524Y-122107200D02*
X122894762Y-122154819D01*
X122894762Y-122154819D02*
X123085238Y-122154819D01*
X123085238Y-122154819D02*
X123180476Y-122107200D01*
X123180476Y-122107200D02*
X123228095Y-122059580D01*
X123228095Y-122059580D02*
X123275714Y-121964342D01*
X123275714Y-121964342D02*
X123275714Y-121773866D01*
X123275714Y-121773866D02*
X123228095Y-121678628D01*
X123228095Y-121678628D02*
X123180476Y-121631009D01*
X123180476Y-121631009D02*
X123085238Y-121583390D01*
X153785714Y-116954819D02*
X153785714Y-115954819D01*
X153785714Y-115954819D02*
X154023809Y-115954819D01*
X154023809Y-115954819D02*
X154166666Y-116002438D01*
X154166666Y-116002438D02*
X154261904Y-116097676D01*
X154261904Y-116097676D02*
X154309523Y-116192914D01*
X154309523Y-116192914D02*
X154357142Y-116383390D01*
X154357142Y-116383390D02*
X154357142Y-116526247D01*
X154357142Y-116526247D02*
X154309523Y-116716723D01*
X154309523Y-116716723D02*
X154261904Y-116811961D01*
X154261904Y-116811961D02*
X154166666Y-116907200D01*
X154166666Y-116907200D02*
X154023809Y-116954819D01*
X154023809Y-116954819D02*
X153785714Y-116954819D01*
X155309523Y-116954819D02*
X154738095Y-116954819D01*
X155023809Y-116954819D02*
X155023809Y-115954819D01*
X155023809Y-115954819D02*
X154928571Y-116097676D01*
X154928571Y-116097676D02*
X154833333Y-116192914D01*
X154833333Y-116192914D02*
X154738095Y-116240533D01*
X156261904Y-116954819D02*
X155690476Y-116954819D01*
X155976190Y-116954819D02*
X155976190Y-115954819D01*
X155976190Y-115954819D02*
X155880952Y-116097676D01*
X155880952Y-116097676D02*
X155785714Y-116192914D01*
X155785714Y-116192914D02*
X155690476Y-116240533D01*
D12*
X107162618Y-130274318D02*
X107162618Y-129004318D01*
X107888333Y-130274318D02*
X107344047Y-129548603D01*
X107888333Y-129004318D02*
X107162618Y-129730032D01*
X108976904Y-129004318D02*
X108734999Y-129004318D01*
X108734999Y-129004318D02*
X108614047Y-129064794D01*
X108614047Y-129064794D02*
X108553571Y-129125270D01*
X108553571Y-129125270D02*
X108432618Y-129306699D01*
X108432618Y-129306699D02*
X108372142Y-129548603D01*
X108372142Y-129548603D02*
X108372142Y-130032413D01*
X108372142Y-130032413D02*
X108432618Y-130153365D01*
X108432618Y-130153365D02*
X108493095Y-130213842D01*
X108493095Y-130213842D02*
X108614047Y-130274318D01*
X108614047Y-130274318D02*
X108855952Y-130274318D01*
X108855952Y-130274318D02*
X108976904Y-130213842D01*
X108976904Y-130213842D02*
X109037380Y-130153365D01*
X109037380Y-130153365D02*
X109097857Y-130032413D01*
X109097857Y-130032413D02*
X109097857Y-129730032D01*
X109097857Y-129730032D02*
X109037380Y-129609080D01*
X109037380Y-129609080D02*
X108976904Y-129548603D01*
X108976904Y-129548603D02*
X108855952Y-129488127D01*
X108855952Y-129488127D02*
X108614047Y-129488127D01*
X108614047Y-129488127D02*
X108493095Y-129548603D01*
X108493095Y-129548603D02*
X108432618Y-129609080D01*
X108432618Y-129609080D02*
X108372142Y-129730032D01*
D11*
X114233333Y-113854819D02*
X113900000Y-113378628D01*
X113661905Y-113854819D02*
X113661905Y-112854819D01*
X113661905Y-112854819D02*
X114042857Y-112854819D01*
X114042857Y-112854819D02*
X114138095Y-112902438D01*
X114138095Y-112902438D02*
X114185714Y-112950057D01*
X114185714Y-112950057D02*
X114233333Y-113045295D01*
X114233333Y-113045295D02*
X114233333Y-113188152D01*
X114233333Y-113188152D02*
X114185714Y-113283390D01*
X114185714Y-113283390D02*
X114138095Y-113331009D01*
X114138095Y-113331009D02*
X114042857Y-113378628D01*
X114042857Y-113378628D02*
X113661905Y-113378628D01*
X115185714Y-113854819D02*
X114614286Y-113854819D01*
X114900000Y-113854819D02*
X114900000Y-112854819D01*
X114900000Y-112854819D02*
X114804762Y-112997676D01*
X114804762Y-112997676D02*
X114709524Y-113092914D01*
X114709524Y-113092914D02*
X114614286Y-113140533D01*
X120266666Y-114754819D02*
X120266666Y-115469104D01*
X120266666Y-115469104D02*
X120219047Y-115611961D01*
X120219047Y-115611961D02*
X120123809Y-115707200D01*
X120123809Y-115707200D02*
X119980952Y-115754819D01*
X119980952Y-115754819D02*
X119885714Y-115754819D01*
X121219047Y-114754819D02*
X120742857Y-114754819D01*
X120742857Y-114754819D02*
X120695238Y-115231009D01*
X120695238Y-115231009D02*
X120742857Y-115183390D01*
X120742857Y-115183390D02*
X120838095Y-115135771D01*
X120838095Y-115135771D02*
X121076190Y-115135771D01*
X121076190Y-115135771D02*
X121171428Y-115183390D01*
X121171428Y-115183390D02*
X121219047Y-115231009D01*
X121219047Y-115231009D02*
X121266666Y-115326247D01*
X121266666Y-115326247D02*
X121266666Y-115564342D01*
X121266666Y-115564342D02*
X121219047Y-115659580D01*
X121219047Y-115659580D02*
X121171428Y-115707200D01*
X121171428Y-115707200D02*
X121076190Y-115754819D01*
X121076190Y-115754819D02*
X120838095Y-115754819D01*
X120838095Y-115754819D02*
X120742857Y-115707200D01*
X120742857Y-115707200D02*
X120695238Y-115659580D01*
X122957142Y-124124819D02*
X122623809Y-123648628D01*
X122385714Y-124124819D02*
X122385714Y-123124819D01*
X122385714Y-123124819D02*
X122766666Y-123124819D01*
X122766666Y-123124819D02*
X122861904Y-123172438D01*
X122861904Y-123172438D02*
X122909523Y-123220057D01*
X122909523Y-123220057D02*
X122957142Y-123315295D01*
X122957142Y-123315295D02*
X122957142Y-123458152D01*
X122957142Y-123458152D02*
X122909523Y-123553390D01*
X122909523Y-123553390D02*
X122861904Y-123601009D01*
X122861904Y-123601009D02*
X122766666Y-123648628D01*
X122766666Y-123648628D02*
X122385714Y-123648628D01*
X123909523Y-124124819D02*
X123338095Y-124124819D01*
X123623809Y-124124819D02*
X123623809Y-123124819D01*
X123623809Y-123124819D02*
X123528571Y-123267676D01*
X123528571Y-123267676D02*
X123433333Y-123362914D01*
X123433333Y-123362914D02*
X123338095Y-123410533D01*
X124242857Y-123124819D02*
X124909523Y-123124819D01*
X124909523Y-123124819D02*
X124480952Y-124124819D01*
X86636666Y-116384819D02*
X86636666Y-117099104D01*
X86636666Y-117099104D02*
X86589047Y-117241961D01*
X86589047Y-117241961D02*
X86493809Y-117337200D01*
X86493809Y-117337200D02*
X86350952Y-117384819D01*
X86350952Y-117384819D02*
X86255714Y-117384819D01*
X87636666Y-117384819D02*
X87065238Y-117384819D01*
X87350952Y-117384819D02*
X87350952Y-116384819D01*
X87350952Y-116384819D02*
X87255714Y-116527676D01*
X87255714Y-116527676D02*
X87160476Y-116622914D01*
X87160476Y-116622914D02*
X87065238Y-116670533D01*
X96533333Y-114559580D02*
X96485714Y-114607200D01*
X96485714Y-114607200D02*
X96342857Y-114654819D01*
X96342857Y-114654819D02*
X96247619Y-114654819D01*
X96247619Y-114654819D02*
X96104762Y-114607200D01*
X96104762Y-114607200D02*
X96009524Y-114511961D01*
X96009524Y-114511961D02*
X95961905Y-114416723D01*
X95961905Y-114416723D02*
X95914286Y-114226247D01*
X95914286Y-114226247D02*
X95914286Y-114083390D01*
X95914286Y-114083390D02*
X95961905Y-113892914D01*
X95961905Y-113892914D02*
X96009524Y-113797676D01*
X96009524Y-113797676D02*
X96104762Y-113702438D01*
X96104762Y-113702438D02*
X96247619Y-113654819D01*
X96247619Y-113654819D02*
X96342857Y-113654819D01*
X96342857Y-113654819D02*
X96485714Y-113702438D01*
X96485714Y-113702438D02*
X96533333Y-113750057D01*
X96866667Y-113654819D02*
X97485714Y-113654819D01*
X97485714Y-113654819D02*
X97152381Y-114035771D01*
X97152381Y-114035771D02*
X97295238Y-114035771D01*
X97295238Y-114035771D02*
X97390476Y-114083390D01*
X97390476Y-114083390D02*
X97438095Y-114131009D01*
X97438095Y-114131009D02*
X97485714Y-114226247D01*
X97485714Y-114226247D02*
X97485714Y-114464342D01*
X97485714Y-114464342D02*
X97438095Y-114559580D01*
X97438095Y-114559580D02*
X97390476Y-114607200D01*
X97390476Y-114607200D02*
X97295238Y-114654819D01*
X97295238Y-114654819D02*
X97009524Y-114654819D01*
X97009524Y-114654819D02*
X96914286Y-114607200D01*
X96914286Y-114607200D02*
X96866667Y-114559580D01*
X105661905Y-118454819D02*
X105661905Y-117454819D01*
X105661905Y-117454819D02*
X105900000Y-117454819D01*
X105900000Y-117454819D02*
X106042857Y-117502438D01*
X106042857Y-117502438D02*
X106138095Y-117597676D01*
X106138095Y-117597676D02*
X106185714Y-117692914D01*
X106185714Y-117692914D02*
X106233333Y-117883390D01*
X106233333Y-117883390D02*
X106233333Y-118026247D01*
X106233333Y-118026247D02*
X106185714Y-118216723D01*
X106185714Y-118216723D02*
X106138095Y-118311961D01*
X106138095Y-118311961D02*
X106042857Y-118407200D01*
X106042857Y-118407200D02*
X105900000Y-118454819D01*
X105900000Y-118454819D02*
X105661905Y-118454819D01*
X107185714Y-118454819D02*
X106614286Y-118454819D01*
X106900000Y-118454819D02*
X106900000Y-117454819D01*
X106900000Y-117454819D02*
X106804762Y-117597676D01*
X106804762Y-117597676D02*
X106709524Y-117692914D01*
X106709524Y-117692914D02*
X106614286Y-117740533D01*
X95861905Y-115954819D02*
X95861905Y-114954819D01*
X95861905Y-114954819D02*
X96100000Y-114954819D01*
X96100000Y-114954819D02*
X96242857Y-115002438D01*
X96242857Y-115002438D02*
X96338095Y-115097676D01*
X96338095Y-115097676D02*
X96385714Y-115192914D01*
X96385714Y-115192914D02*
X96433333Y-115383390D01*
X96433333Y-115383390D02*
X96433333Y-115526247D01*
X96433333Y-115526247D02*
X96385714Y-115716723D01*
X96385714Y-115716723D02*
X96338095Y-115811961D01*
X96338095Y-115811961D02*
X96242857Y-115907200D01*
X96242857Y-115907200D02*
X96100000Y-115954819D01*
X96100000Y-115954819D02*
X95861905Y-115954819D01*
X96909524Y-115954819D02*
X97100000Y-115954819D01*
X97100000Y-115954819D02*
X97195238Y-115907200D01*
X97195238Y-115907200D02*
X97242857Y-115859580D01*
X97242857Y-115859580D02*
X97338095Y-115716723D01*
X97338095Y-115716723D02*
X97385714Y-115526247D01*
X97385714Y-115526247D02*
X97385714Y-115145295D01*
X97385714Y-115145295D02*
X97338095Y-115050057D01*
X97338095Y-115050057D02*
X97290476Y-115002438D01*
X97290476Y-115002438D02*
X97195238Y-114954819D01*
X97195238Y-114954819D02*
X97004762Y-114954819D01*
X97004762Y-114954819D02*
X96909524Y-115002438D01*
X96909524Y-115002438D02*
X96861905Y-115050057D01*
X96861905Y-115050057D02*
X96814286Y-115145295D01*
X96814286Y-115145295D02*
X96814286Y-115383390D01*
X96814286Y-115383390D02*
X96861905Y-115478628D01*
X96861905Y-115478628D02*
X96909524Y-115526247D01*
X96909524Y-115526247D02*
X97004762Y-115573866D01*
X97004762Y-115573866D02*
X97195238Y-115573866D01*
X97195238Y-115573866D02*
X97290476Y-115526247D01*
X97290476Y-115526247D02*
X97338095Y-115478628D01*
X97338095Y-115478628D02*
X97385714Y-115383390D01*
X96233333Y-120759580D02*
X96185714Y-120807200D01*
X96185714Y-120807200D02*
X96042857Y-120854819D01*
X96042857Y-120854819D02*
X95947619Y-120854819D01*
X95947619Y-120854819D02*
X95804762Y-120807200D01*
X95804762Y-120807200D02*
X95709524Y-120711961D01*
X95709524Y-120711961D02*
X95661905Y-120616723D01*
X95661905Y-120616723D02*
X95614286Y-120426247D01*
X95614286Y-120426247D02*
X95614286Y-120283390D01*
X95614286Y-120283390D02*
X95661905Y-120092914D01*
X95661905Y-120092914D02*
X95709524Y-119997676D01*
X95709524Y-119997676D02*
X95804762Y-119902438D01*
X95804762Y-119902438D02*
X95947619Y-119854819D01*
X95947619Y-119854819D02*
X96042857Y-119854819D01*
X96042857Y-119854819D02*
X96185714Y-119902438D01*
X96185714Y-119902438D02*
X96233333Y-119950057D01*
X96566667Y-119854819D02*
X97233333Y-119854819D01*
X97233333Y-119854819D02*
X96804762Y-120854819D01*
X164688095Y-112214819D02*
X164688095Y-113024342D01*
X164688095Y-113024342D02*
X164735714Y-113119580D01*
X164735714Y-113119580D02*
X164783333Y-113167200D01*
X164783333Y-113167200D02*
X164878571Y-113214819D01*
X164878571Y-113214819D02*
X165069047Y-113214819D01*
X165069047Y-113214819D02*
X165164285Y-113167200D01*
X165164285Y-113167200D02*
X165211904Y-113119580D01*
X165211904Y-113119580D02*
X165259523Y-113024342D01*
X165259523Y-113024342D02*
X165259523Y-112214819D01*
X165688095Y-112310057D02*
X165735714Y-112262438D01*
X165735714Y-112262438D02*
X165830952Y-112214819D01*
X165830952Y-112214819D02*
X166069047Y-112214819D01*
X166069047Y-112214819D02*
X166164285Y-112262438D01*
X166164285Y-112262438D02*
X166211904Y-112310057D01*
X166211904Y-112310057D02*
X166259523Y-112405295D01*
X166259523Y-112405295D02*
X166259523Y-112500533D01*
X166259523Y-112500533D02*
X166211904Y-112643390D01*
X166211904Y-112643390D02*
X165640476Y-113214819D01*
X165640476Y-113214819D02*
X166259523Y-113214819D01*
X126561905Y-118254819D02*
X126561905Y-117254819D01*
X126561905Y-117254819D02*
X126800000Y-117254819D01*
X126800000Y-117254819D02*
X126942857Y-117302438D01*
X126942857Y-117302438D02*
X127038095Y-117397676D01*
X127038095Y-117397676D02*
X127085714Y-117492914D01*
X127085714Y-117492914D02*
X127133333Y-117683390D01*
X127133333Y-117683390D02*
X127133333Y-117826247D01*
X127133333Y-117826247D02*
X127085714Y-118016723D01*
X127085714Y-118016723D02*
X127038095Y-118111961D01*
X127038095Y-118111961D02*
X126942857Y-118207200D01*
X126942857Y-118207200D02*
X126800000Y-118254819D01*
X126800000Y-118254819D02*
X126561905Y-118254819D01*
X127466667Y-117254819D02*
X128133333Y-117254819D01*
X128133333Y-117254819D02*
X127704762Y-118254819D01*
X129061905Y-116954819D02*
X129061905Y-115954819D01*
X129061905Y-115954819D02*
X129300000Y-115954819D01*
X129300000Y-115954819D02*
X129442857Y-116002438D01*
X129442857Y-116002438D02*
X129538095Y-116097676D01*
X129538095Y-116097676D02*
X129585714Y-116192914D01*
X129585714Y-116192914D02*
X129633333Y-116383390D01*
X129633333Y-116383390D02*
X129633333Y-116526247D01*
X129633333Y-116526247D02*
X129585714Y-116716723D01*
X129585714Y-116716723D02*
X129538095Y-116811961D01*
X129538095Y-116811961D02*
X129442857Y-116907200D01*
X129442857Y-116907200D02*
X129300000Y-116954819D01*
X129300000Y-116954819D02*
X129061905Y-116954819D01*
X130490476Y-116288152D02*
X130490476Y-116954819D01*
X130252381Y-115907200D02*
X130014286Y-116621485D01*
X130014286Y-116621485D02*
X130633333Y-116621485D01*
X103457142Y-118354819D02*
X103123809Y-117878628D01*
X102885714Y-118354819D02*
X102885714Y-117354819D01*
X102885714Y-117354819D02*
X103266666Y-117354819D01*
X103266666Y-117354819D02*
X103361904Y-117402438D01*
X103361904Y-117402438D02*
X103409523Y-117450057D01*
X103409523Y-117450057D02*
X103457142Y-117545295D01*
X103457142Y-117545295D02*
X103457142Y-117688152D01*
X103457142Y-117688152D02*
X103409523Y-117783390D01*
X103409523Y-117783390D02*
X103361904Y-117831009D01*
X103361904Y-117831009D02*
X103266666Y-117878628D01*
X103266666Y-117878628D02*
X102885714Y-117878628D01*
X104409523Y-118354819D02*
X103838095Y-118354819D01*
X104123809Y-118354819D02*
X104123809Y-117354819D01*
X104123809Y-117354819D02*
X104028571Y-117497676D01*
X104028571Y-117497676D02*
X103933333Y-117592914D01*
X103933333Y-117592914D02*
X103838095Y-117640533D01*
X105266666Y-117688152D02*
X105266666Y-118354819D01*
X105028571Y-117307200D02*
X104790476Y-118021485D01*
X104790476Y-118021485D02*
X105409523Y-118021485D01*
X135404761Y-126254819D02*
X135071428Y-125778628D01*
X134833333Y-126254819D02*
X134833333Y-125254819D01*
X134833333Y-125254819D02*
X135214285Y-125254819D01*
X135214285Y-125254819D02*
X135309523Y-125302438D01*
X135309523Y-125302438D02*
X135357142Y-125350057D01*
X135357142Y-125350057D02*
X135404761Y-125445295D01*
X135404761Y-125445295D02*
X135404761Y-125588152D01*
X135404761Y-125588152D02*
X135357142Y-125683390D01*
X135357142Y-125683390D02*
X135309523Y-125731009D01*
X135309523Y-125731009D02*
X135214285Y-125778628D01*
X135214285Y-125778628D02*
X134833333Y-125778628D01*
X135690476Y-125254819D02*
X136023809Y-126254819D01*
X136023809Y-126254819D02*
X136357142Y-125254819D01*
X137214285Y-126254819D02*
X136642857Y-126254819D01*
X136928571Y-126254819D02*
X136928571Y-125254819D01*
X136928571Y-125254819D02*
X136833333Y-125397676D01*
X136833333Y-125397676D02*
X136738095Y-125492914D01*
X136738095Y-125492914D02*
X136642857Y-125540533D01*
D13*
%TO.C,Y4*%
X105350000Y-126300000D02*
X108650000Y-126300000D01*
X108650000Y-126300000D02*
X108650000Y-122300000D01*
%TO.C,D6*%
X105665000Y-113840000D02*
X105665000Y-116300000D01*
X107135000Y-113840000D02*
X105665000Y-113840000D01*
X107135000Y-116300000D02*
X107135000Y-113840000D01*
%TO.C,D2*%
X136227500Y-121600000D02*
X130717500Y-121600000D01*
X136227500Y-124900000D02*
X130717500Y-124900000D01*
X136227500Y-124900000D02*
X136227500Y-121600000D01*
%TO.C,R15*%
X107377500Y-115162742D02*
X107377500Y-115637258D01*
X108422500Y-115162742D02*
X108422500Y-115637258D01*
%TO.C,J2*%
X86790000Y-110140000D02*
X94630000Y-110140000D01*
X86790000Y-112790000D02*
X86790000Y-110140000D01*
X86790000Y-115440000D02*
X86790000Y-114060000D01*
X88170000Y-115440000D02*
X86790000Y-115440000D01*
X89440000Y-112790000D02*
X86790000Y-112790000D01*
X89440000Y-115440000D02*
X89440000Y-112790000D01*
X89440000Y-115440000D02*
X94630000Y-115440000D01*
X94630000Y-115440000D02*
X94630000Y-110140000D01*
%TO.C,SW6*%
X130812000Y-100900000D02*
X130812000Y-109505000D01*
X133860000Y-109505000D02*
X136400000Y-109505000D01*
X141480000Y-109505000D02*
X138940000Y-109505000D01*
X144528000Y-100900000D02*
X130812000Y-100900000D01*
X144528000Y-109505000D02*
X144528000Y-100900000D01*
X139150000Y-100500000D02*
X140350000Y-100500000D01*
X140350000Y-101300000D01*
X139150000Y-101300000D01*
X139150000Y-100500000D01*
%TO.C,R16*%
X126462742Y-124577500D02*
X126937258Y-124577500D01*
X126462742Y-125622500D02*
X126937258Y-125622500D01*
%TO.C,D12*%
X144240000Y-121600000D02*
X144240000Y-124900000D01*
X144240000Y-121600000D02*
X149750000Y-121600000D01*
X144240000Y-124900000D02*
X149750000Y-124900000D01*
%TO.C,J6*%
X96590000Y-122790000D02*
X97610000Y-122790000D01*
X96590000Y-127040000D02*
X96590000Y-122790000D01*
X97610000Y-122790000D02*
X97610000Y-124390000D01*
X97610000Y-124390000D02*
X98890000Y-124390000D01*
X98310000Y-130610000D02*
X102990000Y-130610000D01*
X98890000Y-124390000D02*
X98890000Y-121500000D01*
X103690000Y-122790000D02*
X103690000Y-124390000D01*
X103690000Y-124390000D02*
X102410000Y-124390000D01*
X104710000Y-122790000D02*
X103690000Y-122790000D01*
X104710000Y-127040000D02*
X104710000Y-122790000D01*
%TO.C,CN12*%
X105440000Y-106090000D02*
X105440000Y-112060000D01*
X105440000Y-112060000D02*
X115560000Y-112060000D01*
X105450000Y-109800000D02*
X106200000Y-109800000D01*
X105450000Y-111300000D02*
X105450000Y-112050000D01*
X105450000Y-112050000D02*
X107250000Y-112050000D01*
X106200000Y-106850000D02*
X110500000Y-106850000D01*
X106200000Y-109800000D02*
X106200000Y-106850000D01*
X107250000Y-111300000D02*
X105450000Y-111300000D01*
X107250000Y-112050000D02*
X107250000Y-111300000D01*
X108750000Y-111300000D02*
X108750000Y-112050000D01*
X108750000Y-112050000D02*
X112250000Y-112050000D01*
X110500000Y-106850000D02*
X113740000Y-106850000D01*
X112250000Y-111300000D02*
X108750000Y-111300000D01*
X112250000Y-112050000D02*
X112250000Y-111300000D01*
X113750000Y-111300000D02*
X113750000Y-112050000D01*
X113750000Y-112050000D02*
X115550000Y-112050000D01*
X114600000Y-112350000D02*
X115850000Y-112350000D01*
X114800000Y-109800000D02*
X114800000Y-108460000D01*
X115550000Y-109800000D02*
X114800000Y-109800000D01*
X115550000Y-111300000D02*
X113750000Y-111300000D01*
X115550000Y-112050000D02*
X115550000Y-111300000D01*
X115560000Y-106090000D02*
X105440000Y-106090000D01*
X115560000Y-112060000D02*
X115560000Y-106090000D01*
X115850000Y-112350000D02*
X115850000Y-111100000D01*
%TO.C,D3*%
X136718333Y-121600000D02*
X136718333Y-124900000D01*
X136718333Y-121600000D02*
X142228333Y-121600000D01*
X136718333Y-124900000D02*
X142228333Y-124900000D01*
%TO.C,D5*%
X136718333Y-117330000D02*
X136718333Y-120630000D01*
X136718333Y-117330000D02*
X142228333Y-117330000D01*
X136718333Y-120630000D02*
X142228333Y-120630000D01*
%TO.C,D13*%
X151260000Y-117350000D02*
X145750000Y-117350000D01*
X151260000Y-120650000D02*
X145750000Y-120650000D01*
X151260000Y-120650000D02*
X151260000Y-117350000D01*
D11*
%TO.C,U4*%
X110785000Y-116875000D02*
X110785000Y-117100000D01*
X110785000Y-116875000D02*
X111110000Y-116875000D01*
X110785000Y-124125000D02*
X110785000Y-123800000D01*
X110785000Y-124125000D02*
X111110000Y-124125000D01*
X118035000Y-116875000D02*
X117710000Y-116875000D01*
X118035000Y-116875000D02*
X118035000Y-117200000D01*
X118035000Y-124125000D02*
X117710000Y-124125000D01*
X118035000Y-124125000D02*
X118035000Y-123800000D01*
D13*
X110020000Y-117160000D02*
X109680000Y-116690000D01*
X110360000Y-116690000D01*
X110020000Y-117160000D01*
G36*
X110020000Y-117160000D02*
G01*
X109680000Y-116690000D01*
X110360000Y-116690000D01*
X110020000Y-117160000D01*
G37*
%TO.C,J8*%
X150140000Y-125940000D02*
X150140000Y-132560000D01*
X150140000Y-129250000D02*
X151150000Y-129250000D01*
X150140000Y-132560000D02*
X152400000Y-132560000D01*
X151150000Y-126650000D02*
X156850000Y-126650000D01*
X151150000Y-130950000D02*
X151150000Y-126650000D01*
X152400000Y-131560000D02*
X153600000Y-131560000D01*
X152400000Y-132560000D02*
X152400000Y-131560000D01*
X153600000Y-131560000D02*
X153600000Y-132160000D01*
X153600000Y-132160000D02*
X154400000Y-132160000D01*
X154400000Y-131560000D02*
X155600000Y-131560000D01*
X154400000Y-132160000D02*
X154400000Y-131560000D01*
X155600000Y-131560000D02*
X155600000Y-132560000D01*
X155600000Y-132560000D02*
X157860000Y-132560000D01*
X156850000Y-128650000D02*
X156850000Y-130950000D01*
X156850000Y-130950000D02*
X151150000Y-130950000D01*
X156910000Y-132860000D02*
X158160000Y-132860000D01*
X157860000Y-125940000D02*
X150140000Y-125940000D01*
X157860000Y-129250000D02*
X156850000Y-129250000D01*
X157860000Y-132560000D02*
X157860000Y-125940000D01*
X158160000Y-132860000D02*
X158160000Y-131610000D01*
%TO.C,C6*%
X98180000Y-118295000D02*
X98180000Y-120205000D01*
X98180000Y-120205000D02*
X102100000Y-120205000D01*
X102100000Y-118295000D02*
X98180000Y-118295000D01*
%TO.C,D14*%
X158510000Y-121600000D02*
X153000000Y-121600000D01*
X158510000Y-124900000D02*
X153000000Y-124900000D01*
X158510000Y-124900000D02*
X158510000Y-121600000D01*
%TO.C,J3*%
X159550000Y-128530000D02*
X159550000Y-129780000D01*
X159550000Y-129780000D02*
X160800000Y-129780000D01*
X159850000Y-116760000D02*
X159850000Y-120420000D01*
X159850000Y-120420000D02*
X160850000Y-120420000D01*
X159850000Y-125820000D02*
X159850000Y-129480000D01*
X159850000Y-129480000D02*
X166470000Y-129480000D01*
X160250000Y-122320000D02*
X160250000Y-123920000D01*
X160250000Y-123920000D02*
X160850000Y-123920000D01*
X160850000Y-120420000D02*
X160850000Y-122320000D01*
X160850000Y-122320000D02*
X160250000Y-122320000D01*
X160850000Y-123920000D02*
X160850000Y-125820000D01*
X160850000Y-125820000D02*
X159850000Y-125820000D01*
X161460000Y-117770000D02*
X165760000Y-117770000D01*
X161460000Y-128470000D02*
X161460000Y-117770000D01*
X163160000Y-116760000D02*
X163160000Y-117770000D01*
X163160000Y-129480000D02*
X163160000Y-128470000D01*
X163760000Y-128470000D02*
X161460000Y-128470000D01*
X165760000Y-117770000D02*
X165760000Y-128470000D01*
X166470000Y-116760000D02*
X159850000Y-116760000D01*
X166470000Y-129480000D02*
X166470000Y-116760000D01*
%TO.C,D8*%
X123695000Y-119740000D02*
X123695000Y-122200000D01*
X125165000Y-119740000D02*
X123695000Y-119740000D01*
X125165000Y-122200000D02*
X125165000Y-119740000D01*
%TO.C,D11*%
X151490000Y-117350000D02*
X151490000Y-120650000D01*
X151490000Y-117350000D02*
X157000000Y-117350000D01*
X151490000Y-120650000D02*
X157000000Y-120650000D01*
D10*
%TO.C,K6*%
X110500000Y-127750000D02*
X130500000Y-127750000D01*
X110500000Y-132750000D02*
X110500000Y-127750000D01*
D14*
X111500000Y-127350000D02*
X111500000Y-127350000D01*
X111700000Y-127350000D02*
X111700000Y-127350000D01*
D10*
X130500000Y-127750000D02*
X130500000Y-132750000D01*
X130500000Y-132750000D02*
X110500000Y-132750000D01*
D14*
X111500000Y-127350000D02*
G75*
G02*
X111700000Y-127350000I100000J0D01*
G01*
X111700000Y-127350000D02*
G75*
G02*
X111500000Y-127350000I-100000J0D01*
G01*
D13*
%TO.C,R1*%
X111562742Y-112727500D02*
X112037258Y-112727500D01*
X111562742Y-113772500D02*
X112037258Y-113772500D01*
%TO.C,J5*%
X116390000Y-106690000D02*
X116390000Y-113310000D01*
X116390000Y-110000000D02*
X117400000Y-110000000D01*
X116390000Y-113310000D02*
X120050000Y-113310000D01*
X117400000Y-107400000D02*
X128100000Y-107400000D01*
X117400000Y-111700000D02*
X117400000Y-107400000D01*
X120050000Y-112310000D02*
X121950000Y-112310000D01*
X120050000Y-113310000D02*
X120050000Y-112310000D01*
X121950000Y-112310000D02*
X121950000Y-112910000D01*
X121950000Y-112910000D02*
X123550000Y-112910000D01*
X123550000Y-112310000D02*
X125450000Y-112310000D01*
X123550000Y-112910000D02*
X123550000Y-112310000D01*
X125450000Y-112310000D02*
X125450000Y-113310000D01*
X125450000Y-113310000D02*
X129110000Y-113310000D01*
X128100000Y-109400000D02*
X128100000Y-111700000D01*
X128100000Y-111700000D02*
X117400000Y-111700000D01*
X128160000Y-113610000D02*
X129410000Y-113610000D01*
X129110000Y-106690000D02*
X116390000Y-106690000D01*
X129110000Y-110000000D02*
X128100000Y-110000000D01*
X129110000Y-113310000D02*
X129110000Y-106690000D01*
X129410000Y-113610000D02*
X129410000Y-112360000D01*
%TO.C,R17*%
X123362742Y-124577500D02*
X123837258Y-124577500D01*
X123362742Y-125622500D02*
X123837258Y-125622500D01*
%TO.C,J1*%
X84805000Y-118360000D02*
X86755000Y-118360000D01*
X84805000Y-126180000D02*
X84805000Y-118360000D01*
X84805000Y-126180000D02*
X86755000Y-126180000D01*
X88975000Y-118360000D02*
X92205000Y-118360000D01*
X88975000Y-126180000D02*
X92205000Y-126180000D01*
X94125000Y-119080000D02*
X94125000Y-120160000D01*
X94125000Y-120160000D02*
X94555000Y-120160000D01*
X94125000Y-124380000D02*
X94125000Y-125460000D01*
%TO.C,C3*%
X100390580Y-113990000D02*
X100109420Y-113990000D01*
X100390580Y-115010000D02*
X100109420Y-115010000D01*
%TO.C,D1*%
X104065000Y-113840000D02*
X104065000Y-116300000D01*
X105535000Y-113840000D02*
X104065000Y-113840000D01*
X105535000Y-116300000D02*
X105535000Y-113840000D01*
%TO.C,D9*%
X102360000Y-115600000D02*
X98350000Y-115600000D01*
X102360000Y-117600000D02*
X98350000Y-117600000D01*
X102360000Y-117600000D02*
X102360000Y-115600000D01*
%TO.C,C7*%
X96000000Y-118010580D02*
X96000000Y-117729420D01*
X97020000Y-118010580D02*
X97020000Y-117729420D01*
%TO.C,U2*%
X145010000Y-105380000D02*
X145010000Y-110621000D01*
X145010000Y-105380000D02*
X165450000Y-105380000D01*
X145010000Y-107220000D02*
X165450000Y-107220000D01*
X145010000Y-110621000D02*
X146686000Y-110621000D01*
X146340000Y-110621000D02*
X146340000Y-114030000D01*
X148535000Y-110621000D02*
X149226000Y-110621000D01*
X148880000Y-110621000D02*
X148880000Y-114015000D01*
X151075000Y-110621000D02*
X151766000Y-110621000D01*
X151420000Y-110621000D02*
X151420000Y-114015000D01*
X153381000Y-105380000D02*
X153381000Y-107220000D01*
X153615000Y-110621000D02*
X154306000Y-110621000D01*
X153960000Y-110621000D02*
X153960000Y-114015000D01*
X156155000Y-110621000D02*
X156846000Y-110621000D01*
X156500000Y-110621000D02*
X156500000Y-114015000D01*
X157080000Y-105380000D02*
X157080000Y-107220000D01*
X158695000Y-110621000D02*
X159386000Y-110621000D01*
X159040000Y-110621000D02*
X159040000Y-114015000D01*
X161235000Y-110621000D02*
X161926000Y-110621000D01*
X161580000Y-110621000D02*
X161580000Y-114015000D01*
X163775000Y-110621000D02*
X165450000Y-110621000D01*
X164120000Y-110621000D02*
X164120000Y-114015000D01*
X165450000Y-105380000D02*
X165450000Y-110621000D01*
%TO.C,D7*%
X126355000Y-119590000D02*
X126355000Y-122050000D01*
X127825000Y-119590000D02*
X126355000Y-119590000D01*
X127825000Y-122050000D02*
X127825000Y-119590000D01*
%TO.C,D4*%
X136182500Y-117330000D02*
X130672500Y-117330000D01*
X136182500Y-120630000D02*
X130672500Y-120630000D01*
X136182500Y-120630000D02*
X136182500Y-117330000D01*
%TO.C,R14*%
X102677500Y-115362742D02*
X102677500Y-115837258D01*
X103722500Y-115362742D02*
X103722500Y-115837258D01*
%TO.C,RV1*%
X132220000Y-126470000D02*
X132220000Y-134690000D01*
X135220000Y-134690000D02*
X135220000Y-143690000D01*
X137220000Y-143690000D02*
X137220000Y-159690000D01*
X143440000Y-143690000D02*
X137220000Y-143690000D01*
X143440000Y-143690000D02*
X143440000Y-159690000D01*
X143440000Y-159690000D02*
X137220000Y-159690000D01*
X145440000Y-134690000D02*
X135220000Y-134690000D01*
X145440000Y-134690000D02*
X145440000Y-143690000D01*
X145440000Y-143690000D02*
X135220000Y-143690000D01*
X148440000Y-126470000D02*
X132220000Y-126470000D01*
X148440000Y-126470000D02*
X148440000Y-134690000D01*
X148440000Y-134690000D02*
X132220000Y-134690000D01*
%TD*%
M02*
