%TF.GenerationSoftware,KiCad,Pcbnew,9.0.1*%
%TF.CreationDate,2025-06-20T00:57:13+09:00*%
%TF.ProjectId,NanoV3.3,4e616e6f-5633-42e3-932e-6b696361645f,rev?*%
%TF.SameCoordinates,Original*%
%TF.FileFunction,Legend,Bot*%
%TF.FilePolarity,Positive*%
%FSLAX46Y46*%
G04 Gerber Fmt 4.6, Leading zero omitted, Abs format (unit mm)*
G04 Created by KiCad (PCBNEW 9.0.1) date 2025-06-20 00:57:13*
%MOMM*%
%LPD*%
G01*
G04 APERTURE LIST*
%ADD10C,0.150000*%
%ADD11C,0.254000*%
%ADD12C,0.120000*%
%ADD13C,0.200000*%
G04 APERTURE END LIST*
D10*
X103319580Y-124433333D02*
X103367200Y-124385714D01*
X103367200Y-124385714D02*
X103414819Y-124242857D01*
X103414819Y-124242857D02*
X103414819Y-124147619D01*
X103414819Y-124147619D02*
X103367200Y-124004762D01*
X103367200Y-124004762D02*
X103271961Y-123909524D01*
X103271961Y-123909524D02*
X103176723Y-123861905D01*
X103176723Y-123861905D02*
X102986247Y-123814286D01*
X102986247Y-123814286D02*
X102843390Y-123814286D01*
X102843390Y-123814286D02*
X102652914Y-123861905D01*
X102652914Y-123861905D02*
X102557676Y-123909524D01*
X102557676Y-123909524D02*
X102462438Y-124004762D01*
X102462438Y-124004762D02*
X102414819Y-124147619D01*
X102414819Y-124147619D02*
X102414819Y-124242857D01*
X102414819Y-124242857D02*
X102462438Y-124385714D01*
X102462438Y-124385714D02*
X102510057Y-124433333D01*
X102748152Y-125290476D02*
X103414819Y-125290476D01*
X102367200Y-125052381D02*
X103081485Y-124814286D01*
X103081485Y-124814286D02*
X103081485Y-125433333D01*
X99676190Y-121528628D02*
X99676190Y-122004819D01*
X100009523Y-121004819D02*
X99676190Y-121528628D01*
X99676190Y-121528628D02*
X99342857Y-121004819D01*
X99104761Y-121004819D02*
X98485714Y-121004819D01*
X98485714Y-121004819D02*
X98819047Y-121385771D01*
X98819047Y-121385771D02*
X98676190Y-121385771D01*
X98676190Y-121385771D02*
X98580952Y-121433390D01*
X98580952Y-121433390D02*
X98533333Y-121481009D01*
X98533333Y-121481009D02*
X98485714Y-121576247D01*
X98485714Y-121576247D02*
X98485714Y-121814342D01*
X98485714Y-121814342D02*
X98533333Y-121909580D01*
X98533333Y-121909580D02*
X98580952Y-121957200D01*
X98580952Y-121957200D02*
X98676190Y-122004819D01*
X98676190Y-122004819D02*
X98961904Y-122004819D01*
X98961904Y-122004819D02*
X99057142Y-121957200D01*
X99057142Y-121957200D02*
X99104761Y-121909580D01*
X95954819Y-118785714D02*
X94954819Y-118785714D01*
X94954819Y-118785714D02*
X94954819Y-119023809D01*
X94954819Y-119023809D02*
X95002438Y-119166666D01*
X95002438Y-119166666D02*
X95097676Y-119261904D01*
X95097676Y-119261904D02*
X95192914Y-119309523D01*
X95192914Y-119309523D02*
X95383390Y-119357142D01*
X95383390Y-119357142D02*
X95526247Y-119357142D01*
X95526247Y-119357142D02*
X95716723Y-119309523D01*
X95716723Y-119309523D02*
X95811961Y-119261904D01*
X95811961Y-119261904D02*
X95907200Y-119166666D01*
X95907200Y-119166666D02*
X95954819Y-119023809D01*
X95954819Y-119023809D02*
X95954819Y-118785714D01*
X95954819Y-120309523D02*
X95954819Y-119738095D01*
X95954819Y-120023809D02*
X94954819Y-120023809D01*
X94954819Y-120023809D02*
X95097676Y-119928571D01*
X95097676Y-119928571D02*
X95192914Y-119833333D01*
X95192914Y-119833333D02*
X95240533Y-119738095D01*
X94954819Y-120928571D02*
X94954819Y-121023809D01*
X94954819Y-121023809D02*
X95002438Y-121119047D01*
X95002438Y-121119047D02*
X95050057Y-121166666D01*
X95050057Y-121166666D02*
X95145295Y-121214285D01*
X95145295Y-121214285D02*
X95335771Y-121261904D01*
X95335771Y-121261904D02*
X95573866Y-121261904D01*
X95573866Y-121261904D02*
X95764342Y-121214285D01*
X95764342Y-121214285D02*
X95859580Y-121166666D01*
X95859580Y-121166666D02*
X95907200Y-121119047D01*
X95907200Y-121119047D02*
X95954819Y-121023809D01*
X95954819Y-121023809D02*
X95954819Y-120928571D01*
X95954819Y-120928571D02*
X95907200Y-120833333D01*
X95907200Y-120833333D02*
X95859580Y-120785714D01*
X95859580Y-120785714D02*
X95764342Y-120738095D01*
X95764342Y-120738095D02*
X95573866Y-120690476D01*
X95573866Y-120690476D02*
X95335771Y-120690476D01*
X95335771Y-120690476D02*
X95145295Y-120738095D01*
X95145295Y-120738095D02*
X95050057Y-120785714D01*
X95050057Y-120785714D02*
X95002438Y-120833333D01*
X95002438Y-120833333D02*
X94954819Y-120928571D01*
X104842857Y-123529580D02*
X104890476Y-123577200D01*
X104890476Y-123577200D02*
X105033333Y-123624819D01*
X105033333Y-123624819D02*
X105128571Y-123624819D01*
X105128571Y-123624819D02*
X105271428Y-123577200D01*
X105271428Y-123577200D02*
X105366666Y-123481961D01*
X105366666Y-123481961D02*
X105414285Y-123386723D01*
X105414285Y-123386723D02*
X105461904Y-123196247D01*
X105461904Y-123196247D02*
X105461904Y-123053390D01*
X105461904Y-123053390D02*
X105414285Y-122862914D01*
X105414285Y-122862914D02*
X105366666Y-122767676D01*
X105366666Y-122767676D02*
X105271428Y-122672438D01*
X105271428Y-122672438D02*
X105128571Y-122624819D01*
X105128571Y-122624819D02*
X105033333Y-122624819D01*
X105033333Y-122624819D02*
X104890476Y-122672438D01*
X104890476Y-122672438D02*
X104842857Y-122720057D01*
X103890476Y-123624819D02*
X104461904Y-123624819D01*
X104176190Y-123624819D02*
X104176190Y-122624819D01*
X104176190Y-122624819D02*
X104271428Y-122767676D01*
X104271428Y-122767676D02*
X104366666Y-122862914D01*
X104366666Y-122862914D02*
X104461904Y-122910533D01*
X103033333Y-122958152D02*
X103033333Y-123624819D01*
X103271428Y-122577200D02*
X103509523Y-123291485D01*
X103509523Y-123291485D02*
X102890476Y-123291485D01*
X95699580Y-123057142D02*
X95747200Y-123009523D01*
X95747200Y-123009523D02*
X95794819Y-122866666D01*
X95794819Y-122866666D02*
X95794819Y-122771428D01*
X95794819Y-122771428D02*
X95747200Y-122628571D01*
X95747200Y-122628571D02*
X95651961Y-122533333D01*
X95651961Y-122533333D02*
X95556723Y-122485714D01*
X95556723Y-122485714D02*
X95366247Y-122438095D01*
X95366247Y-122438095D02*
X95223390Y-122438095D01*
X95223390Y-122438095D02*
X95032914Y-122485714D01*
X95032914Y-122485714D02*
X94937676Y-122533333D01*
X94937676Y-122533333D02*
X94842438Y-122628571D01*
X94842438Y-122628571D02*
X94794819Y-122771428D01*
X94794819Y-122771428D02*
X94794819Y-122866666D01*
X94794819Y-122866666D02*
X94842438Y-123009523D01*
X94842438Y-123009523D02*
X94890057Y-123057142D01*
X95794819Y-124009523D02*
X95794819Y-123438095D01*
X95794819Y-123723809D02*
X94794819Y-123723809D01*
X94794819Y-123723809D02*
X94937676Y-123628571D01*
X94937676Y-123628571D02*
X95032914Y-123533333D01*
X95032914Y-123533333D02*
X95080533Y-123438095D01*
X94794819Y-124342857D02*
X94794819Y-124961904D01*
X94794819Y-124961904D02*
X95175771Y-124628571D01*
X95175771Y-124628571D02*
X95175771Y-124771428D01*
X95175771Y-124771428D02*
X95223390Y-124866666D01*
X95223390Y-124866666D02*
X95271009Y-124914285D01*
X95271009Y-124914285D02*
X95366247Y-124961904D01*
X95366247Y-124961904D02*
X95604342Y-124961904D01*
X95604342Y-124961904D02*
X95699580Y-124914285D01*
X95699580Y-124914285D02*
X95747200Y-124866666D01*
X95747200Y-124866666D02*
X95794819Y-124771428D01*
X95794819Y-124771428D02*
X95794819Y-124485714D01*
X95794819Y-124485714D02*
X95747200Y-124390476D01*
X95747200Y-124390476D02*
X95699580Y-124342857D01*
X98716666Y-131004819D02*
X99049999Y-130528628D01*
X99288094Y-131004819D02*
X99288094Y-130004819D01*
X99288094Y-130004819D02*
X98907142Y-130004819D01*
X98907142Y-130004819D02*
X98811904Y-130052438D01*
X98811904Y-130052438D02*
X98764285Y-130100057D01*
X98764285Y-130100057D02*
X98716666Y-130195295D01*
X98716666Y-130195295D02*
X98716666Y-130338152D01*
X98716666Y-130338152D02*
X98764285Y-130433390D01*
X98764285Y-130433390D02*
X98811904Y-130481009D01*
X98811904Y-130481009D02*
X98907142Y-130528628D01*
X98907142Y-130528628D02*
X99288094Y-130528628D01*
X98383332Y-130004819D02*
X97764285Y-130004819D01*
X97764285Y-130004819D02*
X98097618Y-130385771D01*
X98097618Y-130385771D02*
X97954761Y-130385771D01*
X97954761Y-130385771D02*
X97859523Y-130433390D01*
X97859523Y-130433390D02*
X97811904Y-130481009D01*
X97811904Y-130481009D02*
X97764285Y-130576247D01*
X97764285Y-130576247D02*
X97764285Y-130814342D01*
X97764285Y-130814342D02*
X97811904Y-130909580D01*
X97811904Y-130909580D02*
X97859523Y-130957200D01*
X97859523Y-130957200D02*
X97954761Y-131004819D01*
X97954761Y-131004819D02*
X98240475Y-131004819D01*
X98240475Y-131004819D02*
X98335713Y-130957200D01*
X98335713Y-130957200D02*
X98383332Y-130909580D01*
X159627030Y-123859819D02*
X160103220Y-123859819D01*
X160103220Y-123859819D02*
X160103220Y-122859819D01*
X158817506Y-122859819D02*
X159293696Y-122859819D01*
X159293696Y-122859819D02*
X159341315Y-123336009D01*
X159341315Y-123336009D02*
X159293696Y-123288390D01*
X159293696Y-123288390D02*
X159198458Y-123240771D01*
X159198458Y-123240771D02*
X158960363Y-123240771D01*
X158960363Y-123240771D02*
X158865125Y-123288390D01*
X158865125Y-123288390D02*
X158817506Y-123336009D01*
X158817506Y-123336009D02*
X158769887Y-123431247D01*
X158769887Y-123431247D02*
X158769887Y-123669342D01*
X158769887Y-123669342D02*
X158817506Y-123764580D01*
X158817506Y-123764580D02*
X158865125Y-123812200D01*
X158865125Y-123812200D02*
X158960363Y-123859819D01*
X158960363Y-123859819D02*
X159198458Y-123859819D01*
X159198458Y-123859819D02*
X159293696Y-123812200D01*
X159293696Y-123812200D02*
X159341315Y-123764580D01*
X143380115Y-125254819D02*
X143713448Y-124778628D01*
X143951543Y-125254819D02*
X143951543Y-124254819D01*
X143951543Y-124254819D02*
X143570591Y-124254819D01*
X143570591Y-124254819D02*
X143475353Y-124302438D01*
X143475353Y-124302438D02*
X143427734Y-124350057D01*
X143427734Y-124350057D02*
X143380115Y-124445295D01*
X143380115Y-124445295D02*
X143380115Y-124588152D01*
X143380115Y-124588152D02*
X143427734Y-124683390D01*
X143427734Y-124683390D02*
X143475353Y-124731009D01*
X143475353Y-124731009D02*
X143570591Y-124778628D01*
X143570591Y-124778628D02*
X143951543Y-124778628D01*
X142427734Y-125254819D02*
X142999162Y-125254819D01*
X142713448Y-125254819D02*
X142713448Y-124254819D01*
X142713448Y-124254819D02*
X142808686Y-124397676D01*
X142808686Y-124397676D02*
X142903924Y-124492914D01*
X142903924Y-124492914D02*
X142999162Y-124540533D01*
X142046781Y-124350057D02*
X141999162Y-124302438D01*
X141999162Y-124302438D02*
X141903924Y-124254819D01*
X141903924Y-124254819D02*
X141665829Y-124254819D01*
X141665829Y-124254819D02*
X141570591Y-124302438D01*
X141570591Y-124302438D02*
X141522972Y-124350057D01*
X141522972Y-124350057D02*
X141475353Y-124445295D01*
X141475353Y-124445295D02*
X141475353Y-124540533D01*
X141475353Y-124540533D02*
X141522972Y-124683390D01*
X141522972Y-124683390D02*
X142094400Y-125254819D01*
X142094400Y-125254819D02*
X141475353Y-125254819D01*
X90742857Y-121459580D02*
X90790476Y-121507200D01*
X90790476Y-121507200D02*
X90933333Y-121554819D01*
X90933333Y-121554819D02*
X91028571Y-121554819D01*
X91028571Y-121554819D02*
X91171428Y-121507200D01*
X91171428Y-121507200D02*
X91266666Y-121411961D01*
X91266666Y-121411961D02*
X91314285Y-121316723D01*
X91314285Y-121316723D02*
X91361904Y-121126247D01*
X91361904Y-121126247D02*
X91361904Y-120983390D01*
X91361904Y-120983390D02*
X91314285Y-120792914D01*
X91314285Y-120792914D02*
X91266666Y-120697676D01*
X91266666Y-120697676D02*
X91171428Y-120602438D01*
X91171428Y-120602438D02*
X91028571Y-120554819D01*
X91028571Y-120554819D02*
X90933333Y-120554819D01*
X90933333Y-120554819D02*
X90790476Y-120602438D01*
X90790476Y-120602438D02*
X90742857Y-120650057D01*
X89790476Y-121554819D02*
X90361904Y-121554819D01*
X90076190Y-121554819D02*
X90076190Y-120554819D01*
X90076190Y-120554819D02*
X90171428Y-120697676D01*
X90171428Y-120697676D02*
X90266666Y-120792914D01*
X90266666Y-120792914D02*
X90361904Y-120840533D01*
X88838095Y-121554819D02*
X89409523Y-121554819D01*
X89123809Y-121554819D02*
X89123809Y-120554819D01*
X89123809Y-120554819D02*
X89219047Y-120697676D01*
X89219047Y-120697676D02*
X89314285Y-120792914D01*
X89314285Y-120792914D02*
X89409523Y-120840533D01*
X139127030Y-123829819D02*
X139603220Y-123829819D01*
X139603220Y-123829819D02*
X139603220Y-122829819D01*
X138365125Y-123163152D02*
X138365125Y-123829819D01*
X138603220Y-122782200D02*
X138841315Y-123496485D01*
X138841315Y-123496485D02*
X138222268Y-123496485D01*
X103916666Y-130909580D02*
X103964285Y-130957200D01*
X103964285Y-130957200D02*
X104107142Y-131004819D01*
X104107142Y-131004819D02*
X104202380Y-131004819D01*
X104202380Y-131004819D02*
X104345237Y-130957200D01*
X104345237Y-130957200D02*
X104440475Y-130861961D01*
X104440475Y-130861961D02*
X104488094Y-130766723D01*
X104488094Y-130766723D02*
X104535713Y-130576247D01*
X104535713Y-130576247D02*
X104535713Y-130433390D01*
X104535713Y-130433390D02*
X104488094Y-130242914D01*
X104488094Y-130242914D02*
X104440475Y-130147676D01*
X104440475Y-130147676D02*
X104345237Y-130052438D01*
X104345237Y-130052438D02*
X104202380Y-130004819D01*
X104202380Y-130004819D02*
X104107142Y-130004819D01*
X104107142Y-130004819D02*
X103964285Y-130052438D01*
X103964285Y-130052438D02*
X103916666Y-130100057D01*
X103345237Y-130433390D02*
X103440475Y-130385771D01*
X103440475Y-130385771D02*
X103488094Y-130338152D01*
X103488094Y-130338152D02*
X103535713Y-130242914D01*
X103535713Y-130242914D02*
X103535713Y-130195295D01*
X103535713Y-130195295D02*
X103488094Y-130100057D01*
X103488094Y-130100057D02*
X103440475Y-130052438D01*
X103440475Y-130052438D02*
X103345237Y-130004819D01*
X103345237Y-130004819D02*
X103154761Y-130004819D01*
X103154761Y-130004819D02*
X103059523Y-130052438D01*
X103059523Y-130052438D02*
X103011904Y-130100057D01*
X103011904Y-130100057D02*
X102964285Y-130195295D01*
X102964285Y-130195295D02*
X102964285Y-130242914D01*
X102964285Y-130242914D02*
X103011904Y-130338152D01*
X103011904Y-130338152D02*
X103059523Y-130385771D01*
X103059523Y-130385771D02*
X103154761Y-130433390D01*
X103154761Y-130433390D02*
X103345237Y-130433390D01*
X103345237Y-130433390D02*
X103440475Y-130481009D01*
X103440475Y-130481009D02*
X103488094Y-130528628D01*
X103488094Y-130528628D02*
X103535713Y-130623866D01*
X103535713Y-130623866D02*
X103535713Y-130814342D01*
X103535713Y-130814342D02*
X103488094Y-130909580D01*
X103488094Y-130909580D02*
X103440475Y-130957200D01*
X103440475Y-130957200D02*
X103345237Y-131004819D01*
X103345237Y-131004819D02*
X103154761Y-131004819D01*
X103154761Y-131004819D02*
X103059523Y-130957200D01*
X103059523Y-130957200D02*
X103011904Y-130909580D01*
X103011904Y-130909580D02*
X102964285Y-130814342D01*
X102964285Y-130814342D02*
X102964285Y-130623866D01*
X102964285Y-130623866D02*
X103011904Y-130528628D01*
X103011904Y-130528628D02*
X103059523Y-130481009D01*
X103059523Y-130481009D02*
X103154761Y-130433390D01*
X87842857Y-121759580D02*
X87890476Y-121807200D01*
X87890476Y-121807200D02*
X88033333Y-121854819D01*
X88033333Y-121854819D02*
X88128571Y-121854819D01*
X88128571Y-121854819D02*
X88271428Y-121807200D01*
X88271428Y-121807200D02*
X88366666Y-121711961D01*
X88366666Y-121711961D02*
X88414285Y-121616723D01*
X88414285Y-121616723D02*
X88461904Y-121426247D01*
X88461904Y-121426247D02*
X88461904Y-121283390D01*
X88461904Y-121283390D02*
X88414285Y-121092914D01*
X88414285Y-121092914D02*
X88366666Y-120997676D01*
X88366666Y-120997676D02*
X88271428Y-120902438D01*
X88271428Y-120902438D02*
X88128571Y-120854819D01*
X88128571Y-120854819D02*
X88033333Y-120854819D01*
X88033333Y-120854819D02*
X87890476Y-120902438D01*
X87890476Y-120902438D02*
X87842857Y-120950057D01*
X86890476Y-121854819D02*
X87461904Y-121854819D01*
X87176190Y-121854819D02*
X87176190Y-120854819D01*
X87176190Y-120854819D02*
X87271428Y-120997676D01*
X87271428Y-120997676D02*
X87366666Y-121092914D01*
X87366666Y-121092914D02*
X87461904Y-121140533D01*
X86271428Y-120854819D02*
X86176190Y-120854819D01*
X86176190Y-120854819D02*
X86080952Y-120902438D01*
X86080952Y-120902438D02*
X86033333Y-120950057D01*
X86033333Y-120950057D02*
X85985714Y-121045295D01*
X85985714Y-121045295D02*
X85938095Y-121235771D01*
X85938095Y-121235771D02*
X85938095Y-121473866D01*
X85938095Y-121473866D02*
X85985714Y-121664342D01*
X85985714Y-121664342D02*
X86033333Y-121759580D01*
X86033333Y-121759580D02*
X86080952Y-121807200D01*
X86080952Y-121807200D02*
X86176190Y-121854819D01*
X86176190Y-121854819D02*
X86271428Y-121854819D01*
X86271428Y-121854819D02*
X86366666Y-121807200D01*
X86366666Y-121807200D02*
X86414285Y-121759580D01*
X86414285Y-121759580D02*
X86461904Y-121664342D01*
X86461904Y-121664342D02*
X86509523Y-121473866D01*
X86509523Y-121473866D02*
X86509523Y-121235771D01*
X86509523Y-121235771D02*
X86461904Y-121045295D01*
X86461904Y-121045295D02*
X86414285Y-120950057D01*
X86414285Y-120950057D02*
X86366666Y-120902438D01*
X86366666Y-120902438D02*
X86271428Y-120854819D01*
X134766666Y-119359580D02*
X134814285Y-119407200D01*
X134814285Y-119407200D02*
X134957142Y-119454819D01*
X134957142Y-119454819D02*
X135052380Y-119454819D01*
X135052380Y-119454819D02*
X135195237Y-119407200D01*
X135195237Y-119407200D02*
X135290475Y-119311961D01*
X135290475Y-119311961D02*
X135338094Y-119216723D01*
X135338094Y-119216723D02*
X135385713Y-119026247D01*
X135385713Y-119026247D02*
X135385713Y-118883390D01*
X135385713Y-118883390D02*
X135338094Y-118692914D01*
X135338094Y-118692914D02*
X135290475Y-118597676D01*
X135290475Y-118597676D02*
X135195237Y-118502438D01*
X135195237Y-118502438D02*
X135052380Y-118454819D01*
X135052380Y-118454819D02*
X134957142Y-118454819D01*
X134957142Y-118454819D02*
X134814285Y-118502438D01*
X134814285Y-118502438D02*
X134766666Y-118550057D01*
X134385713Y-118550057D02*
X134338094Y-118502438D01*
X134338094Y-118502438D02*
X134242856Y-118454819D01*
X134242856Y-118454819D02*
X134004761Y-118454819D01*
X134004761Y-118454819D02*
X133909523Y-118502438D01*
X133909523Y-118502438D02*
X133861904Y-118550057D01*
X133861904Y-118550057D02*
X133814285Y-118645295D01*
X133814285Y-118645295D02*
X133814285Y-118740533D01*
X133814285Y-118740533D02*
X133861904Y-118883390D01*
X133861904Y-118883390D02*
X134433332Y-119454819D01*
X134433332Y-119454819D02*
X133814285Y-119454819D01*
X110826666Y-116754819D02*
X111159999Y-116278628D01*
X111398094Y-116754819D02*
X111398094Y-115754819D01*
X111398094Y-115754819D02*
X111017142Y-115754819D01*
X111017142Y-115754819D02*
X110921904Y-115802438D01*
X110921904Y-115802438D02*
X110874285Y-115850057D01*
X110874285Y-115850057D02*
X110826666Y-115945295D01*
X110826666Y-115945295D02*
X110826666Y-116088152D01*
X110826666Y-116088152D02*
X110874285Y-116183390D01*
X110874285Y-116183390D02*
X110921904Y-116231009D01*
X110921904Y-116231009D02*
X111017142Y-116278628D01*
X111017142Y-116278628D02*
X111398094Y-116278628D01*
X110445713Y-115850057D02*
X110398094Y-115802438D01*
X110398094Y-115802438D02*
X110302856Y-115754819D01*
X110302856Y-115754819D02*
X110064761Y-115754819D01*
X110064761Y-115754819D02*
X109969523Y-115802438D01*
X109969523Y-115802438D02*
X109921904Y-115850057D01*
X109921904Y-115850057D02*
X109874285Y-115945295D01*
X109874285Y-115945295D02*
X109874285Y-116040533D01*
X109874285Y-116040533D02*
X109921904Y-116183390D01*
X109921904Y-116183390D02*
X110493332Y-116754819D01*
X110493332Y-116754819D02*
X109874285Y-116754819D01*
D11*
X152120952Y-117495270D02*
X152241904Y-117434794D01*
X152241904Y-117434794D02*
X152362857Y-117313842D01*
X152362857Y-117313842D02*
X152544285Y-117132413D01*
X152544285Y-117132413D02*
X152665238Y-117071937D01*
X152665238Y-117071937D02*
X152786190Y-117071937D01*
X152725714Y-117374318D02*
X152846666Y-117313842D01*
X152846666Y-117313842D02*
X152967619Y-117192889D01*
X152967619Y-117192889D02*
X153028095Y-116950984D01*
X153028095Y-116950984D02*
X153028095Y-116527651D01*
X153028095Y-116527651D02*
X152967619Y-116285746D01*
X152967619Y-116285746D02*
X152846666Y-116164794D01*
X152846666Y-116164794D02*
X152725714Y-116104318D01*
X152725714Y-116104318D02*
X152483809Y-116104318D01*
X152483809Y-116104318D02*
X152362857Y-116164794D01*
X152362857Y-116164794D02*
X152241904Y-116285746D01*
X152241904Y-116285746D02*
X152181428Y-116527651D01*
X152181428Y-116527651D02*
X152181428Y-116950984D01*
X152181428Y-116950984D02*
X152241904Y-117192889D01*
X152241904Y-117192889D02*
X152362857Y-117313842D01*
X152362857Y-117313842D02*
X152483809Y-117374318D01*
X152483809Y-117374318D02*
X152725714Y-117374318D01*
X151576666Y-117374318D02*
X151334762Y-117374318D01*
X151334762Y-117374318D02*
X151213809Y-117313842D01*
X151213809Y-117313842D02*
X151153333Y-117253365D01*
X151153333Y-117253365D02*
X151032381Y-117071937D01*
X151032381Y-117071937D02*
X150971904Y-116830032D01*
X150971904Y-116830032D02*
X150971904Y-116346222D01*
X150971904Y-116346222D02*
X151032381Y-116225270D01*
X151032381Y-116225270D02*
X151092857Y-116164794D01*
X151092857Y-116164794D02*
X151213809Y-116104318D01*
X151213809Y-116104318D02*
X151455714Y-116104318D01*
X151455714Y-116104318D02*
X151576666Y-116164794D01*
X151576666Y-116164794D02*
X151637143Y-116225270D01*
X151637143Y-116225270D02*
X151697619Y-116346222D01*
X151697619Y-116346222D02*
X151697619Y-116648603D01*
X151697619Y-116648603D02*
X151637143Y-116769556D01*
X151637143Y-116769556D02*
X151576666Y-116830032D01*
X151576666Y-116830032D02*
X151455714Y-116890508D01*
X151455714Y-116890508D02*
X151213809Y-116890508D01*
X151213809Y-116890508D02*
X151092857Y-116830032D01*
X151092857Y-116830032D02*
X151032381Y-116769556D01*
X151032381Y-116769556D02*
X150971904Y-116648603D01*
X145267619Y-115404318D02*
X145267619Y-116432413D01*
X145267619Y-116432413D02*
X145207142Y-116553365D01*
X145207142Y-116553365D02*
X145146666Y-116613842D01*
X145146666Y-116613842D02*
X145025714Y-116674318D01*
X145025714Y-116674318D02*
X144783809Y-116674318D01*
X144783809Y-116674318D02*
X144662857Y-116613842D01*
X144662857Y-116613842D02*
X144602380Y-116553365D01*
X144602380Y-116553365D02*
X144541904Y-116432413D01*
X144541904Y-116432413D02*
X144541904Y-115404318D01*
X144058095Y-115404318D02*
X143211428Y-115404318D01*
X143211428Y-115404318D02*
X143755714Y-116674318D01*
D10*
X125424173Y-125722200D02*
X125281316Y-125769819D01*
X125281316Y-125769819D02*
X125043221Y-125769819D01*
X125043221Y-125769819D02*
X124947983Y-125722200D01*
X124947983Y-125722200D02*
X124900364Y-125674580D01*
X124900364Y-125674580D02*
X124852745Y-125579342D01*
X124852745Y-125579342D02*
X124852745Y-125484104D01*
X124852745Y-125484104D02*
X124900364Y-125388866D01*
X124900364Y-125388866D02*
X124947983Y-125341247D01*
X124947983Y-125341247D02*
X125043221Y-125293628D01*
X125043221Y-125293628D02*
X125233697Y-125246009D01*
X125233697Y-125246009D02*
X125328935Y-125198390D01*
X125328935Y-125198390D02*
X125376554Y-125150771D01*
X125376554Y-125150771D02*
X125424173Y-125055533D01*
X125424173Y-125055533D02*
X125424173Y-124960295D01*
X125424173Y-124960295D02*
X125376554Y-124865057D01*
X125376554Y-124865057D02*
X125328935Y-124817438D01*
X125328935Y-124817438D02*
X125233697Y-124769819D01*
X125233697Y-124769819D02*
X124995602Y-124769819D01*
X124995602Y-124769819D02*
X124852745Y-124817438D01*
X124519411Y-124769819D02*
X124281316Y-125769819D01*
X124281316Y-125769819D02*
X124090840Y-125055533D01*
X124090840Y-125055533D02*
X123900364Y-125769819D01*
X123900364Y-125769819D02*
X123662269Y-124769819D01*
X123376554Y-124769819D02*
X122757507Y-124769819D01*
X122757507Y-124769819D02*
X123090840Y-125150771D01*
X123090840Y-125150771D02*
X122947983Y-125150771D01*
X122947983Y-125150771D02*
X122852745Y-125198390D01*
X122852745Y-125198390D02*
X122805126Y-125246009D01*
X122805126Y-125246009D02*
X122757507Y-125341247D01*
X122757507Y-125341247D02*
X122757507Y-125579342D01*
X122757507Y-125579342D02*
X122805126Y-125674580D01*
X122805126Y-125674580D02*
X122852745Y-125722200D01*
X122852745Y-125722200D02*
X122947983Y-125769819D01*
X122947983Y-125769819D02*
X123233697Y-125769819D01*
X123233697Y-125769819D02*
X123328935Y-125722200D01*
X123328935Y-125722200D02*
X123376554Y-125674580D01*
X105866666Y-112159580D02*
X105914285Y-112207200D01*
X105914285Y-112207200D02*
X106057142Y-112254819D01*
X106057142Y-112254819D02*
X106152380Y-112254819D01*
X106152380Y-112254819D02*
X106295237Y-112207200D01*
X106295237Y-112207200D02*
X106390475Y-112111961D01*
X106390475Y-112111961D02*
X106438094Y-112016723D01*
X106438094Y-112016723D02*
X106485713Y-111826247D01*
X106485713Y-111826247D02*
X106485713Y-111683390D01*
X106485713Y-111683390D02*
X106438094Y-111492914D01*
X106438094Y-111492914D02*
X106390475Y-111397676D01*
X106390475Y-111397676D02*
X106295237Y-111302438D01*
X106295237Y-111302438D02*
X106152380Y-111254819D01*
X106152380Y-111254819D02*
X106057142Y-111254819D01*
X106057142Y-111254819D02*
X105914285Y-111302438D01*
X105914285Y-111302438D02*
X105866666Y-111350057D01*
X104961904Y-111254819D02*
X105438094Y-111254819D01*
X105438094Y-111254819D02*
X105485713Y-111731009D01*
X105485713Y-111731009D02*
X105438094Y-111683390D01*
X105438094Y-111683390D02*
X105342856Y-111635771D01*
X105342856Y-111635771D02*
X105104761Y-111635771D01*
X105104761Y-111635771D02*
X105009523Y-111683390D01*
X105009523Y-111683390D02*
X104961904Y-111731009D01*
X104961904Y-111731009D02*
X104914285Y-111826247D01*
X104914285Y-111826247D02*
X104914285Y-112064342D01*
X104914285Y-112064342D02*
X104961904Y-112159580D01*
X104961904Y-112159580D02*
X105009523Y-112207200D01*
X105009523Y-112207200D02*
X105104761Y-112254819D01*
X105104761Y-112254819D02*
X105342856Y-112254819D01*
X105342856Y-112254819D02*
X105438094Y-112207200D01*
X105438094Y-112207200D02*
X105485713Y-112159580D01*
X132566666Y-114359580D02*
X132614285Y-114407200D01*
X132614285Y-114407200D02*
X132757142Y-114454819D01*
X132757142Y-114454819D02*
X132852380Y-114454819D01*
X132852380Y-114454819D02*
X132995237Y-114407200D01*
X132995237Y-114407200D02*
X133090475Y-114311961D01*
X133090475Y-114311961D02*
X133138094Y-114216723D01*
X133138094Y-114216723D02*
X133185713Y-114026247D01*
X133185713Y-114026247D02*
X133185713Y-113883390D01*
X133185713Y-113883390D02*
X133138094Y-113692914D01*
X133138094Y-113692914D02*
X133090475Y-113597676D01*
X133090475Y-113597676D02*
X132995237Y-113502438D01*
X132995237Y-113502438D02*
X132852380Y-113454819D01*
X132852380Y-113454819D02*
X132757142Y-113454819D01*
X132757142Y-113454819D02*
X132614285Y-113502438D01*
X132614285Y-113502438D02*
X132566666Y-113550057D01*
X131614285Y-114454819D02*
X132185713Y-114454819D01*
X131899999Y-114454819D02*
X131899999Y-113454819D01*
X131899999Y-113454819D02*
X131995237Y-113597676D01*
X131995237Y-113597676D02*
X132090475Y-113692914D01*
X132090475Y-113692914D02*
X132185713Y-113740533D01*
X128442857Y-120454819D02*
X128776190Y-119978628D01*
X129014285Y-120454819D02*
X129014285Y-119454819D01*
X129014285Y-119454819D02*
X128633333Y-119454819D01*
X128633333Y-119454819D02*
X128538095Y-119502438D01*
X128538095Y-119502438D02*
X128490476Y-119550057D01*
X128490476Y-119550057D02*
X128442857Y-119645295D01*
X128442857Y-119645295D02*
X128442857Y-119788152D01*
X128442857Y-119788152D02*
X128490476Y-119883390D01*
X128490476Y-119883390D02*
X128538095Y-119931009D01*
X128538095Y-119931009D02*
X128633333Y-119978628D01*
X128633333Y-119978628D02*
X129014285Y-119978628D01*
X127490476Y-120454819D02*
X128061904Y-120454819D01*
X127776190Y-120454819D02*
X127776190Y-119454819D01*
X127776190Y-119454819D02*
X127871428Y-119597676D01*
X127871428Y-119597676D02*
X127966666Y-119692914D01*
X127966666Y-119692914D02*
X128061904Y-119740533D01*
X126538095Y-120454819D02*
X127109523Y-120454819D01*
X126823809Y-120454819D02*
X126823809Y-119454819D01*
X126823809Y-119454819D02*
X126919047Y-119597676D01*
X126919047Y-119597676D02*
X127014285Y-119692914D01*
X127014285Y-119692914D02*
X127109523Y-119740533D01*
X138914285Y-114554819D02*
X138914285Y-113554819D01*
X138914285Y-113554819D02*
X138676190Y-113554819D01*
X138676190Y-113554819D02*
X138533333Y-113602438D01*
X138533333Y-113602438D02*
X138438095Y-113697676D01*
X138438095Y-113697676D02*
X138390476Y-113792914D01*
X138390476Y-113792914D02*
X138342857Y-113983390D01*
X138342857Y-113983390D02*
X138342857Y-114126247D01*
X138342857Y-114126247D02*
X138390476Y-114316723D01*
X138390476Y-114316723D02*
X138438095Y-114411961D01*
X138438095Y-114411961D02*
X138533333Y-114507200D01*
X138533333Y-114507200D02*
X138676190Y-114554819D01*
X138676190Y-114554819D02*
X138914285Y-114554819D01*
X137961904Y-113650057D02*
X137914285Y-113602438D01*
X137914285Y-113602438D02*
X137819047Y-113554819D01*
X137819047Y-113554819D02*
X137580952Y-113554819D01*
X137580952Y-113554819D02*
X137485714Y-113602438D01*
X137485714Y-113602438D02*
X137438095Y-113650057D01*
X137438095Y-113650057D02*
X137390476Y-113745295D01*
X137390476Y-113745295D02*
X137390476Y-113840533D01*
X137390476Y-113840533D02*
X137438095Y-113983390D01*
X137438095Y-113983390D02*
X138009523Y-114554819D01*
X138009523Y-114554819D02*
X137390476Y-114554819D01*
X137009523Y-113650057D02*
X136961904Y-113602438D01*
X136961904Y-113602438D02*
X136866666Y-113554819D01*
X136866666Y-113554819D02*
X136628571Y-113554819D01*
X136628571Y-113554819D02*
X136533333Y-113602438D01*
X136533333Y-113602438D02*
X136485714Y-113650057D01*
X136485714Y-113650057D02*
X136438095Y-113745295D01*
X136438095Y-113745295D02*
X136438095Y-113840533D01*
X136438095Y-113840533D02*
X136485714Y-113983390D01*
X136485714Y-113983390D02*
X137057142Y-114554819D01*
X137057142Y-114554819D02*
X136438095Y-114554819D01*
X105916666Y-131009580D02*
X105964285Y-131057200D01*
X105964285Y-131057200D02*
X106107142Y-131104819D01*
X106107142Y-131104819D02*
X106202380Y-131104819D01*
X106202380Y-131104819D02*
X106345237Y-131057200D01*
X106345237Y-131057200D02*
X106440475Y-130961961D01*
X106440475Y-130961961D02*
X106488094Y-130866723D01*
X106488094Y-130866723D02*
X106535713Y-130676247D01*
X106535713Y-130676247D02*
X106535713Y-130533390D01*
X106535713Y-130533390D02*
X106488094Y-130342914D01*
X106488094Y-130342914D02*
X106440475Y-130247676D01*
X106440475Y-130247676D02*
X106345237Y-130152438D01*
X106345237Y-130152438D02*
X106202380Y-130104819D01*
X106202380Y-130104819D02*
X106107142Y-130104819D01*
X106107142Y-130104819D02*
X105964285Y-130152438D01*
X105964285Y-130152438D02*
X105916666Y-130200057D01*
X105440475Y-131104819D02*
X105249999Y-131104819D01*
X105249999Y-131104819D02*
X105154761Y-131057200D01*
X105154761Y-131057200D02*
X105107142Y-131009580D01*
X105107142Y-131009580D02*
X105011904Y-130866723D01*
X105011904Y-130866723D02*
X104964285Y-130676247D01*
X104964285Y-130676247D02*
X104964285Y-130295295D01*
X104964285Y-130295295D02*
X105011904Y-130200057D01*
X105011904Y-130200057D02*
X105059523Y-130152438D01*
X105059523Y-130152438D02*
X105154761Y-130104819D01*
X105154761Y-130104819D02*
X105345237Y-130104819D01*
X105345237Y-130104819D02*
X105440475Y-130152438D01*
X105440475Y-130152438D02*
X105488094Y-130200057D01*
X105488094Y-130200057D02*
X105535713Y-130295295D01*
X105535713Y-130295295D02*
X105535713Y-130533390D01*
X105535713Y-130533390D02*
X105488094Y-130628628D01*
X105488094Y-130628628D02*
X105440475Y-130676247D01*
X105440475Y-130676247D02*
X105345237Y-130723866D01*
X105345237Y-130723866D02*
X105154761Y-130723866D01*
X105154761Y-130723866D02*
X105059523Y-130676247D01*
X105059523Y-130676247D02*
X105011904Y-130628628D01*
X105011904Y-130628628D02*
X104964285Y-130533390D01*
X99761904Y-113854819D02*
X99761904Y-114664342D01*
X99761904Y-114664342D02*
X99714285Y-114759580D01*
X99714285Y-114759580D02*
X99666666Y-114807200D01*
X99666666Y-114807200D02*
X99571428Y-114854819D01*
X99571428Y-114854819D02*
X99380952Y-114854819D01*
X99380952Y-114854819D02*
X99285714Y-114807200D01*
X99285714Y-114807200D02*
X99238095Y-114759580D01*
X99238095Y-114759580D02*
X99190476Y-114664342D01*
X99190476Y-114664342D02*
X99190476Y-113854819D01*
X98238095Y-113854819D02*
X98714285Y-113854819D01*
X98714285Y-113854819D02*
X98761904Y-114331009D01*
X98761904Y-114331009D02*
X98714285Y-114283390D01*
X98714285Y-114283390D02*
X98619047Y-114235771D01*
X98619047Y-114235771D02*
X98380952Y-114235771D01*
X98380952Y-114235771D02*
X98285714Y-114283390D01*
X98285714Y-114283390D02*
X98238095Y-114331009D01*
X98238095Y-114331009D02*
X98190476Y-114426247D01*
X98190476Y-114426247D02*
X98190476Y-114664342D01*
X98190476Y-114664342D02*
X98238095Y-114759580D01*
X98238095Y-114759580D02*
X98285714Y-114807200D01*
X98285714Y-114807200D02*
X98380952Y-114854819D01*
X98380952Y-114854819D02*
X98619047Y-114854819D01*
X98619047Y-114854819D02*
X98714285Y-114807200D01*
X98714285Y-114807200D02*
X98761904Y-114759580D01*
X151802857Y-123014819D02*
X152136190Y-122538628D01*
X152374285Y-123014819D02*
X152374285Y-122014819D01*
X152374285Y-122014819D02*
X151993333Y-122014819D01*
X151993333Y-122014819D02*
X151898095Y-122062438D01*
X151898095Y-122062438D02*
X151850476Y-122110057D01*
X151850476Y-122110057D02*
X151802857Y-122205295D01*
X151802857Y-122205295D02*
X151802857Y-122348152D01*
X151802857Y-122348152D02*
X151850476Y-122443390D01*
X151850476Y-122443390D02*
X151898095Y-122491009D01*
X151898095Y-122491009D02*
X151993333Y-122538628D01*
X151993333Y-122538628D02*
X152374285Y-122538628D01*
X151469523Y-122014819D02*
X150850476Y-122014819D01*
X150850476Y-122014819D02*
X151183809Y-122395771D01*
X151183809Y-122395771D02*
X151040952Y-122395771D01*
X151040952Y-122395771D02*
X150945714Y-122443390D01*
X150945714Y-122443390D02*
X150898095Y-122491009D01*
X150898095Y-122491009D02*
X150850476Y-122586247D01*
X150850476Y-122586247D02*
X150850476Y-122824342D01*
X150850476Y-122824342D02*
X150898095Y-122919580D01*
X150898095Y-122919580D02*
X150945714Y-122967200D01*
X150945714Y-122967200D02*
X151040952Y-123014819D01*
X151040952Y-123014819D02*
X151326666Y-123014819D01*
X151326666Y-123014819D02*
X151421904Y-122967200D01*
X151421904Y-122967200D02*
X151469523Y-122919580D01*
X149993333Y-122014819D02*
X150183809Y-122014819D01*
X150183809Y-122014819D02*
X150279047Y-122062438D01*
X150279047Y-122062438D02*
X150326666Y-122110057D01*
X150326666Y-122110057D02*
X150421904Y-122252914D01*
X150421904Y-122252914D02*
X150469523Y-122443390D01*
X150469523Y-122443390D02*
X150469523Y-122824342D01*
X150469523Y-122824342D02*
X150421904Y-122919580D01*
X150421904Y-122919580D02*
X150374285Y-122967200D01*
X150374285Y-122967200D02*
X150279047Y-123014819D01*
X150279047Y-123014819D02*
X150088571Y-123014819D01*
X150088571Y-123014819D02*
X149993333Y-122967200D01*
X149993333Y-122967200D02*
X149945714Y-122919580D01*
X149945714Y-122919580D02*
X149898095Y-122824342D01*
X149898095Y-122824342D02*
X149898095Y-122586247D01*
X149898095Y-122586247D02*
X149945714Y-122491009D01*
X149945714Y-122491009D02*
X149993333Y-122443390D01*
X149993333Y-122443390D02*
X150088571Y-122395771D01*
X150088571Y-122395771D02*
X150279047Y-122395771D01*
X150279047Y-122395771D02*
X150374285Y-122443390D01*
X150374285Y-122443390D02*
X150421904Y-122491009D01*
X150421904Y-122491009D02*
X150469523Y-122586247D01*
X157554285Y-117254819D02*
X157554285Y-116254819D01*
X157554285Y-116254819D02*
X157316190Y-116254819D01*
X157316190Y-116254819D02*
X157173333Y-116302438D01*
X157173333Y-116302438D02*
X157078095Y-116397676D01*
X157078095Y-116397676D02*
X157030476Y-116492914D01*
X157030476Y-116492914D02*
X156982857Y-116683390D01*
X156982857Y-116683390D02*
X156982857Y-116826247D01*
X156982857Y-116826247D02*
X157030476Y-117016723D01*
X157030476Y-117016723D02*
X157078095Y-117111961D01*
X157078095Y-117111961D02*
X157173333Y-117207200D01*
X157173333Y-117207200D02*
X157316190Y-117254819D01*
X157316190Y-117254819D02*
X157554285Y-117254819D01*
X156601904Y-116350057D02*
X156554285Y-116302438D01*
X156554285Y-116302438D02*
X156459047Y-116254819D01*
X156459047Y-116254819D02*
X156220952Y-116254819D01*
X156220952Y-116254819D02*
X156125714Y-116302438D01*
X156125714Y-116302438D02*
X156078095Y-116350057D01*
X156078095Y-116350057D02*
X156030476Y-116445295D01*
X156030476Y-116445295D02*
X156030476Y-116540533D01*
X156030476Y-116540533D02*
X156078095Y-116683390D01*
X156078095Y-116683390D02*
X156649523Y-117254819D01*
X156649523Y-117254819D02*
X156030476Y-117254819D01*
X155078095Y-117254819D02*
X155649523Y-117254819D01*
X155363809Y-117254819D02*
X155363809Y-116254819D01*
X155363809Y-116254819D02*
X155459047Y-116397676D01*
X155459047Y-116397676D02*
X155554285Y-116492914D01*
X155554285Y-116492914D02*
X155649523Y-116540533D01*
X138642857Y-121054819D02*
X138976190Y-120578628D01*
X139214285Y-121054819D02*
X139214285Y-120054819D01*
X139214285Y-120054819D02*
X138833333Y-120054819D01*
X138833333Y-120054819D02*
X138738095Y-120102438D01*
X138738095Y-120102438D02*
X138690476Y-120150057D01*
X138690476Y-120150057D02*
X138642857Y-120245295D01*
X138642857Y-120245295D02*
X138642857Y-120388152D01*
X138642857Y-120388152D02*
X138690476Y-120483390D01*
X138690476Y-120483390D02*
X138738095Y-120531009D01*
X138738095Y-120531009D02*
X138833333Y-120578628D01*
X138833333Y-120578628D02*
X139214285Y-120578628D01*
X138309523Y-120054819D02*
X137690476Y-120054819D01*
X137690476Y-120054819D02*
X138023809Y-120435771D01*
X138023809Y-120435771D02*
X137880952Y-120435771D01*
X137880952Y-120435771D02*
X137785714Y-120483390D01*
X137785714Y-120483390D02*
X137738095Y-120531009D01*
X137738095Y-120531009D02*
X137690476Y-120626247D01*
X137690476Y-120626247D02*
X137690476Y-120864342D01*
X137690476Y-120864342D02*
X137738095Y-120959580D01*
X137738095Y-120959580D02*
X137785714Y-121007200D01*
X137785714Y-121007200D02*
X137880952Y-121054819D01*
X137880952Y-121054819D02*
X138166666Y-121054819D01*
X138166666Y-121054819D02*
X138261904Y-121007200D01*
X138261904Y-121007200D02*
X138309523Y-120959580D01*
X136785714Y-120054819D02*
X137261904Y-120054819D01*
X137261904Y-120054819D02*
X137309523Y-120531009D01*
X137309523Y-120531009D02*
X137261904Y-120483390D01*
X137261904Y-120483390D02*
X137166666Y-120435771D01*
X137166666Y-120435771D02*
X136928571Y-120435771D01*
X136928571Y-120435771D02*
X136833333Y-120483390D01*
X136833333Y-120483390D02*
X136785714Y-120531009D01*
X136785714Y-120531009D02*
X136738095Y-120626247D01*
X136738095Y-120626247D02*
X136738095Y-120864342D01*
X136738095Y-120864342D02*
X136785714Y-120959580D01*
X136785714Y-120959580D02*
X136833333Y-121007200D01*
X136833333Y-121007200D02*
X136928571Y-121054819D01*
X136928571Y-121054819D02*
X137166666Y-121054819D01*
X137166666Y-121054819D02*
X137261904Y-121007200D01*
X137261904Y-121007200D02*
X137309523Y-120959580D01*
X126187030Y-123439819D02*
X126663220Y-123439819D01*
X126663220Y-123439819D02*
X126663220Y-122439819D01*
X125948934Y-122439819D02*
X125329887Y-122439819D01*
X125329887Y-122439819D02*
X125663220Y-122820771D01*
X125663220Y-122820771D02*
X125520363Y-122820771D01*
X125520363Y-122820771D02*
X125425125Y-122868390D01*
X125425125Y-122868390D02*
X125377506Y-122916009D01*
X125377506Y-122916009D02*
X125329887Y-123011247D01*
X125329887Y-123011247D02*
X125329887Y-123249342D01*
X125329887Y-123249342D02*
X125377506Y-123344580D01*
X125377506Y-123344580D02*
X125425125Y-123392200D01*
X125425125Y-123392200D02*
X125520363Y-123439819D01*
X125520363Y-123439819D02*
X125806077Y-123439819D01*
X125806077Y-123439819D02*
X125901315Y-123392200D01*
X125901315Y-123392200D02*
X125948934Y-123344580D01*
X101927857Y-131047080D02*
X101975476Y-131094700D01*
X101975476Y-131094700D02*
X102118333Y-131142319D01*
X102118333Y-131142319D02*
X102213571Y-131142319D01*
X102213571Y-131142319D02*
X102356428Y-131094700D01*
X102356428Y-131094700D02*
X102451666Y-130999461D01*
X102451666Y-130999461D02*
X102499285Y-130904223D01*
X102499285Y-130904223D02*
X102546904Y-130713747D01*
X102546904Y-130713747D02*
X102546904Y-130570890D01*
X102546904Y-130570890D02*
X102499285Y-130380414D01*
X102499285Y-130380414D02*
X102451666Y-130285176D01*
X102451666Y-130285176D02*
X102356428Y-130189938D01*
X102356428Y-130189938D02*
X102213571Y-130142319D01*
X102213571Y-130142319D02*
X102118333Y-130142319D01*
X102118333Y-130142319D02*
X101975476Y-130189938D01*
X101975476Y-130189938D02*
X101927857Y-130237557D01*
X100975476Y-131142319D02*
X101546904Y-131142319D01*
X101261190Y-131142319D02*
X101261190Y-130142319D01*
X101261190Y-130142319D02*
X101356428Y-130285176D01*
X101356428Y-130285176D02*
X101451666Y-130380414D01*
X101451666Y-130380414D02*
X101546904Y-130428033D01*
X100594523Y-130237557D02*
X100546904Y-130189938D01*
X100546904Y-130189938D02*
X100451666Y-130142319D01*
X100451666Y-130142319D02*
X100213571Y-130142319D01*
X100213571Y-130142319D02*
X100118333Y-130189938D01*
X100118333Y-130189938D02*
X100070714Y-130237557D01*
X100070714Y-130237557D02*
X100023095Y-130332795D01*
X100023095Y-130332795D02*
X100023095Y-130428033D01*
X100023095Y-130428033D02*
X100070714Y-130570890D01*
X100070714Y-130570890D02*
X100642142Y-131142319D01*
X100642142Y-131142319D02*
X100023095Y-131142319D01*
X120090839Y-125662200D02*
X119947982Y-125709819D01*
X119947982Y-125709819D02*
X119709887Y-125709819D01*
X119709887Y-125709819D02*
X119614649Y-125662200D01*
X119614649Y-125662200D02*
X119567030Y-125614580D01*
X119567030Y-125614580D02*
X119519411Y-125519342D01*
X119519411Y-125519342D02*
X119519411Y-125424104D01*
X119519411Y-125424104D02*
X119567030Y-125328866D01*
X119567030Y-125328866D02*
X119614649Y-125281247D01*
X119614649Y-125281247D02*
X119709887Y-125233628D01*
X119709887Y-125233628D02*
X119900363Y-125186009D01*
X119900363Y-125186009D02*
X119995601Y-125138390D01*
X119995601Y-125138390D02*
X120043220Y-125090771D01*
X120043220Y-125090771D02*
X120090839Y-124995533D01*
X120090839Y-124995533D02*
X120090839Y-124900295D01*
X120090839Y-124900295D02*
X120043220Y-124805057D01*
X120043220Y-124805057D02*
X119995601Y-124757438D01*
X119995601Y-124757438D02*
X119900363Y-124709819D01*
X119900363Y-124709819D02*
X119662268Y-124709819D01*
X119662268Y-124709819D02*
X119519411Y-124757438D01*
X119186077Y-124709819D02*
X118947982Y-125709819D01*
X118947982Y-125709819D02*
X118757506Y-124995533D01*
X118757506Y-124995533D02*
X118567030Y-125709819D01*
X118567030Y-125709819D02*
X118328935Y-124709819D01*
X117995601Y-124805057D02*
X117947982Y-124757438D01*
X117947982Y-124757438D02*
X117852744Y-124709819D01*
X117852744Y-124709819D02*
X117614649Y-124709819D01*
X117614649Y-124709819D02*
X117519411Y-124757438D01*
X117519411Y-124757438D02*
X117471792Y-124805057D01*
X117471792Y-124805057D02*
X117424173Y-124900295D01*
X117424173Y-124900295D02*
X117424173Y-124995533D01*
X117424173Y-124995533D02*
X117471792Y-125138390D01*
X117471792Y-125138390D02*
X118043220Y-125709819D01*
X118043220Y-125709819D02*
X117424173Y-125709819D01*
X115642857Y-120274819D02*
X115976190Y-119798628D01*
X116214285Y-120274819D02*
X116214285Y-119274819D01*
X116214285Y-119274819D02*
X115833333Y-119274819D01*
X115833333Y-119274819D02*
X115738095Y-119322438D01*
X115738095Y-119322438D02*
X115690476Y-119370057D01*
X115690476Y-119370057D02*
X115642857Y-119465295D01*
X115642857Y-119465295D02*
X115642857Y-119608152D01*
X115642857Y-119608152D02*
X115690476Y-119703390D01*
X115690476Y-119703390D02*
X115738095Y-119751009D01*
X115738095Y-119751009D02*
X115833333Y-119798628D01*
X115833333Y-119798628D02*
X116214285Y-119798628D01*
X114690476Y-120274819D02*
X115261904Y-120274819D01*
X114976190Y-120274819D02*
X114976190Y-119274819D01*
X114976190Y-119274819D02*
X115071428Y-119417676D01*
X115071428Y-119417676D02*
X115166666Y-119512914D01*
X115166666Y-119512914D02*
X115261904Y-119560533D01*
X114071428Y-119274819D02*
X113976190Y-119274819D01*
X113976190Y-119274819D02*
X113880952Y-119322438D01*
X113880952Y-119322438D02*
X113833333Y-119370057D01*
X113833333Y-119370057D02*
X113785714Y-119465295D01*
X113785714Y-119465295D02*
X113738095Y-119655771D01*
X113738095Y-119655771D02*
X113738095Y-119893866D01*
X113738095Y-119893866D02*
X113785714Y-120084342D01*
X113785714Y-120084342D02*
X113833333Y-120179580D01*
X113833333Y-120179580D02*
X113880952Y-120227200D01*
X113880952Y-120227200D02*
X113976190Y-120274819D01*
X113976190Y-120274819D02*
X114071428Y-120274819D01*
X114071428Y-120274819D02*
X114166666Y-120227200D01*
X114166666Y-120227200D02*
X114214285Y-120179580D01*
X114214285Y-120179580D02*
X114261904Y-120084342D01*
X114261904Y-120084342D02*
X114309523Y-119893866D01*
X114309523Y-119893866D02*
X114309523Y-119655771D01*
X114309523Y-119655771D02*
X114261904Y-119465295D01*
X114261904Y-119465295D02*
X114214285Y-119370057D01*
X114214285Y-119370057D02*
X114166666Y-119322438D01*
X114166666Y-119322438D02*
X114071428Y-119274819D01*
X138907505Y-125862200D02*
X138764648Y-125909819D01*
X138764648Y-125909819D02*
X138526553Y-125909819D01*
X138526553Y-125909819D02*
X138431315Y-125862200D01*
X138431315Y-125862200D02*
X138383696Y-125814580D01*
X138383696Y-125814580D02*
X138336077Y-125719342D01*
X138336077Y-125719342D02*
X138336077Y-125624104D01*
X138336077Y-125624104D02*
X138383696Y-125528866D01*
X138383696Y-125528866D02*
X138431315Y-125481247D01*
X138431315Y-125481247D02*
X138526553Y-125433628D01*
X138526553Y-125433628D02*
X138717029Y-125386009D01*
X138717029Y-125386009D02*
X138812267Y-125338390D01*
X138812267Y-125338390D02*
X138859886Y-125290771D01*
X138859886Y-125290771D02*
X138907505Y-125195533D01*
X138907505Y-125195533D02*
X138907505Y-125100295D01*
X138907505Y-125100295D02*
X138859886Y-125005057D01*
X138859886Y-125005057D02*
X138812267Y-124957438D01*
X138812267Y-124957438D02*
X138717029Y-124909819D01*
X138717029Y-124909819D02*
X138478934Y-124909819D01*
X138478934Y-124909819D02*
X138336077Y-124957438D01*
X138002743Y-124909819D02*
X137764648Y-125909819D01*
X137764648Y-125909819D02*
X137574172Y-125195533D01*
X137574172Y-125195533D02*
X137383696Y-125909819D01*
X137383696Y-125909819D02*
X137145601Y-124909819D01*
X136336077Y-125243152D02*
X136336077Y-125909819D01*
X136574172Y-124862200D02*
X136812267Y-125576485D01*
X136812267Y-125576485D02*
X136193220Y-125576485D01*
X129161904Y-112254819D02*
X129161904Y-113064342D01*
X129161904Y-113064342D02*
X129114285Y-113159580D01*
X129114285Y-113159580D02*
X129066666Y-113207200D01*
X129066666Y-113207200D02*
X128971428Y-113254819D01*
X128971428Y-113254819D02*
X128780952Y-113254819D01*
X128780952Y-113254819D02*
X128685714Y-113207200D01*
X128685714Y-113207200D02*
X128638095Y-113159580D01*
X128638095Y-113159580D02*
X128590476Y-113064342D01*
X128590476Y-113064342D02*
X128590476Y-112254819D01*
X127590476Y-113254819D02*
X128161904Y-113254819D01*
X127876190Y-113254819D02*
X127876190Y-112254819D01*
X127876190Y-112254819D02*
X127971428Y-112397676D01*
X127971428Y-112397676D02*
X128066666Y-112492914D01*
X128066666Y-112492914D02*
X128161904Y-112540533D01*
X110896666Y-119874819D02*
X111229999Y-119398628D01*
X111468094Y-119874819D02*
X111468094Y-118874819D01*
X111468094Y-118874819D02*
X111087142Y-118874819D01*
X111087142Y-118874819D02*
X110991904Y-118922438D01*
X110991904Y-118922438D02*
X110944285Y-118970057D01*
X110944285Y-118970057D02*
X110896666Y-119065295D01*
X110896666Y-119065295D02*
X110896666Y-119208152D01*
X110896666Y-119208152D02*
X110944285Y-119303390D01*
X110944285Y-119303390D02*
X110991904Y-119351009D01*
X110991904Y-119351009D02*
X111087142Y-119398628D01*
X111087142Y-119398628D02*
X111468094Y-119398628D01*
X110420475Y-119874819D02*
X110229999Y-119874819D01*
X110229999Y-119874819D02*
X110134761Y-119827200D01*
X110134761Y-119827200D02*
X110087142Y-119779580D01*
X110087142Y-119779580D02*
X109991904Y-119636723D01*
X109991904Y-119636723D02*
X109944285Y-119446247D01*
X109944285Y-119446247D02*
X109944285Y-119065295D01*
X109944285Y-119065295D02*
X109991904Y-118970057D01*
X109991904Y-118970057D02*
X110039523Y-118922438D01*
X110039523Y-118922438D02*
X110134761Y-118874819D01*
X110134761Y-118874819D02*
X110325237Y-118874819D01*
X110325237Y-118874819D02*
X110420475Y-118922438D01*
X110420475Y-118922438D02*
X110468094Y-118970057D01*
X110468094Y-118970057D02*
X110515713Y-119065295D01*
X110515713Y-119065295D02*
X110515713Y-119303390D01*
X110515713Y-119303390D02*
X110468094Y-119398628D01*
X110468094Y-119398628D02*
X110420475Y-119446247D01*
X110420475Y-119446247D02*
X110325237Y-119493866D01*
X110325237Y-119493866D02*
X110134761Y-119493866D01*
X110134761Y-119493866D02*
X110039523Y-119446247D01*
X110039523Y-119446247D02*
X109991904Y-119398628D01*
X109991904Y-119398628D02*
X109944285Y-119303390D01*
X162240839Y-125822200D02*
X162097982Y-125869819D01*
X162097982Y-125869819D02*
X161859887Y-125869819D01*
X161859887Y-125869819D02*
X161764649Y-125822200D01*
X161764649Y-125822200D02*
X161717030Y-125774580D01*
X161717030Y-125774580D02*
X161669411Y-125679342D01*
X161669411Y-125679342D02*
X161669411Y-125584104D01*
X161669411Y-125584104D02*
X161717030Y-125488866D01*
X161717030Y-125488866D02*
X161764649Y-125441247D01*
X161764649Y-125441247D02*
X161859887Y-125393628D01*
X161859887Y-125393628D02*
X162050363Y-125346009D01*
X162050363Y-125346009D02*
X162145601Y-125298390D01*
X162145601Y-125298390D02*
X162193220Y-125250771D01*
X162193220Y-125250771D02*
X162240839Y-125155533D01*
X162240839Y-125155533D02*
X162240839Y-125060295D01*
X162240839Y-125060295D02*
X162193220Y-124965057D01*
X162193220Y-124965057D02*
X162145601Y-124917438D01*
X162145601Y-124917438D02*
X162050363Y-124869819D01*
X162050363Y-124869819D02*
X161812268Y-124869819D01*
X161812268Y-124869819D02*
X161669411Y-124917438D01*
X161336077Y-124869819D02*
X161097982Y-125869819D01*
X161097982Y-125869819D02*
X160907506Y-125155533D01*
X160907506Y-125155533D02*
X160717030Y-125869819D01*
X160717030Y-125869819D02*
X160478935Y-124869819D01*
X159621792Y-124869819D02*
X160097982Y-124869819D01*
X160097982Y-124869819D02*
X160145601Y-125346009D01*
X160145601Y-125346009D02*
X160097982Y-125298390D01*
X160097982Y-125298390D02*
X160002744Y-125250771D01*
X160002744Y-125250771D02*
X159764649Y-125250771D01*
X159764649Y-125250771D02*
X159669411Y-125298390D01*
X159669411Y-125298390D02*
X159621792Y-125346009D01*
X159621792Y-125346009D02*
X159574173Y-125441247D01*
X159574173Y-125441247D02*
X159574173Y-125679342D01*
X159574173Y-125679342D02*
X159621792Y-125774580D01*
X159621792Y-125774580D02*
X159669411Y-125822200D01*
X159669411Y-125822200D02*
X159764649Y-125869819D01*
X159764649Y-125869819D02*
X160002744Y-125869819D01*
X160002744Y-125869819D02*
X160097982Y-125822200D01*
X160097982Y-125822200D02*
X160145601Y-125774580D01*
X87866666Y-116454819D02*
X88342856Y-116454819D01*
X88342856Y-116454819D02*
X88342856Y-115454819D01*
X87009523Y-116454819D02*
X87580951Y-116454819D01*
X87295237Y-116454819D02*
X87295237Y-115454819D01*
X87295237Y-115454819D02*
X87390475Y-115597676D01*
X87390475Y-115597676D02*
X87485713Y-115692914D01*
X87485713Y-115692914D02*
X87580951Y-115740533D01*
X154842857Y-122854819D02*
X155176190Y-122378628D01*
X155414285Y-122854819D02*
X155414285Y-121854819D01*
X155414285Y-121854819D02*
X155033333Y-121854819D01*
X155033333Y-121854819D02*
X154938095Y-121902438D01*
X154938095Y-121902438D02*
X154890476Y-121950057D01*
X154890476Y-121950057D02*
X154842857Y-122045295D01*
X154842857Y-122045295D02*
X154842857Y-122188152D01*
X154842857Y-122188152D02*
X154890476Y-122283390D01*
X154890476Y-122283390D02*
X154938095Y-122331009D01*
X154938095Y-122331009D02*
X155033333Y-122378628D01*
X155033333Y-122378628D02*
X155414285Y-122378628D01*
X153890476Y-122854819D02*
X154461904Y-122854819D01*
X154176190Y-122854819D02*
X154176190Y-121854819D01*
X154176190Y-121854819D02*
X154271428Y-121997676D01*
X154271428Y-121997676D02*
X154366666Y-122092914D01*
X154366666Y-122092914D02*
X154461904Y-122140533D01*
X153557142Y-121854819D02*
X152938095Y-121854819D01*
X152938095Y-121854819D02*
X153271428Y-122235771D01*
X153271428Y-122235771D02*
X153128571Y-122235771D01*
X153128571Y-122235771D02*
X153033333Y-122283390D01*
X153033333Y-122283390D02*
X152985714Y-122331009D01*
X152985714Y-122331009D02*
X152938095Y-122426247D01*
X152938095Y-122426247D02*
X152938095Y-122664342D01*
X152938095Y-122664342D02*
X152985714Y-122759580D01*
X152985714Y-122759580D02*
X153033333Y-122807200D01*
X153033333Y-122807200D02*
X153128571Y-122854819D01*
X153128571Y-122854819D02*
X153414285Y-122854819D01*
X153414285Y-122854819D02*
X153509523Y-122807200D01*
X153509523Y-122807200D02*
X153557142Y-122759580D01*
X117857030Y-122969819D02*
X118333220Y-122969819D01*
X118333220Y-122969819D02*
X118333220Y-121969819D01*
X117571315Y-122065057D02*
X117523696Y-122017438D01*
X117523696Y-122017438D02*
X117428458Y-121969819D01*
X117428458Y-121969819D02*
X117190363Y-121969819D01*
X117190363Y-121969819D02*
X117095125Y-122017438D01*
X117095125Y-122017438D02*
X117047506Y-122065057D01*
X117047506Y-122065057D02*
X116999887Y-122160295D01*
X116999887Y-122160295D02*
X116999887Y-122255533D01*
X116999887Y-122255533D02*
X117047506Y-122398390D01*
X117047506Y-122398390D02*
X117618934Y-122969819D01*
X117618934Y-122969819D02*
X116999887Y-122969819D01*
X89651904Y-127674819D02*
X89651904Y-128484342D01*
X89651904Y-128484342D02*
X89604285Y-128579580D01*
X89604285Y-128579580D02*
X89556666Y-128627200D01*
X89556666Y-128627200D02*
X89461428Y-128674819D01*
X89461428Y-128674819D02*
X89270952Y-128674819D01*
X89270952Y-128674819D02*
X89175714Y-128627200D01*
X89175714Y-128627200D02*
X89128095Y-128579580D01*
X89128095Y-128579580D02*
X89080476Y-128484342D01*
X89080476Y-128484342D02*
X89080476Y-127674819D01*
X88699523Y-127674819D02*
X88080476Y-127674819D01*
X88080476Y-127674819D02*
X88413809Y-128055771D01*
X88413809Y-128055771D02*
X88270952Y-128055771D01*
X88270952Y-128055771D02*
X88175714Y-128103390D01*
X88175714Y-128103390D02*
X88128095Y-128151009D01*
X88128095Y-128151009D02*
X88080476Y-128246247D01*
X88080476Y-128246247D02*
X88080476Y-128484342D01*
X88080476Y-128484342D02*
X88128095Y-128579580D01*
X88128095Y-128579580D02*
X88175714Y-128627200D01*
X88175714Y-128627200D02*
X88270952Y-128674819D01*
X88270952Y-128674819D02*
X88556666Y-128674819D01*
X88556666Y-128674819D02*
X88651904Y-128627200D01*
X88651904Y-128627200D02*
X88699523Y-128579580D01*
X96166666Y-131104819D02*
X96499999Y-130628628D01*
X96738094Y-131104819D02*
X96738094Y-130104819D01*
X96738094Y-130104819D02*
X96357142Y-130104819D01*
X96357142Y-130104819D02*
X96261904Y-130152438D01*
X96261904Y-130152438D02*
X96214285Y-130200057D01*
X96214285Y-130200057D02*
X96166666Y-130295295D01*
X96166666Y-130295295D02*
X96166666Y-130438152D01*
X96166666Y-130438152D02*
X96214285Y-130533390D01*
X96214285Y-130533390D02*
X96261904Y-130581009D01*
X96261904Y-130581009D02*
X96357142Y-130628628D01*
X96357142Y-130628628D02*
X96738094Y-130628628D01*
X95309523Y-130438152D02*
X95309523Y-131104819D01*
X95547618Y-130057200D02*
X95785713Y-130771485D01*
X95785713Y-130771485D02*
X95166666Y-130771485D01*
D12*
%TO.C,C4*%
X101440000Y-124707836D02*
X101440000Y-124492164D01*
X102160000Y-124707836D02*
X102160000Y-124492164D01*
%TO.C,Y3*%
X101200000Y-122350000D02*
X101200000Y-125650000D01*
X101200000Y-125650000D02*
X97200000Y-125650000D01*
%TO.C,D10*%
X94500000Y-122360000D02*
X92500000Y-122360000D01*
X94500000Y-122360000D02*
X94500000Y-118350000D01*
X92500000Y-122360000D02*
X92500000Y-118350000D01*
%TO.C,C14*%
X104340580Y-124090000D02*
X104059420Y-124090000D01*
X104340580Y-125110000D02*
X104059420Y-125110000D01*
%TO.C,C13*%
X96140000Y-123592164D02*
X96140000Y-123807836D01*
X96860000Y-123592164D02*
X96860000Y-123807836D01*
%TO.C,R3*%
X97565000Y-127572936D02*
X97565000Y-128027064D01*
X99035000Y-127572936D02*
X99035000Y-128027064D01*
%TO.C,L5*%
X156200000Y-123200000D02*
X156200000Y-123600000D01*
%TO.C,R12*%
X142737258Y-121577500D02*
X142262742Y-121577500D01*
X142737258Y-122622500D02*
X142262742Y-122622500D01*
%TO.C,C11*%
X88265000Y-122738748D02*
X88265000Y-123261252D01*
X89735000Y-122738748D02*
X89735000Y-123261252D01*
%TO.C,L4*%
X142200000Y-123300000D02*
X142200000Y-123700000D01*
%TO.C,C8*%
X102065000Y-127538748D02*
X102065000Y-128061252D01*
X103535000Y-127538748D02*
X103535000Y-128061252D01*
%TO.C,C10*%
X86265000Y-122738748D02*
X86265000Y-123261252D01*
X87735000Y-122738748D02*
X87735000Y-123261252D01*
%TO.C,C2*%
X132813080Y-118470000D02*
X132531920Y-118470000D01*
X132813080Y-119490000D02*
X132531920Y-119490000D01*
%TO.C,R2*%
X108477500Y-116737258D02*
X108477500Y-116262742D01*
X109522500Y-116737258D02*
X109522500Y-116262742D01*
D13*
%TO.C,Q9*%
X153625000Y-120710000D02*
X154875000Y-120710000D01*
X155225000Y-117745000D02*
X155225000Y-120665000D01*
X155225000Y-120665000D02*
X155375000Y-120665000D01*
X155375000Y-117745000D02*
X155225000Y-117745000D01*
X155375000Y-120665000D02*
X155375000Y-117745000D01*
%TO.C,U7*%
X141230000Y-121045000D02*
X142980000Y-121045000D01*
X143330000Y-117300000D02*
X143330000Y-120900000D01*
X143330000Y-120900000D02*
X147030000Y-120900000D01*
X147030000Y-117300000D02*
X143330000Y-117300000D01*
X147030000Y-120900000D02*
X147030000Y-117300000D01*
D12*
%TO.C,C5*%
X105534420Y-113015000D02*
X105815580Y-113015000D01*
X105534420Y-114035000D02*
X105815580Y-114035000D01*
%TO.C,C1*%
X131400000Y-115295000D02*
X135320000Y-115295000D01*
X135320000Y-115295000D02*
X135320000Y-117205000D01*
X135320000Y-117205000D02*
X131400000Y-117205000D01*
%TO.C,R11*%
X128812258Y-120977500D02*
X128337742Y-120977500D01*
X128812258Y-122022500D02*
X128337742Y-122022500D01*
%TO.C,D22*%
X136212500Y-115130000D02*
X139072500Y-115130000D01*
X136212500Y-117050000D02*
X136212500Y-115130000D01*
X139072500Y-117050000D02*
X136212500Y-117050000D01*
%TO.C,C9*%
X104065000Y-127538748D02*
X104065000Y-128061252D01*
X105535000Y-127538748D02*
X105535000Y-128061252D01*
%TO.C,U5*%
X96940000Y-118500000D02*
X96940000Y-116550000D01*
X96940000Y-118500000D02*
X96940000Y-120450000D01*
X107060000Y-118500000D02*
X107060000Y-116550000D01*
X107060000Y-118500000D02*
X107060000Y-120450000D01*
X107335000Y-121440000D02*
X107005000Y-121200000D01*
X107335000Y-120960000D01*
X107335000Y-121440000D01*
G36*
X107335000Y-121440000D02*
G01*
X107005000Y-121200000D01*
X107335000Y-120960000D01*
X107335000Y-121440000D01*
G37*
%TO.C,R36*%
X150385000Y-118892936D02*
X150385000Y-119347064D01*
X151855000Y-118892936D02*
X151855000Y-119347064D01*
%TO.C,D21*%
X158250000Y-117140000D02*
X158250000Y-121150000D01*
X158250000Y-117140000D02*
X160250000Y-117140000D01*
X160250000Y-117140000D02*
X160250000Y-121150000D01*
%TO.C,R35*%
X138227064Y-118015000D02*
X137772936Y-118015000D01*
X138227064Y-119485000D02*
X137772936Y-119485000D01*
%TO.C,L3*%
X128230000Y-122800000D02*
X128230000Y-123200000D01*
%TO.C,C12*%
X99815000Y-127638748D02*
X99815000Y-128161252D01*
X101285000Y-127638748D02*
X101285000Y-128161252D01*
%TO.C,R10*%
X115237258Y-120727500D02*
X114762742Y-120727500D01*
X115237258Y-121772500D02*
X114762742Y-121772500D01*
%TO.C,U1*%
X123090000Y-114340000D02*
X124350000Y-114340000D01*
X123090000Y-118100000D02*
X123090000Y-114340000D01*
X129910000Y-114340000D02*
X128650000Y-114340000D01*
X129910000Y-118100000D02*
X129910000Y-114340000D01*
X130140000Y-119620000D02*
X129810000Y-119380000D01*
X130140000Y-119140000D01*
X130140000Y-119620000D01*
G36*
X130140000Y-119620000D02*
G01*
X129810000Y-119380000D01*
X130140000Y-119140000D01*
X130140000Y-119620000D01*
G37*
%TO.C,R9*%
X108477500Y-119987258D02*
X108477500Y-119512742D01*
X109522500Y-119987258D02*
X109522500Y-119512742D01*
%TO.C,L1*%
X86390000Y-118852064D02*
X86390000Y-117647936D01*
X89110000Y-118852064D02*
X89110000Y-117647936D01*
%TO.C,R13*%
X156537258Y-121277500D02*
X156062742Y-121277500D01*
X156537258Y-122322500D02*
X156062742Y-122322500D01*
%TO.C,L2*%
X114640000Y-122470000D02*
X114640000Y-122870000D01*
%TO.C,U3*%
X92150000Y-125890000D02*
X91350000Y-125890000D01*
X92150000Y-125890000D02*
X92950000Y-125890000D01*
X93150000Y-129110000D02*
X91350000Y-129110000D01*
X93450000Y-125940000D02*
X93210000Y-125610000D01*
X93690000Y-125610000D01*
X93450000Y-125940000D01*
G36*
X93450000Y-125940000D02*
G01*
X93210000Y-125610000D01*
X93690000Y-125610000D01*
X93450000Y-125940000D01*
G37*
%TO.C,R4*%
X95265000Y-127827064D02*
X95265000Y-127372936D01*
X96735000Y-127827064D02*
X96735000Y-127372936D01*
%TD*%
M02*
